<svg width="116" height="18" viewBox="0 0 116 18" fill="none" xmlns="http://www.w3.org/2000/svg">
<path d="M51.8778 5.46405L54.3267 3.66405H46.2067V14.3355H54.3267V12.5355H48.5267V9.83548H53.4244V8.03548H48.5267V5.46405H51.8778ZM41.76 5.46405L44.2089 3.66405H34.9289V14.3355H39.7622C42.4689 14.3355 44.0156 13.114 44.0156 10.9926C44.0156 8.93548 42.5978 7.84262 40.02 7.84262H37.1844V5.46405H41.76ZM39.6978 9.57833C41.18 9.57833 41.8244 10.0926 41.8244 11.0569C41.8244 12.0212 41.1156 12.5355 39.6978 12.5355H37.2489V9.57833H39.6978ZM60.8356 3.66405H56.4533V14.3355H58.7733V11.314H60.9C63.7356 11.314 65.4756 9.83548 65.4756 7.45691C65.4756 5.07833 63.6711 3.66405 60.8356 3.66405ZM60.8356 9.51405H58.7733V5.39976H60.8356C62.3178 5.39976 63.1556 6.10691 63.1556 7.45691C63.0911 8.80691 62.3178 9.51405 60.8356 9.51405ZM30.9978 12.0212C30.3533 12.3426 29.7089 12.5355 29 12.5355C26.9378 12.5355 25.3911 11.0569 25.3911 8.99976C25.3911 6.94262 26.8733 5.46405 29 5.46405C29.7733 5.46405 30.4822 5.72119 31.1267 6.10691L32.8022 4.88548L32.6733 4.75691C31.7067 3.92119 30.4178 3.47119 28.9356 3.47119C27.3244 3.47119 25.9067 3.98548 24.8111 5.01405C23.78 6.04262 23.1356 7.45691 23.2 8.93548C23.2 10.414 23.78 11.8283 24.8111 12.9212C25.9067 13.9498 27.3889 14.5283 28.8711 14.464C30.5467 14.464 31.9644 13.8855 32.9956 12.8569L31.5133 11.764L30.9978 12.0212ZM100.533 8.03548H95.5711V3.66405H93.2511V14.3355H95.5711V9.96405H100.533V14.3355H102.853V3.66405H100.533V8.03548ZM84.8733 3.66405L80.2333 14.3355H82.5533L83.4556 12.214H88.3533L89.2556 14.3355H91.7044L87.1933 3.66405H84.8733ZM84.2289 10.414L86.0333 6.10691L87.7089 10.414H84.2289ZM111.231 8.80691L115.42 3.66405H112.778L109.298 8.22833H108.009V3.66405H105.689V14.3355H108.009V10.0283H109.491L113.036 14.3355H116L111.231 8.80691ZM75.4 7.84262H72.5644V5.46405H78.6222V3.66405H70.2444V14.3355H75.0778C77.7844 14.3355 79.3311 13.114 79.3311 10.9926C79.3956 8.93548 77.9778 7.84262 75.4 7.84262ZM75.0133 12.5998H72.5644V9.64262H75.0133C76.4956 9.64262 77.14 10.1569 77.14 11.1212C77.2044 12.0855 76.4311 12.5998 75.0133 12.5998Z" fill="#21A038"/>
<path d="M15.7767 3.45947C16.1951 4.00631 16.5492 4.60039 16.8321 5.22981L8.80943 11.2086L5.45656 9.08374V6.52749L8.80943 8.6523L15.7767 3.45947Z" fill="#21A038"/>
<path d="M2.0347 8.90305C2.0347 8.78834 2.03747 8.6744 2.043 8.56111L0.0110663 8.46045C0.00415023 8.60728 2.4555e-06 8.75552 2.4555e-06 8.90512C-0.000862076 10.0741 0.22657 11.2316 0.669258 12.3115C1.11194 13.3913 1.76117 14.3722 2.57969 15.1978L4.02099 13.7414C3.39092 13.107 2.89108 12.3529 2.55021 11.5226C2.20933 10.6923 2.03414 9.80203 2.0347 8.90305Z" fill="url(#paint0_linear_940_4120)"/>
<path d="M8.80757 2.05659C8.92098 2.05659 9.03367 2.06078 9.14572 2.06637L9.24739 0.0114705C9.10173 0.00447866 8.95509 0.000983166 8.80757 0.000983166C7.65075 -0.000443 6.50511 0.22915 5.43635 0.676579C4.36758 1.12401 3.39677 1.78046 2.57965 2.60825L4.02095 4.06535C4.6485 3.42816 5.39446 2.92267 6.21592 2.57793C7.03738 2.2332 7.91811 2.05602 8.80757 2.05659Z" fill="url(#paint1_linear_940_4120)"/>
<path d="M8.80756 15.7507C8.69416 15.7507 8.58141 15.7507 8.46871 15.7416L8.36703 17.7958C8.51319 17.8033 8.66005 17.807 8.80756 17.807C9.9639 17.8082 11.109 17.5785 12.1772 17.1309C13.2454 16.6834 14.2156 16.0268 15.032 15.1991L13.5935 13.7427C12.9658 14.3795 12.22 14.8847 11.3987 15.2293C10.5774 15.5739 9.69681 15.7511 8.80756 15.7507Z" fill="url(#paint2_linear_940_4120)"/>
<path d="M12.6253 3.25122L14.3377 1.97521C12.7726 0.693926 10.8188 -0.00355671 8.80487 1.36393e-05V2.05632C10.1686 2.05461 11.5008 2.47126 12.6253 3.25122Z" fill="url(#paint3_linear_940_4120)"/>
<path d="M17.6145 8.90365C17.6156 8.36871 17.5693 7.83471 17.4762 7.30811L15.5805 8.72045C15.5805 8.78132 15.5805 8.84213 15.5805 8.90365C15.581 9.86033 15.3826 10.8065 14.9983 11.6807C14.614 12.5549 14.0522 13.3377 13.3494 13.9783L14.7167 15.5061C15.6304 14.6722 16.3605 13.6536 16.8597 12.5162C17.3589 11.3788 17.6161 10.148 17.6145 8.90365Z" fill="#21A038"/>
<path d="M8.80762 15.7507C7.86124 15.751 6.92533 15.5504 6.06048 15.1619C5.19568 14.7733 4.42121 14.2055 3.78725 13.4951L2.27679 14.8767C3.1015 15.8005 4.10906 16.5387 5.23415 17.0435C6.35923 17.5483 7.57668 17.8084 8.80762 17.807V15.7507Z" fill="url(#paint4_linear_940_4120)"/>
<path d="M4.26582 3.8285L2.89921 2.30078C1.9853 3.13447 1.25494 4.15305 0.75548 5.29047C0.256028 6.42787 -0.00136168 7.65872 5.41744e-06 8.90317H2.03471C2.03429 7.94654 2.23268 7.00042 2.61703 6.12622C3.00137 5.25204 3.5631 4.46922 4.26582 3.8285Z" fill="url(#paint5_linear_940_4120)"/>
<defs>
<linearGradient id="paint0_linear_940_4120" x1="2.99119" y1="14.9412" x2="0.724714" y2="8.46033" gradientUnits="userSpaceOnUse">
<stop offset="0.14" stop-color="#F1E813"/>
<stop offset="0.3" stop-color="#E6E418"/>
<stop offset="0.58" stop-color="#C9DA26"/>
<stop offset="0.89" stop-color="#A2CC39"/>
</linearGradient>
<linearGradient id="paint1_linear_940_4120" x1="3.1606" y1="2.97182" x2="8.90207" y2="0.807548" gradientUnits="userSpaceOnUse">
<stop offset="0.06" stop-color="#0FA7DF"/>
<stop offset="0.54" stop-color="#0098F8"/>
<stop offset="0.92" stop-color="#0290EA"/>
</linearGradient>
<linearGradient id="paint2_linear_940_4120" x1="8.23289" y1="16.566" x2="14.7144" y2="15.1176" gradientUnits="userSpaceOnUse">
<stop offset="0.12" stop-color="#A2CC39"/>
<stop offset="0.28" stop-color="#86C239"/>
<stop offset="0.87" stop-color="#219F38"/>
</linearGradient>
<linearGradient id="paint3_linear_940_4120" x1="8.38164" y1="0.68871" x2="13.9276" y2="2.38163" gradientUnits="userSpaceOnUse">
<stop offset="0.06" stop-color="#0290EA"/>
<stop offset="0.79" stop-color="#0C89CA"/>
</linearGradient>
<linearGradient id="paint4_linear_940_4120" x1="2.7872" y1="14.6264" x2="8.82844" y2="16.8597" gradientUnits="userSpaceOnUse">
<stop offset="0.13" stop-color="#F1E813"/>
<stop offset="0.3" stop-color="#EAE616"/>
<stop offset="0.53" stop-color="#D8DF1F"/>
<stop offset="0.8" stop-color="#BAD52D"/>
<stop offset="0.98" stop-color="#A2CC39"/>
</linearGradient>
<linearGradient id="paint5_linear_940_4120" x1="0.758002" y1="9.15207" x2="3.22286" y2="2.80961" gradientUnits="userSpaceOnUse">
<stop offset="0.07" stop-color="#A2CC39"/>
<stop offset="0.26" stop-color="#81C45E"/>
<stop offset="0.92" stop-color="#0FA7DF"/>
</linearGradient>
</defs>
</svg>
