<svg width="97" height="20" viewBox="0 0 97 20" fill="none" xmlns="http://www.w3.org/2000/svg">
<path d="M0 16.8368H12.8099V19.4941H0V16.8368ZM92.6379 8.30673L96.6767 3.85061H93.6667L90.357 7.55424V3.85061H87.9584V13.2155H90.3687V9.27085L93.9078 13.2155H97L92.6379 8.30673ZM14.2208 8.924C14.1561 10.6876 13.9327 11.0227 12.9568 11.0227V13.2214H13.3213C15.7728 13.2214 16.3548 11.9575 16.443 9.14151L16.5488 6.02576H18.8121V13.2155H21.2107V3.85061H14.3854L14.2208 8.924ZM3.80945 10.5348H8.86521L9.70588 13.2155H12.5101L8.73 1.95176C8.36551 0.864182 7.94224 0 6.49606 0C5.04988 0 4.60897 0.864182 4.22097 1.95176L0.258667 13.2155H2.89236L3.80945 10.5348ZM6.37261 2.93939H6.43727L8.13036 8.27733H4.56782L6.37261 2.93939ZM62.4033 5.17921H59.7285V2.53376H65.9365V0.182243H57.2124V13.2155H62.4033C65.2781 13.2155 66.93 11.7811 66.93 9.15915C66.93 6.67242 65.2545 5.17921 62.4033 5.17921ZM62.2799 10.8581H59.7285V7.47194H62.2799C63.6085 7.47194 64.3551 8.05982 64.3551 9.16503C64.3551 10.2702 63.6085 10.8581 62.2799 10.8581ZM38.559 3.63309V0.164606H36.1663V3.63309C34.9099 3.67454 33.7214 4.21292 32.8616 5.12995C32.0019 6.04704 31.5412 7.26783 31.5808 8.52424C31.538 9.78324 31.9971 11.0077 32.857 11.9282C33.7169 12.8489 34.9073 13.3901 36.1663 13.433V16.9603H38.5648V13.433C39.1885 13.4125 39.802 13.2692 40.3701 13.0113C40.9383 12.7534 41.45 12.3859 41.876 11.9299C42.3019 11.4739 42.6337 10.9384 42.8524 10.354C43.0711 9.7696 43.1723 9.14781 43.1503 8.52424C43.1755 7.90027 43.0761 7.27753 42.858 6.69241C42.6399 6.10724 42.3075 5.57139 41.8801 5.11607C41.4527 4.66082 40.9389 4.29516 40.3687 4.04055C39.7985 3.78594 39.1833 3.64744 38.559 3.63309ZM36.1722 11.1697C35.5374 11.1 34.9554 10.7835 34.5519 10.2886C34.1482 9.79377 33.9553 9.16009 34.0147 8.52424C33.9629 7.88998 34.1586 7.2603 34.5609 6.76719C34.963 6.27402 35.5405 5.95568 36.1722 5.87879V11.1697ZM38.5707 11.1697V5.87879C39.2024 5.95568 39.7799 6.27402 40.182 6.76719C40.5843 7.2603 40.78 7.88998 40.7282 8.52424C40.7845 9.15944 40.5904 9.79147 40.1874 10.2857C39.7844 10.7799 39.2043 11.0971 38.5707 11.1697ZM52.139 10.3408V7.18388C52.139 4.87939 50.6751 3.43909 48.2178 3.43909C45.7605 3.43909 44.3261 4.96758 44.2085 6.56073H46.6364C46.7187 6.21976 47.0832 5.61424 48.2119 5.61424C48.423 5.58708 48.637 5.6093 48.8374 5.67926C49.0385 5.74922 49.2201 5.86485 49.3683 6.01717C49.5164 6.16943 49.6275 6.35415 49.6922 6.55661C49.7569 6.75914 49.7733 6.97389 49.7404 7.18388H47.3889C45.2608 7.18388 43.9968 8.30673 43.9968 10.1644C43.9803 10.6077 44.0569 11.0496 44.2219 11.4614C44.3869 11.8732 44.6365 12.2457 44.9546 12.555C45.2727 12.8642 45.6521 13.1032 46.0685 13.2565C46.4847 13.4098 46.9286 13.4739 47.3713 13.4448C47.871 13.4711 48.3695 13.3738 48.8227 13.1615C49.276 12.9493 49.6699 12.6286 49.9697 12.2279C50.1649 12.558 50.4494 12.8259 50.791 13.0007C51.1319 13.1755 51.5158 13.25 51.8979 13.2155H52.7268V11.0521C52.3212 11.0521 52.139 10.8581 52.139 10.3408ZM49.7404 9.75291C49.7504 9.98447 49.711 10.2155 49.6246 10.4307C49.5388 10.646 49.4083 10.8405 49.2419 11.0016C49.0749 11.1627 48.8762 11.2866 48.6581 11.3653C48.44 11.4439 48.2078 11.4754 47.9768 11.4578C47.1126 11.4578 46.4307 11.1462 46.4307 10.2115C46.4307 9.27673 47.189 9.14151 47.8298 9.14151H49.7404V9.75291ZM27.1835 6.69594H25.461V3.85061H23.0625V13.2155H27.2247C29.829 13.2155 30.7519 11.5224 30.7519 9.92339C30.7637 7.85994 29.4704 6.69594 27.1835 6.69594ZM27.0071 11.1697H25.461V8.81818H27.0071C27.8361 8.81818 28.3358 9.19442 28.3358 9.99394C28.3358 10.7935 27.8596 11.1697 27.0071 11.1697ZM76.0833 10.3408V7.18388C76.0833 4.87939 74.6195 3.43909 72.1621 3.43909C69.7048 3.43909 68.2704 4.96758 68.1528 6.56073H70.5807C70.663 6.21976 71.0275 5.61424 72.1562 5.61424C72.3673 5.58708 72.5813 5.6093 72.7817 5.67926C72.9828 5.74922 73.1645 5.86485 73.3126 6.01717C73.4607 6.16943 73.5718 6.35415 73.6365 6.55661C73.7012 6.75914 73.7176 6.97389 73.6847 7.18388H71.3332C69.2051 7.18388 67.9412 8.30673 67.9412 10.1644C67.9247 10.6077 68.0011 11.0496 68.1663 11.4614C68.3309 11.8732 68.5808 12.2457 68.8988 12.555C69.2169 12.8642 69.5966 13.1032 70.0128 13.2565C70.429 13.4098 70.8729 13.4739 71.3156 13.4448C71.82 13.476 72.3244 13.3811 72.7835 13.1687C73.2421 12.9563 73.6406 12.6329 73.9434 12.2279C74.1356 12.5522 74.4149 12.8165 74.7494 12.9909C75.0839 13.1654 75.4601 13.2432 75.8364 13.2155H76.6653V11.0521C76.2479 11.0521 76.0833 10.8581 76.0833 10.3408ZM73.6965 9.75291C73.7053 9.98424 73.6653 10.2148 73.5789 10.4296C73.4925 10.6444 73.362 10.8386 73.1956 10.9995C73.0292 11.1603 72.8305 11.2843 72.613 11.3633C72.3955 11.4423 72.1639 11.4745 71.9328 11.4578C71.0687 11.4578 70.3867 11.1462 70.3867 10.2115C70.3867 9.27673 71.1451 9.14151 71.7859 9.14151H73.6965V9.75291ZM83.7433 7.33673H80.4336V3.85061H78.035V13.2214H80.4336V9.52951H83.7433V13.2155H86.1419V3.85061H83.7433V7.33673Z" fill="#EF3124"/>
</svg>
