<svg width="123" height="30" viewBox="0 0 123 30" fill="none" xmlns="http://www.w3.org/2000/svg">
<path d="M32.8809 13.8858L33.321 12.5067L31.8895 12.5519C31.219 12.5272 30.5731 12.3014 30.0301 11.9033H30.2234C31.0956 11.8992 31.8936 11.4025 32.2803 10.6227L32.9097 9.2805C32.416 9.28459 31.9224 9.25582 31.4329 9.19425C30.9639 9.08346 30.5443 8.829 30.2275 8.46777C29.7997 8.01218 29.2074 7.75357 28.5821 7.74948C28.3393 7.74948 28.0966 7.79052 27.8622 7.86436C27.8951 7.75357 27.9239 7.64277 27.9444 7.52782C28.0432 6.72743 27.8169 5.9188 27.3191 5.2826L26.2331 3.94861L25.5667 5.50834C25.4598 5.73 25.2993 5.92295 25.0936 6.06245C24.9784 5.50425 24.7069 4.99529 24.3038 4.59303C23.6292 3.90346 22.7035 3.51764 21.7368 3.52585C21.5682 3.52585 21.3995 3.53816 21.235 3.56279L19.935 3.81727C20.0461 3.38218 20.223 2.96762 20.4616 2.58589L21.1774 1.47355L19.3756 1.64184L18.7997 0.410461L17.689 1.01384L16.6606 0L15.6321 1.01384L14.5214 0.439193L13.9455 1.64184L12.1437 1.4366L12.8594 2.55305C13.0981 2.93478 13.2749 3.34934 13.386 3.78443L12.1519 3.54226H12.1108C11.938 3.51764 11.7652 3.50532 11.5924 3.50532C10.6257 3.49711 9.70012 3.88294 9.02547 4.57251C8.6182 4.97887 8.33851 5.49607 8.2274 6.06245C8.02999 5.92705 7.86954 5.74234 7.7626 5.52477L7.09204 3.95272L5.99782 5.29081C5.50828 5.92705 5.29023 6.73152 5.38487 7.52782C5.40544 7.64277 5.43421 7.75357 5.46714 7.86436C5.23263 7.79052 4.98991 7.74948 4.74725 7.74948C4.12194 7.75357 3.52955 8.01218 3.10172 8.46777C2.78909 8.82484 2.37363 9.07936 1.90875 9.19425C1.41511 9.26816 0.913275 9.29686 0.411367 9.2805L1.02432 10.6432C1.41101 11.423 2.20908 11.9198 3.08115 11.9238H3.27453C2.73976 12.3138 2.10214 12.5395 1.43978 12.5682L0 12.5067L0.440135 13.8858C0.769297 14.9654 1.70307 15.7575 2.82613 15.9012C2.71092 16.6277 2.25022 17.2557 1.59203 17.5841L0.48954 18.0314L1.08192 19.0617C1.57146 19.8211 2.41476 20.2726 3.31567 20.2644C3.55012 20.2644 3.78464 20.2397 4.01499 20.1905C4.0726 20.4408 4.1466 20.6912 4.22888 20.9334C4.43456 21.4752 4.44693 22.0663 4.27001 22.6163L3.73524 23.7368L4.93237 24.0529C5.19976 24.1227 5.47944 24.1555 5.7551 24.1555C5.95252 24.1555 6.1459 24.135 6.33921 24.0899C6.47909 24.057 6.61897 24.016 6.75058 23.9626C6.90283 24.2376 7.09614 24.4921 7.31419 24.7178C8.07932 25.5018 9.16534 25.9 10.5434 25.9H11.5266L9.49854 26.7414L11.0371 27.5007C11.6583 27.8045 12.2918 28.0795 12.9376 28.3216L12.7525 28.8553L13.2832 29.0974C14.1635 29.4422 15.0973 29.6352 16.0435 29.668H17.3064C18.2484 29.6352 19.1781 29.4381 20.0543 29.0933L20.5685 28.8553L20.3875 28.3216C21.0416 28.0713 21.6834 27.788 22.3086 27.472L23.8184 26.7414L21.7944 25.9205H22.7817C24.1598 25.9205 25.25 25.51 26.011 24.7383C26.2331 24.5126 26.4224 24.2581 26.5746 23.9831C26.7062 24.0365 26.846 24.0775 26.9859 24.1104C27.1793 24.1555 27.3726 24.176 27.5701 24.176C27.8457 24.176 28.1255 24.1391 28.3928 24.0734L29.594 23.7573L29.0716 22.6574C28.8741 22.0991 28.8824 21.4875 29.0922 20.9334C29.1785 20.683 29.2485 20.4286 29.306 20.174C29.5365 20.2233 29.775 20.248 30.0095 20.248C30.9186 20.2561 31.766 19.7882 32.2474 19.0166L32.8315 17.9986L31.7455 17.5553C31.0873 17.227 30.6266 16.5989 30.5114 15.8725C31.6344 15.7247 32.5683 14.9366 32.8974 13.853L32.8809 13.8858Z" fill="white"/>
<path d="M21.6053 18.2448H11.7324V21.9389C11.7324 23.4576 12.8307 24.4017 14.4556 24.4017C15.8132 24.4017 16.1711 24.455 16.6729 24.9558C16.9897 24.6151 17.438 24.4222 17.907 24.4304V24.3729L18.2197 23.4124L17.689 22.8337C17.4751 22.8993 17.2529 22.924 17.0309 22.9117C16.6976 22.9076 16.3685 22.8747 16.0435 22.8091H15.9407C15.8954 22.8091 15.8954 22.8091 15.8831 22.8337L15.8214 22.9363L15.7103 23.121L15.4964 23.0718L14.5461 22.8501L14.4145 23.0635V23.0882L14.5297 23.2154L14.4803 23.3796C14.3939 23.5808 14.2705 23.7613 14.1142 23.9173L13.8756 24.1718L13.6576 23.9009L13.4971 23.6997C13.3244 23.474 13.2832 23.1785 13.382 22.9117L13.1146 23.0225L12.9953 22.7598L12.9295 22.5751C12.7608 22.1851 12.8883 21.7336 13.2297 21.4874L13.9949 21.0769L14.723 21.2206C14.723 21.1508 14.7683 20.9005 14.7888 20.8389H14.7477L14.3363 20.9948L13.925 20.7158C13.8427 20.6337 13.8386 20.4982 13.925 20.412L14.3158 19.8209L13.3244 18.5896L14.8094 19.1724L14.9122 19.0493L15.1179 18.803L15.3524 19.0246C15.4142 19.0862 15.4553 19.1601 15.4759 19.2463C15.8872 19.4105 16.6483 19.8907 16.71 20.6706L16.4754 20.765C16.5043 20.806 16.5413 20.8389 16.5865 20.8594L17.6726 20.9661L17.7713 20.9373C17.9564 20.8676 18.1538 20.8306 18.3513 20.8265C18.5488 20.8265 18.7421 20.8717 18.919 20.9579C18.9971 20.9292 19.0836 20.9127 19.1659 20.9086H19.2193C19.7994 20.9086 20.0914 21.3437 20.3218 21.6885L20.4411 21.8609C20.6427 22.1483 20.9101 22.5669 20.9224 22.5833L21.0417 22.768L20.8936 22.9404C20.7578 23.121 20.5439 23.2236 20.3177 23.2236C20.2519 23.2277 20.186 23.2277 20.1202 23.2236C20.0626 23.2113 20.0051 23.1949 19.9475 23.1703C19.9475 23.2277 19.9475 23.2975 19.9145 23.355L19.7459 24.3237C20.8648 24.0979 21.6546 23.0964 21.6094 21.9553L21.6053 18.2448ZM11.7201 17.9451H19.4086C19.0959 17.6168 18.9889 17.1447 19.1288 16.7138C19.026 16.6645 18.9272 16.5988 18.8409 16.525C18.5405 16.7466 17.6068 17.4115 17.3846 17.5798L17.3353 17.6127L14.3158 17.0791H14.2541C14.1553 17.0832 14.0566 17.0832 13.9579 17.0791C13.9291 17.2145 13.8098 17.3089 13.674 17.3089H13.6247C13.4643 17.2802 13.3532 17.1283 13.3779 16.9682V16.9025C12.987 16.6235 12.8019 16.1391 12.9047 15.6712V15.6178L12.9501 15.585C12.9501 15.585 13.0076 15.544 13.0858 15.4988L12.8678 15.466C12.7855 15.4495 12.732 15.3757 12.7444 15.2936C12.7567 15.2115 12.8307 15.1581 12.913 15.1705H12.9171L13.4396 15.2525L13.4889 13.4178L14.2664 12.5969L14.7519 13.6148L14.2418 15.3798L14.7025 15.4536C14.7847 15.4701 14.8382 15.544 14.8259 15.626C14.8136 15.6999 14.7519 15.7492 14.6778 15.7492H14.6531L14.2787 15.6876V15.7163C14.3199 15.7902 14.3816 15.8477 14.4597 15.8846L16.7593 15.9216L17.3476 15.3428C16.8992 15.1868 16.5783 14.7928 16.5248 14.3208C16.2369 14.21 16.0024 13.9965 15.8708 13.7215C15.7597 13.4629 15.7391 13.1715 15.8173 12.9006C15.4553 12.757 15.1262 12.5394 14.8588 12.2603H11.4444C11.6089 12.6625 11.7036 13.0894 11.7201 13.5204V17.9451Z" fill="#FCE527"/>
<path d="M38.2574 14.7765H41.6471V20.523H44.1153V14.7765H47.5051V12.6914H38.2574V14.7765ZM50.7631 17.2393V12.7243H48.3772V20.523H50.4834L54.5971 15.9587V20.523H56.9831V12.6914H54.8769L50.7631 17.2393ZM64.9269 15.5975H61.0927V12.7243H58.7067V20.523H61.0927V17.6005H64.9269V20.523H67.3124V12.7243H64.9269V15.5975ZM75.6348 14.99C75.071 14.8176 74.4786 14.7478 73.8902 14.7765H71.422V12.7243H69.0365V20.523L73.8738 20.4902C74.3802 20.4984 74.8817 20.4409 75.3717 20.3096C76.614 20.0058 77.4695 18.8771 77.4285 17.6005C77.4777 16.4307 76.7493 15.3635 75.6348 14.99ZM74.4171 18.5199C74.1164 18.6225 73.7959 18.6636 73.4788 18.6349H71.422V16.6483H73.4788C73.7877 16.6277 74.1 16.6647 74.4007 16.7468C74.7792 16.8576 75.0341 17.2065 75.0259 17.6005C75.03 18.0028 74.7915 18.3681 74.4171 18.5199ZM87.4243 12.7243H84.4299L81.5504 15.6632H80.8923V12.7243H78.5061V20.523H80.8923V17.5677H81.5504L84.3971 20.523H87.5726L83.6072 16.4184L87.4243 12.7243Z" fill="#222220"/>
<path d="M92.5588 12.4778C89.3335 12.4778 87.4079 14.2838 87.4079 16.6152C87.4079 18.9466 89.3499 20.7526 92.5418 20.7526C95.7343 20.7526 97.6592 18.9466 97.6592 16.6152C97.6592 14.2838 95.7835 12.4778 92.5588 12.4778ZM92.5418 18.8481C90.9462 18.8481 89.926 17.8959 89.926 16.6152C89.926 15.3346 90.9626 14.3988 92.5418 14.3988C94.1216 14.3988 95.1582 15.3346 95.1582 16.6152C95.1582 17.8959 94.138 18.8481 92.5418 18.8481ZM105.521 13.036V12.248H103.135V13.036C100.14 13.1017 98.3467 14.3659 98.3467 16.5988C98.3467 18.8317 100.14 19.9974 103.135 20.0631V20.8511H105.521V20.0631C108.532 19.9974 110.326 18.8317 110.326 16.5988C110.326 14.3659 108.536 13.1017 105.521 13.036ZM103.135 18.3884C101.489 18.3228 100.765 17.6496 100.765 16.5988C100.765 15.548 101.489 14.7928 103.135 14.7271V18.3884ZM105.521 18.3884V14.7271C107.183 14.7928 107.89 15.548 107.89 16.5988H107.894C107.894 17.6496 107.187 18.3228 105.521 18.3884ZM118.195 13.036V12.248H115.809V13.036C112.814 13.1017 111.02 14.3659 111.02 16.5988C111.02 18.8317 112.814 19.9974 115.809 20.0631V20.8511H118.195V20.0631C121.206 19.9974 123 18.8317 123 16.5988C123 14.3659 121.206 13.1017 118.195 13.036ZM115.809 18.3884C114.164 18.3228 113.439 17.6496 113.439 16.5988C113.439 15.548 114.164 14.7928 115.809 14.7271V18.3884ZM120.56 16.5988C120.56 17.6496 119.857 18.3228 118.195 18.3884V14.7271C119.857 14.7928 120.565 15.548 120.565 16.5988H120.56ZM14.8752 19.8579C14.8258 19.8579 14.7806 19.8948 14.7765 19.944V19.9481C14.7724 20.0015 14.8135 20.0507 14.8669 20.0548H14.871C14.9286 20.0548 14.9698 20.0097 14.9698 19.9564C14.9698 19.8989 14.9286 19.8579 14.8752 19.8579ZM14.8711 19.8537C14.8752 19.8537 14.8752 19.8579 14.8752 19.8579C14.8793 19.8579 14.8793 19.8537 14.8834 19.8537H14.8711ZM21.5928 26.5853L21.0251 26.3677L21.1815 25.7807L21.3542 25.1405C20.5767 25.5386 19.7623 25.8587 18.9231 26.0968C18.5117 26.2117 18.2155 26.2651 18.2155 26.2651V26.6797C17.7095 26.7617 17.1994 26.8069 16.6852 26.811H16.6399C16.1257 26.8069 15.6156 26.7617 15.1096 26.6797V26.2692C15.1096 26.2692 14.8093 26.2117 14.398 26.0968C13.5588 25.8587 12.7442 25.5386 11.9667 25.1405L12.1354 25.7807L12.2958 26.3677L11.7241 26.5853L11.107 26.8192C11.9544 27.2584 12.8389 27.6237 13.7521 27.911L13.5341 28.5021C14.5255 28.8797 15.5868 29.0645 16.6482 29.0398H16.6728C17.7342 29.0645 18.7956 28.8797 19.7869 28.5021L19.573 27.911C20.4822 27.6237 21.3666 27.2584 22.214 26.8192L21.5928 26.5853ZM11.794 26.8562L12.7155 26.5483L12.4399 25.6453C13.0445 25.9449 13.6699 26.1954 14.3157 26.3923L13.8632 27.6237C13.1515 27.4349 12.4563 27.1764 11.794 26.8562ZM16.6852 28.7484L16.6646 28.732C15.7596 28.7278 14.8587 28.6047 13.9866 28.3667L14.5419 26.8644C15.2331 27.0368 15.9447 27.1312 16.6605 27.1352H16.7058C17.4216 27.1271 18.1332 27.0368 18.8243 26.8644L19.3797 28.3667C18.5034 28.613 17.5943 28.7402 16.6852 28.7484ZM19.4907 27.6484V27.636L19.0382 26.4047C19.6841 26.2076 20.3093 25.9573 20.9141 25.6576L20.6384 26.5606L21.5723 26.8726C20.9058 27.1969 20.2065 27.4595 19.4907 27.6484ZM16.6605 3.15627C17.5901 3.13164 18.5034 3.41075 19.2603 3.94845C19.3796 3.34097 19.6058 2.75812 19.9308 2.22863L18.9971 2.33535L18.5116 1.29689L17.5696 1.78123L16.6605 0.882324L15.7513 1.78123L14.8093 1.29689L14.3239 2.33535L13.39 2.22863C13.715 2.75812 13.9413 3.34097 14.0606 3.94845C14.8175 3.41075 15.7307 3.13164 16.6605 3.15627ZM14.2827 2.69655L14.5419 2.72529L14.653 2.49133L14.978 1.79355L15.5827 2.10549L15.8172 2.22452L16.0064 2.05213L16.6605 1.39129L17.3146 2.05213L17.5038 2.23684L17.7382 2.11781L18.3389 1.80586L18.668 2.50364L18.779 2.7376L19.0382 2.70887L19.285 2.68014C19.1863 2.90589 19.0999 3.13985 19.0299 3.37792C17.5449 2.61857 15.7801 2.61857 14.295 3.37792C14.2251 3.13985 14.1388 2.90589 14.04 2.68014L14.2827 2.69655ZM28.8618 11.6281L28.7507 11.4927C27.9856 10.5199 27.2574 9.59636 25.9575 9.17357C26.011 9.12843 26.0644 9.08739 26.122 9.05043C26.7391 8.70155 27.1751 8.10229 27.315 7.40861C27.385 6.78059 27.2081 6.15264 26.8214 5.65184L26.41 5.13879L26.1508 5.75036C26.1508 5.78732 25.6942 6.76832 24.7727 6.76832H24.5012C24.5506 6.12386 24.3161 5.48766 23.8595 5.02796C23.3042 4.46153 22.539 4.14548 21.7451 4.14958C21.5969 4.14958 21.4489 4.1619 21.3049 4.18242L20.6755 4.30556L21.0663 4.81863C21.3707 5.22909 21.6463 5.93916 21.3214 6.32091C21.165 6.45639 20.9882 6.56309 20.7948 6.63693C20.3834 6.82989 19.791 7.10486 19.791 7.79445C19.791 8.24186 20.1407 8.70979 20.7701 9.10791C22.6254 10.2819 23.7731 11.4927 24.2709 12.8554C25.0401 14.9323 24.0364 16.1145 23.0615 16.7383L22.6254 17.0175L23.008 17.3664C23.3494 17.6578 23.769 17.8384 24.2174 17.8835H24.5917C24.9743 17.8835 25.3528 17.8302 25.7189 17.7193C25.6284 17.8794 25.5174 18.0313 25.3981 18.1708C24.8427 18.8153 24.0199 19.1683 23.1684 19.1231H22.8023L22.7735 19.4885C22.7694 20.0015 22.9957 20.4858 23.3865 20.8183C23.4893 20.9086 23.6044 20.9825 23.7278 21.0399C23.1191 21.631 22.7735 22.4396 22.7611 23.2892C22.7611 23.7531 22.6542 24.2128 22.4526 24.6315L22.0412 25.2472H22.7735C23.9829 25.2472 24.9085 24.9147 25.5502 24.2539C25.8834 23.905 26.1302 23.4822 26.2742 23.0225C26.5128 23.2236 26.7926 23.3632 27.097 23.4329C27.241 23.4658 27.3891 23.4822 27.5372 23.4822C27.7593 23.4822 27.9815 23.4534 28.1953 23.4042L28.6643 23.2811L28.4586 22.846C28.1994 22.1523 28.1994 21.3847 28.4586 20.691C28.6108 20.2395 28.7178 19.7716 28.7754 19.2955C29.1456 19.4843 29.557 19.5787 29.9725 19.5746C30.6553 19.5828 31.293 19.2463 31.6632 18.6757L31.8894 18.2653L31.4781 18.0928C30.1 17.5224 29.7956 15.9872 29.7339 15.1581C29.8696 15.1868 30.0054 15.2032 30.1452 15.2073L30.2604 15.2853C31.7578 15.2853 32.2597 13.7625 32.2802 13.6969L32.449 13.1591H31.8853C30.7006 13.1181 29.594 12.5599 28.8618 11.6281ZM30.2645 14.8708H30.2069C29.9067 14.8749 29.6105 14.7928 29.3554 14.6368C29.3554 14.6368 29.1374 17.6045 31.3547 18.5239V18.5362C31.0626 18.9795 30.5608 19.2422 30.0301 19.2339C29.4294 19.2709 28.8494 19.0164 28.471 18.5526C28.4833 19.2504 28.3682 19.9481 28.1336 20.6049C27.8333 21.3971 27.8333 22.2755 28.1336 23.0677C27.9485 23.1128 27.7634 23.1374 27.5742 23.1374C27.459 23.1374 27.3397 23.1251 27.2286 23.0964C26.6815 22.965 26.2455 22.5628 26.0685 22.0333C26.0685 22.0333 26.155 24.8818 22.8269 24.8818H22.8023C23.0532 24.4057 23.1849 23.8762 23.1808 23.3385C23.3248 21.2329 24.7563 20.9332 24.7563 20.9332C24.3614 20.884 23.987 20.7444 23.6579 20.5228C23.3576 20.2724 23.1849 19.903 23.1766 19.5131C24.1392 19.5541 25.069 19.1559 25.6983 18.4254C26.0768 17.9944 26.3277 17.469 26.4347 16.9066C25.904 17.3048 25.2499 17.5059 24.5876 17.4772H24.2503C23.8924 17.4403 23.551 17.3007 23.2753 17.0667C24.5424 16.2458 25.4309 14.8421 24.6452 12.7117C24.0117 11.0042 22.4937 9.72775 20.9676 8.76727C20.4616 8.45527 20.1572 8.10229 20.1572 7.79854C20.1572 7.08434 21.1733 7.06382 21.5928 6.56718C22.0742 6.00898 21.7739 5.10595 21.3542 4.56414C21.4735 4.54362 21.5969 4.53541 21.7163 4.53541C22.4033 4.5272 23.0656 4.80221 23.5427 5.29476C24.0282 5.75445 24.2133 6.44814 24.0282 7.0885L24.2503 7.13364C24.386 7.15825 24.5218 7.17059 24.6617 7.17468H24.7522C25.9575 7.17468 26.5005 5.91454 26.5005 5.91454C26.5005 5.91454 27.784 7.4907 25.8958 8.72207C25.5708 8.93145 25.4268 9.13252 25.4844 9.33775L25.5132 9.47323L25.649 9.49784C27.0188 9.86725 27.7058 10.8114 28.5574 11.8826C29.3636 12.9047 30.5813 13.5204 31.8853 13.5655H31.91C31.91 13.5655 31.4986 14.8708 30.2645 14.8708Z" fill="#222220"/>
<path d="M27.6235 9.35838C28.0842 9.62108 28.4833 9.97822 28.7959 10.4051C29.0304 10.7663 29.3636 11.0536 29.7585 11.226C29.9066 11.2752 30.067 11.2999 30.2234 11.2999C30.8527 11.2999 31.4287 10.9428 31.7167 10.3846L31.9552 9.85099L31.3752 9.81813C30.7499 9.70317 30.1863 9.38306 29.7709 8.90279C29.4623 8.57033 29.0304 8.37738 28.5737 8.37329C28.22 8.37738 27.8785 8.48415 27.5823 8.67294L27.0476 9.04644L27.6235 9.35838ZM28.5861 8.77147L28.5737 8.77556C28.9234 8.77556 29.2525 8.9274 29.487 9.18601C29.9683 9.73604 30.6265 10.1014 31.3505 10.2204C31.1284 10.6349 30.6964 10.8935 30.2234 10.8976C30.1082 10.8976 29.993 10.8771 29.8819 10.8402C29.2155 10.6144 28.981 9.60881 27.8251 9.00131C28.0513 8.85356 28.3146 8.77556 28.5861 8.77147ZM27.895 14.6492L27.8868 14.641C27.5495 11.932 25.579 9.97413 23.3864 8.7879C23.1848 8.67704 22.9955 8.58676 22.8146 8.50058C23.7196 8.68529 24.6616 8.46363 25.3897 7.89717C25.3897 7.89717 24.1186 8.82894 21.5187 7.98335C22.2387 8.45128 23.6373 9.10801 24.9167 10.1752C28.1089 12.9745 25.8258 15.7082 25.8258 15.7082C26.7802 14.8052 27.1134 13.426 26.6855 12.1865C27.3602 13.307 27.6852 14.6041 27.6153 15.9094C27.5247 18.0601 26.3277 19.9401 25.0936 21.4382C24.7234 21.9102 24.4683 22.4644 24.3613 23.0554C24.5711 22.4684 24.8879 21.9267 25.2993 21.4587C26.6362 19.8949 27.7675 18.2736 27.9279 15.9381C28.0678 16.3485 28.6355 17.543 29.5405 17.9903C29.5405 17.9903 28.4051 17.309 27.895 14.6492ZM10.8643 24.6604C10.6668 24.2416 10.5598 23.782 10.5557 23.3181C10.5434 22.4684 10.1937 21.6599 9.58485 21.0688C9.70826 21.0113 9.82347 20.9375 9.92631 20.8471C10.3171 20.5147 10.5434 20.0303 10.5393 19.5173L10.5146 19.1519H10.1443C9.2969 19.193 8.47416 18.8441 7.91882 18.1997C7.79951 18.0601 7.69256 17.9082 7.59792 17.7482C7.96405 17.859 8.34255 17.9124 8.72508 17.9124H9.09948C9.54781 17.8672 9.97155 17.6866 10.313 17.3952L10.6955 17.0463L10.2595 16.7672C9.28043 16.1433 8.28085 14.9611 9.05007 12.8843C9.54781 11.5339 10.6955 10.3148 12.5673 9.14088C13.1967 8.73042 13.5422 8.27483 13.5422 7.82742C13.5422 7.13783 12.9622 6.86285 12.5385 6.6699C12.3452 6.59599 12.1683 6.48929 12.012 6.35388C11.6829 5.97213 11.9585 5.24562 12.267 4.85157L12.6784 4.3385L12.0449 4.21536C11.9009 4.19073 11.7528 4.18252 11.6047 4.18252C10.8026 4.1579 10.0292 4.46575 9.46144 5.02807C8.99664 5.48367 8.75392 6.12397 8.79915 6.77251H8.55233C7.62676 6.77251 7.19066 5.7956 7.17426 5.75456L6.91507 5.143L6.5037 5.6561C6.1211 6.15683 5.94426 6.78485 6.01416 7.41281C6.15404 8.10649 6.58597 8.70581 7.20302 9.05469C7.26063 9.09158 7.31823 9.13263 7.36757 9.17783C6.06767 9.58829 5.33951 10.5241 4.57438 11.4969L4.46327 11.6365C3.73108 12.5682 2.62039 13.1264 1.43562 13.1675H0.872009L1.04482 13.7052C1.04482 13.7708 1.56313 15.2937 3.06462 15.2937H3.13869C3.27857 15.2895 3.41428 15.2731 3.55006 15.2444C3.48836 16.0653 3.18393 17.6086 1.80175 18.1792L1.39039 18.3516L1.61664 18.762C1.98687 19.3326 2.62449 19.6692 3.30734 19.6609C3.72281 19.665 4.13007 19.5706 4.5003 19.3819C4.55791 19.858 4.66485 20.3259 4.8171 20.7774C5.07622 21.4711 5.07622 22.2386 4.8171 22.9323L4.61141 23.3674L5.08032 23.4905C5.29427 23.5398 5.51642 23.5685 5.73857 23.5685C5.88665 23.5685 6.03473 23.5521 6.17871 23.5193C6.48313 23.4494 6.76289 23.3099 7.00144 23.1088C7.14542 23.5685 7.39224 23.9913 7.7255 24.3402C8.37132 25.001 9.2969 25.3294 10.5022 25.3334H11.2345L10.8643 24.6604ZM10.5104 24.8902C7.18246 24.8902 7.26473 22.0416 7.26473 22.0416C7.08781 22.5711 6.65178 22.9733 6.10463 23.1047C5.99359 23.1334 5.87428 23.1458 5.75914 23.1458C5.56986 23.1458 5.38474 23.1211 5.2038 23.0759C5.50405 22.2837 5.50405 21.4054 5.2038 20.6132C4.96928 19.9565 4.85823 19.2587 4.87053 18.5609C4.4921 19.0247 3.91209 19.2792 3.31144 19.2423H3.29087C2.7561 19.2505 2.25426 18.9837 1.96213 18.5404C4.17948 17.6209 3.96143 14.6533 3.96143 14.6533C3.70634 14.8093 3.41018 14.8914 3.10986 14.8873H3.06462C1.83052 14.8873 1.41915 13.582 1.41915 13.582H1.44382C2.7479 13.541 3.96963 12.9253 4.77596 11.9033C5.62336 10.832 6.31449 9.88788 7.68436 9.51847L7.82007 9.49385L7.84891 9.35844C7.88588 9.14906 7.7419 8.94792 7.43748 8.74269C5.54929 7.51133 6.83279 5.93517 6.83279 5.93517C6.83279 5.93517 7.36757 7.19531 8.5811 7.19531H8.63871C8.77859 7.19122 8.9143 7.17888 9.05007 7.15426L9.27223 7.10913C9.08301 6.46876 9.27223 5.77508 9.75767 5.31539C10.2348 4.82284 10.8971 4.54784 11.5841 4.55604C11.7035 4.55604 11.8269 4.56425 11.9461 4.58478C11.5347 5.13069 11.2303 6.03369 11.7117 6.58781C12.123 7.06808 13.1432 7.0886 13.1432 7.81917C13.1432 8.12292 12.8594 8.4759 12.3534 8.79199C10.8231 9.75247 9.30516 11.029 8.67574 12.7365C7.89005 14.8668 8.77859 16.2829 10.0456 17.0915C9.76997 17.3213 9.42857 17.465 9.07064 17.5019H8.72918C8.06689 17.5306 7.41281 17.3295 6.88213 16.9314C6.98914 17.4937 7.24006 18.0191 7.61439 18.4501C8.24381 19.1766 9.17758 19.5788 10.1402 19.5378C10.132 19.9277 9.95918 20.2971 9.65892 20.5476C9.32983 20.7691 8.95543 20.9087 8.56053 20.958C8.56053 20.958 9.99622 21.2494 10.1526 23.3633C10.1485 23.9009 10.2801 24.4304 10.531 24.9066L10.5104 24.8902Z" fill="#222220"/>
<path d="M3.09345 11.2958H3.09762C3.2539 11.2958 3.41435 11.2712 3.56242 11.222C3.95739 11.0495 4.29058 10.7622 4.52504 10.401C4.83356 9.97416 5.23263 9.61703 5.69333 9.35432L6.26924 9.04648L5.73447 8.67298C5.43831 8.48419 5.09685 8.37741 4.74719 8.37332C4.29058 8.37741 3.85865 8.57037 3.55012 8.90691C3.13876 9.3831 2.57104 9.70737 1.94989 9.82226L1.36981 9.85103L1.60433 10.3846C1.89229 10.9428 2.4641 11.2917 3.09345 11.2958ZM3.83398 9.18605C4.06433 8.92744 4.39342 8.7756 4.74309 8.7756C5.01047 8.77969 5.27376 8.86178 5.50001 9.00544C4.33582 9.62521 4.0931 10.6186 3.44318 10.8443C3.33617 10.8813 3.22103 10.9018 3.10582 10.9018C2.62865 10.9018 2.19261 10.6391 1.97046 10.2204C2.69445 10.1014 3.35264 9.73607 3.83398 9.18605ZM5.71397 15.9258C5.64406 14.6206 5.96496 13.3235 6.64371 12.203C6.21588 13.4425 6.54907 14.8217 7.50348 15.7247C7.50348 15.7247 5.21623 12.991 8.41259 10.1917C9.69192 9.12448 11.0865 8.46776 11.8064 7.99982C9.20655 8.84535 7.93542 7.91364 7.93542 7.91364C8.66351 8.4801 9.60145 8.70169 10.5065 8.51698C10.3254 8.60323 10.1362 8.6976 9.93464 8.8043C7.74203 9.99469 5.75927 11.9525 5.43428 14.6616V14.6411C4.92417 17.3008 3.78881 17.9822 3.78881 17.9822C4.68965 17.5389 5.26146 16.3404 5.39724 15.9299C5.54942 18.2695 6.69305 19.8908 8.02999 21.4506C8.43725 21.9185 8.75815 22.4603 8.96793 23.0473C8.85689 22.4603 8.6018 21.9062 8.22747 21.4383C6.99337 19.9401 5.80041 18.0602 5.71397 15.9258ZM15.9077 10.9839C16.0516 10.8443 16.2532 10.7786 16.4548 10.8033V11.579C16.4507 11.7719 16.4013 11.9566 16.3067 12.125H17.0842C16.9896 11.9566 16.9402 11.7719 16.9361 11.579V10.8033C17.1336 10.7786 17.3351 10.8443 17.4791 10.9839V10.4462H15.9077V10.9839ZM15.5827 7.26101H15.5745C15.6938 7.36362 15.8337 7.44571 15.9859 7.49494L16.0846 7.54014V7.03116L15.1714 6.64941C15.2166 6.90387 15.3648 7.12553 15.5827 7.26101ZM17.7507 7.25691L17.7466 7.26101C17.9646 7.12553 18.1127 6.90387 18.158 6.64941L17.2447 7.03116V7.53598L17.3394 7.49085C17.4916 7.44162 17.6314 7.35953 17.7507 7.25691Z" fill="#222220"/>
<path d="M19.3879 5.2003C19.3879 4.43273 18.0921 3.74316 16.6646 3.74316C15.2372 3.74316 13.9414 4.43273 13.9414 5.2003L13.9702 5.38911L14.5419 8.67278L13.9702 9.00523L12.4769 9.85082C12.4769 9.85082 12.1436 10.0232 11.9874 10.1258C11.4237 10.5363 11.3045 11.0863 11.6294 11.3244C11.7117 10.7661 12.2012 10.3556 12.769 10.3721C13.242 10.3844 13.6822 10.6224 13.9496 11.0124C14.0319 11.1109 14.1059 11.2176 14.1717 11.3244C14.2581 11.4639 14.3445 11.587 14.4309 11.7061H10.6216C10.9425 12.2561 11.1276 12.8758 11.1687 13.5121V21.9552C11.1687 24.0076 12.7443 24.9721 14.4597 24.9721C15.7761 24.9721 15.9529 24.9106 16.677 25.6329C17.401 24.9106 17.5779 24.9721 18.8943 24.9721C20.5974 24.9721 22.1852 23.9993 22.1852 21.9552V13.5203C22.2264 12.8841 22.4115 12.2643 22.7324 11.7143H18.8819C18.9683 11.5953 19.0547 11.4721 19.1411 11.3326C19.211 11.2258 19.2851 11.1191 19.3633 11.0206C19.6347 10.6307 20.0749 10.3926 20.548 10.3803C21.1157 10.3639 21.6052 10.7743 21.6875 11.3326C22.0166 11.0986 21.8973 10.5116 21.3296 10.134C21.1774 10.0273 20.8442 9.859 20.8442 9.859L19.3633 8.9888L18.7914 8.65635L19.3633 5.37269L19.3879 5.2003ZM14.4926 5.57794L16.5001 6.25519V9.39932L15.0233 8.61939L14.4926 5.57794ZM11.4443 12.2602H14.904C15.1714 12.5393 15.5004 12.761 15.8625 12.9005C15.7843 13.1714 15.8049 13.4628 15.9159 13.7214C16.0476 13.9964 16.282 14.2099 16.57 14.3207C16.6235 14.7927 16.9444 15.1867 17.3927 15.3427C17.1459 15.5931 16.9033 15.8271 16.8045 15.9215L14.505 15.8846C14.4268 15.8476 14.3651 15.7901 14.324 15.7162V15.6875L14.6983 15.7491H14.7229C14.797 15.7491 14.8587 15.6999 14.8711 15.626C14.8834 15.5439 14.8299 15.47 14.7476 15.4535L14.2869 15.3797L14.797 13.6147L14.3116 12.5968L13.5341 13.4177L13.4847 15.2525L12.9623 15.1704C12.88 15.1539 12.806 15.2073 12.7895 15.2893V15.2935C12.7772 15.3756 12.8307 15.4494 12.9129 15.4659L13.131 15.4987C13.0528 15.5439 12.9993 15.5767 12.9952 15.5849L12.95 15.6177V15.6711C12.8471 16.139 13.0363 16.6234 13.423 16.9025V16.9682C13.3984 17.1282 13.5094 17.2801 13.6699 17.3088H13.7192C13.855 17.3088 13.9743 17.2145 14.0031 17.079C14.1018 17.0831 14.1964 17.0831 14.2951 17.079H14.3568L17.3722 17.6249L17.4216 17.592C17.6602 17.4238 18.5775 16.7711 18.8778 16.5371C18.9642 16.6111 19.0629 16.6767 19.1658 16.726C19.0259 17.157 19.1328 17.629 19.4455 17.9574H11.72V13.5203C11.7035 13.0893 11.6089 12.6624 11.4443 12.2602ZM18.6186 16.3196C18.306 16.5495 17.5368 17.1077 17.257 17.3047L14.5214 16.8286V16.7547C14.5667 16.57 14.5913 16.3812 14.5954 16.1924L16.8991 16.2293L16.9444 16.1842C16.9814 16.1472 17.7095 15.4453 18.0798 15.039C18.1785 15.1621 18.2936 15.2647 18.4253 15.3468C18.3595 15.6834 18.4294 16.0323 18.6186 16.3196ZM14.0483 15.8271V15.8394C14.11 15.9543 14.2005 16.0528 14.3116 16.1185C14.3075 16.2868 14.291 16.451 14.2622 16.6151C14.2622 16.6521 14.2622 16.6891 14.2334 16.726V16.7834C14.0442 16.7834 13.8591 16.7547 13.6781 16.6972C13.349 16.5208 13.1639 16.1596 13.2174 15.7901C13.3654 15.6875 13.5341 15.6219 13.711 15.5972C13.8632 15.5931 13.999 15.6834 14.0483 15.8271ZM13.7645 15.2812L13.8097 13.5449L14.2211 13.1345L14.472 13.6558L13.9825 15.3468L13.7645 15.2812ZM18.5981 24.4262H18.2032L18.5117 23.4206C18.561 23.281 18.306 23.1004 18.1991 22.9403C18.45 23.0922 18.7092 23.2276 18.9766 23.3508C18.9766 23.3836 18.5981 24.4262 18.5981 24.4262ZM19.6553 23.3015L19.6224 23.2728L19.4085 24.3811C19.2727 24.3811 19.1287 24.4098 18.9971 24.418L19.2234 23.3508C19.2892 23.0347 18.4376 22.9403 18.0181 22.3123C17.7425 22.5422 17.3886 22.6489 17.0349 22.6119C16.7222 22.6078 16.4137 22.5751 16.1093 22.5135C16.0558 22.5093 16.0024 22.5093 15.9488 22.5135C15.8213 22.5052 15.6979 22.5709 15.6321 22.6818L15.5704 22.7844L14.398 22.5011L14.1183 22.9855C14.073 23.0512 14.0812 23.1414 14.1388 23.1989L14.217 23.2851C14.1388 23.437 14.0401 23.5766 13.9208 23.6956L13.748 23.4821C13.6164 23.2687 13.6287 22.9937 13.7768 22.7926L14.2376 22.0168L15.2208 22.1646L15.0685 21.8156C14.8628 21.356 15.1755 20.769 15.2084 20.4324C15.2084 20.5351 15.1014 20.5556 14.9945 20.5556H14.7106C14.6901 20.5515 14.6653 20.5515 14.6448 20.5556L14.3774 20.7157L14.1676 20.5227C14.1347 20.4611 14.147 20.3873 14.1964 20.3421L14.6818 19.7962L14.1059 19.1272L14.9286 19.5376L15.1755 19.2421C15.2413 19.3078 15.2125 19.4801 15.2125 19.4801C15.809 19.628 16.2245 20.1697 16.208 20.7854V20.9045C16.2903 21.0358 16.4219 21.1261 16.57 21.1631L17.6849 21.2739C17.907 21.2041 18.1333 21.1589 18.3636 21.1302C18.561 21.1302 18.7585 21.1918 18.9231 21.2985C19.0012 21.2452 19.0959 21.2123 19.1904 21.2082H19.2275C19.7252 21.2082 19.935 21.6597 20.2025 22.0291C20.404 22.3123 20.6755 22.7392 20.6755 22.7392C20.5974 22.8541 20.4699 22.9239 20.33 22.9239C20.2806 22.928 20.2353 22.928 20.186 22.9239C19.6512 22.8254 19.573 21.7254 19.2686 21.6392H19.2193C19.1617 21.6392 19.1082 21.672 19.0794 21.7254C19.2193 22.0989 19.137 22.2508 19.2892 22.5463C19.4002 22.7228 19.5401 22.8829 19.7006 23.0183C19.7006 23.0183 19.68 23.1825 19.6553 23.3015ZM13.6617 22.2262H13.6534L13.7028 22.3534C13.6699 22.4642 13.2914 22.6243 13.2914 22.6243L13.2091 22.4437C13.1022 22.1851 13.1803 21.8896 13.4066 21.7213L14.0277 21.3436L14.6901 21.4832C14.6859 21.6146 14.727 21.7418 14.8052 21.8485L14.11 21.7172L13.6986 22.0045C13.6328 22.062 13.6205 22.1523 13.6617 22.2262ZM21.6176 21.9593C21.6628 23.1004 20.8688 24.1019 19.7458 24.3236L19.935 23.3303C19.935 23.2728 19.9556 23.203 19.9638 23.1455C20.0214 23.1702 20.0791 23.1866 20.1366 23.1989C20.2025 23.203 20.2683 23.203 20.3341 23.1989C20.5603 23.1989 20.7742 23.0963 20.91 22.9157L21.0581 22.7433L20.9347 22.5751C20.9347 22.5751 20.6591 22.1399 20.4534 21.8526L20.3382 21.6802C20.1078 21.3354 19.8158 20.9004 19.2357 20.9004H19.1822C19.1 20.9045 19.0136 20.9209 18.9354 20.9496C18.7585 20.8634 18.5652 20.8183 18.3677 20.8183C18.1702 20.8224 17.9728 20.8593 17.7877 20.9291L17.689 20.9578L16.6029 20.8511C16.5577 20.8306 16.5207 20.7978 16.4919 20.7567L16.7263 20.6623C16.6605 19.8783 15.9036 19.3981 15.4922 19.238C15.4717 19.1518 15.4305 19.0779 15.3688 19.0164L15.1343 18.7947L14.9286 19.041L14.8258 19.1641L13.3037 18.5402L14.2951 19.7716L13.9043 20.3626C13.822 20.4447 13.8179 20.5802 13.9043 20.6664L14.3157 20.9455L14.727 20.7895H14.7682C14.7682 20.8511 14.7229 21.1015 14.7024 21.1713L13.9866 21.0481L13.2215 21.4586C12.8677 21.713 12.7443 22.181 12.9294 22.5751L13.0158 22.7598L13.1351 23.0224L13.4025 22.9116C13.3037 23.1784 13.3449 23.474 13.5176 23.6997L13.6781 23.9049L13.892 24.1758L14.1306 23.9213C14.2869 23.7654 14.4103 23.5848 14.4967 23.3836L14.5461 23.2194L14.4309 23.0922V23.0676L14.5625 22.8541L15.5128 23.0758L15.7267 23.125L15.8419 22.9362L15.9036 22.8336C15.9036 22.8131 15.9036 22.809 15.9612 22.809H16.0641C16.3891 22.8746 16.7181 22.9075 17.0472 22.9116C17.2693 22.9239 17.4915 22.8993 17.7054 22.8336L18.2319 23.4329L17.9193 24.3933V24.4508C17.4503 24.4426 17.0019 24.6355 16.6852 24.9762C16.1792 24.4754 15.8213 24.4221 14.4679 24.4221C12.843 24.4221 11.7446 23.474 11.7446 21.9593V18.2652H21.6176V21.9593ZM21.885 12.2602C21.7162 12.6583 21.6258 13.0852 21.6093 13.5203V16.2868C21.2514 16.2088 20.9841 15.9051 20.9593 15.5398V15.4125H20.8359C20.622 15.3961 20.4245 15.2976 20.2765 15.1457C20.0955 14.9364 19.9967 14.6737 19.9926 14.3987C19.8158 14.686 19.8322 15.0554 20.0379 15.3263C20.1983 15.5274 20.4328 15.6629 20.6878 15.6957C20.7619 16.1719 21.1444 16.5413 21.6217 16.6029V17.9574H19.8939C19.4414 17.7275 19.2521 17.1898 19.4537 16.726L19.5195 16.5782L19.3674 16.5208C18.8737 16.3483 18.6022 15.8188 18.7585 15.3181L18.7914 15.195L18.6762 15.1416C18.2443 14.8912 18.0057 14.4028 18.0757 13.9102C17.8494 14.1401 17.7918 14.489 17.9358 14.7763C17.8535 14.8707 17.7466 14.9815 17.6273 15.1046C17.1953 15.0144 16.8827 14.6409 16.8662 14.2016V14.099L16.7716 14.0621C16.5207 13.9882 16.315 13.8158 16.1957 13.586C16.1175 13.3972 16.101 13.1838 16.1545 12.9867C16.2368 13.0031 16.3191 13.0154 16.4014 13.0237C16.4836 13.0278 16.57 13.0278 16.6523 13.0237C17.3187 13.0237 17.9522 12.7363 18.3965 12.2438L21.885 12.2602ZM19.2193 9.46089L19.8939 9.87135L20.0626 9.9698C19.7129 10.0642 19.3961 10.253 19.1452 10.5157L19.1164 10.5403C19.0588 10.6019 19.0053 10.6635 18.9519 10.7292L18.919 10.7703C18.8655 10.8359 18.8161 10.9057 18.7709 10.9796L18.7462 11.0165C18.6886 11.0986 18.6351 11.1889 18.5816 11.2792C18.2073 12.0221 17.4792 12.5188 16.6523 12.6009C15.8254 12.5188 15.0973 12.0221 14.7229 11.2792C14.6695 11.1889 14.616 11.1027 14.5625 11.0165L14.5296 10.9713L14.398 10.7579L14.361 10.7128C14.3075 10.6471 14.254 10.5855 14.2005 10.5281L14.1717 10.4993C13.9208 10.2366 13.6041 10.0478 13.2544 9.95344L13.4271 9.85491L14.1059 9.44446L14.8011 9.03401L16.6564 10.0396L18.5117 9.0668L19.2193 9.46089ZM18.306 8.63991L16.8292 9.41569V6.25928L18.8326 5.58203L18.306 8.63991ZM16.6605 5.92682L14.4638 5.04842C14.6489 4.60513 15.5128 4.22751 16.6605 4.22751C17.8083 4.22751 18.6721 4.60513 18.8573 5.04842L16.6605 5.92682Z" fill="#222220"/>
</svg>
