<svg width="16" height="16" viewBox="0 0 16 16" fill="none" xmlns="http://www.w3.org/2000/svg">
<path d="M16 8C16 12.4183 12.4183 16 8 16C3.58172 16 0 12.4183 0 8C0 3.58172 3.58172 0 8 0C12.4183 0 16 3.58172 16 8Z" fill="#6EC0CC"/>
<path d="M7.76289 11.61C7.58622 11.61 7.41289 11.5967 7.24289 11.57C7.07289 11.5467 6.90789 11.5133 6.74789 11.47C6.58789 11.4267 6.43456 11.375 6.28789 11.315C6.14122 11.255 6.00289 11.19 5.87289 11.12L5.97289 10.32C6.10956 10.41 6.24956 10.4883 6.39289 10.555C6.53622 10.6217 6.68122 10.6767 6.82789 10.72C6.97789 10.7633 7.12789 10.7967 7.27789 10.82C7.42789 10.84 7.57289 10.85 7.71289 10.85C8.16622 10.85 8.53456 10.7383 8.81789 10.515C9.10122 10.2883 9.30789 9.955 9.43789 9.515C9.57122 9.075 9.63789 8.53167 9.63789 7.885C9.63789 7.30167 9.56956 6.81667 9.43289 6.43C9.29956 6.04 9.10289 5.74833 8.84289 5.555C8.58289 5.36167 8.26456 5.265 7.88789 5.265C7.52122 5.265 7.22289 5.34167 6.99289 5.495C6.76289 5.645 6.59289 5.84333 6.48289 6.09C6.37622 6.33333 6.32289 6.59167 6.32289 6.865C6.32289 7.13833 6.37622 7.38667 6.48289 7.61C6.58956 7.83333 6.75456 8.01167 6.97789 8.145C7.20122 8.27833 7.48956 8.345 7.84289 8.345C7.98622 8.345 8.13122 8.33167 8.27789 8.305C8.42789 8.27833 8.57956 8.23333 8.73289 8.17C8.88956 8.10333 9.04622 8.015 9.20289 7.905C9.35956 7.79167 9.51622 7.64833 9.67289 7.475C9.72956 7.58167 9.76622 7.67667 9.78289 7.76C9.80289 7.84 9.80289 7.92167 9.78289 8.005C9.76622 8.085 9.73122 8.17667 9.67789 8.28L9.53789 8.27C9.40456 8.39667 9.26456 8.51 9.11789 8.61C8.97456 8.71 8.82289 8.79333 8.66289 8.86C8.50622 8.92667 8.34122 8.97667 8.16789 9.01C7.99456 9.04333 7.81456 9.06 7.62789 9.06C7.18789 9.06 6.80622 8.97 6.48289 8.79C6.15956 8.60667 5.90956 8.35333 5.73289 8.03C5.55956 7.70667 5.47289 7.33333 5.47289 6.91C5.47289 6.49667 5.56122 6.10833 5.73789 5.745C5.91456 5.37833 6.17789 5.08167 6.52789 4.855C6.88122 4.62833 7.32456 4.515 7.85789 4.515C8.42122 4.515 8.89622 4.645 9.28289 4.905C9.67289 5.16167 9.96956 5.54333 10.1729 6.05C10.3762 6.55333 10.4779 7.17167 10.4779 7.905C10.4779 8.51167 10.4162 9.04667 10.2929 9.51C10.1729 9.97 9.99622 10.355 9.76289 10.665C9.53289 10.975 9.24956 11.21 8.91289 11.37C8.57622 11.53 8.19289 11.61 7.76289 11.61Z" fill="#E1F7FA"/>
</svg>
