<svg width="16" height="16" viewBox="0 0 16 16" fill="none" xmlns="http://www.w3.org/2000/svg">
<path d="M16 8C16 12.4183 12.4183 16 8 16C3.58172 16 0 12.4183 0 8C0 3.58172 3.58172 0 8 0C12.4183 0 16 3.58172 16 8Z" fill="#6EC0CC"/>
<path d="M5.71156 11.5V10.89C5.9149 10.7133 6.11823 10.535 6.32156 10.355C6.52823 10.175 6.73323 9.99833 6.93656 9.825C7.4199 9.405 7.83156 9.01333 8.17156 8.65C8.5149 8.28333 8.77823 7.93 8.96156 7.59C9.1449 7.25 9.23656 6.91 9.23656 6.57C9.23656 6.13667 9.11823 5.81167 8.88156 5.595C8.6449 5.375 8.28823 5.265 7.81156 5.265C7.65156 5.265 7.48656 5.28 7.31656 5.31C7.1499 5.34 6.9799 5.385 6.80656 5.445C6.63323 5.50167 6.4599 5.57333 6.28656 5.66C6.11323 5.74667 5.94156 5.84667 5.77156 5.96L5.68156 5.115C5.83156 5.03167 5.9949 4.95333 6.17156 4.88C6.34823 4.80667 6.5349 4.74333 6.73156 4.69C6.92823 4.63667 7.12823 4.595 7.33156 4.565C7.53823 4.53167 7.7449 4.515 7.95156 4.515C8.41156 4.515 8.80156 4.595 9.12156 4.755C9.4449 4.91167 9.6899 5.13667 9.85656 5.43C10.0232 5.72333 10.1066 6.07167 10.1066 6.475C10.1066 6.85167 10.0199 7.22833 9.84656 7.605C9.67323 7.97833 9.4149 8.36167 9.07156 8.755C8.73156 9.145 8.31156 9.55333 7.81156 9.98L6.69656 10.925L6.57156 10.75H7.96156C8.34156 10.75 8.72156 10.75 9.10156 10.75C9.48156 10.75 9.86156 10.75 10.2416 10.75V11.5H5.71156Z" fill="#E1F7FA"/>
</svg>
