<svg width="16" height="16" viewBox="0 0 16 16" fill="none" xmlns="http://www.w3.org/2000/svg">
<path d="M16 8C16 12.4183 12.4183 16 8 16C3.58172 16 0 12.4183 0 8C0 3.58172 3.58172 0 8 0C12.4183 0 16 3.58172 16 8Z" fill="#6EC0CC"/>
<path d="M8.00289 11.61C7.42956 11.61 6.95622 11.52 6.58289 11.34C6.20956 11.16 5.93122 10.9167 5.74789 10.61C5.56456 10.3033 5.47289 9.96 5.47289 9.58C5.47289 9.20333 5.54789 8.89333 5.69789 8.65C5.85122 8.40333 6.03789 8.21333 6.25789 8.08C6.47789 7.94333 6.68789 7.85333 6.88789 7.81V7.725C6.68456 7.66833 6.49289 7.57333 6.31289 7.44C6.13289 7.30667 5.98622 7.13833 5.87289 6.935C5.75956 6.72833 5.70289 6.49 5.70289 6.22C5.70289 5.87667 5.79622 5.57667 5.98289 5.32C6.16956 5.06333 6.43456 4.865 6.77789 4.725C7.12456 4.58167 7.53289 4.51 8.00289 4.51C8.46956 4.51 8.87289 4.58167 9.21289 4.725C9.55622 4.865 9.82122 5.06333 10.0079 5.32C10.1979 5.57667 10.2929 5.87667 10.2929 6.22C10.2929 6.49 10.2362 6.72833 10.1229 6.935C10.0096 7.13833 9.86122 7.30667 9.67789 7.44C9.49789 7.57333 9.30622 7.66833 9.10289 7.725V7.81C9.30622 7.85333 9.51789 7.94333 9.73789 8.08C9.95789 8.21333 10.1429 8.40333 10.2929 8.65C10.4462 8.89667 10.5229 9.20667 10.5229 9.58C10.5229 9.96 10.4312 10.3033 10.2479 10.61C10.0646 10.9167 9.78622 11.16 9.41289 11.34C9.04289 11.52 8.57289 11.61 8.00289 11.61ZM8.00289 10.85C8.39289 10.85 8.71122 10.7917 8.95789 10.675C9.20456 10.5583 9.38456 10.3983 9.49789 10.195C9.61456 9.99167 9.67289 9.76167 9.67289 9.505C9.67289 9.205 9.59956 8.95667 9.45289 8.76C9.30622 8.56 9.10456 8.41167 8.84789 8.315C8.59456 8.215 8.30956 8.165 7.99289 8.165C7.67956 8.165 7.39622 8.215 7.14289 8.315C6.88956 8.41167 6.68956 8.56 6.54289 8.76C6.39622 8.95667 6.32289 9.205 6.32289 9.505C6.32289 9.76167 6.37956 9.99167 6.49289 10.195C6.60956 10.3983 6.79122 10.5583 7.03789 10.675C7.28456 10.7917 7.60622 10.85 8.00289 10.85ZM8.00289 7.485C8.46622 7.485 8.82456 7.37667 9.07789 7.16C9.33456 6.94 9.46289 6.66167 9.46289 6.325C9.46289 5.975 9.32956 5.70833 9.06289 5.525C8.79622 5.34167 8.44289 5.25 8.00289 5.25C7.55622 5.25 7.19956 5.34167 6.93289 5.525C6.66956 5.70833 6.53789 5.975 6.53789 6.325C6.53789 6.55167 6.59456 6.75167 6.70789 6.925C6.82456 7.09833 6.99122 7.235 7.20789 7.335C7.42456 7.435 7.68956 7.485 8.00289 7.485Z" fill="#E1F7FA"/>
</svg>
