<svg width="16" height="16" viewBox="0 0 16 16" fill="none" xmlns="http://www.w3.org/2000/svg">
<path d="M16 8C16 12.4183 12.4183 16 8 16C3.58172 16 0 12.4183 0 8C0 3.58172 3.58172 0 8 0C12.4183 0 16 3.58172 16 8Z" fill="#6EC0CC"/>
<path d="M8.13789 11.61C7.57456 11.61 7.09789 11.48 6.70789 11.22C6.31789 10.96 6.02122 10.5783 5.81789 10.075C5.61789 9.57167 5.51789 8.95167 5.51789 8.215C5.51789 7.61167 5.57789 7.08 5.69789 6.62C5.81789 6.15667 5.99456 5.77 6.22789 5.46C6.46122 5.14667 6.74456 4.91167 7.07789 4.755C7.41456 4.595 7.79956 4.515 8.23289 4.515C8.40956 4.515 8.58289 4.52667 8.75289 4.55C8.92289 4.57333 9.08622 4.60667 9.24289 4.65C9.40289 4.69333 9.55622 4.745 9.70289 4.805C9.84956 4.86167 9.98789 4.92667 10.1179 5L10.0179 5.8C9.88456 5.71 9.74456 5.63167 9.59789 5.565C9.45456 5.49833 9.30789 5.44333 9.15789 5.4C9.01122 5.35667 8.86289 5.325 8.71289 5.305C8.56622 5.28167 8.42122 5.27 8.27789 5.27C7.82789 5.27 7.46122 5.38333 7.17789 5.61C6.89456 5.83333 6.68622 6.165 6.55289 6.605C6.41956 7.045 6.35289 7.58833 6.35289 8.235C6.35289 8.81833 6.41956 9.305 6.55289 9.695C6.68956 10.0817 6.88789 10.3733 7.14789 10.57C7.40789 10.7633 7.72789 10.86 8.10789 10.86C8.47122 10.86 8.76789 10.7833 8.99789 10.63C9.22789 10.4767 9.39789 10.2783 9.50789 10.035C9.61789 9.78833 9.67289 9.52833 9.67289 9.255C9.67289 8.98167 9.61956 8.73333 9.51289 8.51C9.40622 8.28667 9.23956 8.10833 9.01289 7.975C8.78956 7.84167 8.50122 7.775 8.14789 7.775C8.00456 7.775 7.85789 7.78833 7.70789 7.815C7.56122 7.84167 7.41122 7.88833 7.25789 7.955C7.10456 8.01833 6.94956 8.10667 6.79289 8.22C6.63622 8.33 6.47789 8.47167 6.31789 8.645C6.26122 8.53833 6.22456 8.445 6.20789 8.365C6.19122 8.28167 6.19122 8.2 6.20789 8.12C6.22456 8.04 6.25956 7.94667 6.31289 7.84L6.45789 7.85C6.58789 7.72 6.72456 7.60667 6.86789 7.51C7.01456 7.41 7.16622 7.32667 7.32289 7.26C7.48289 7.19333 7.64956 7.14333 7.82289 7.11C7.99622 7.07667 8.17622 7.06 8.36289 7.06C8.80622 7.06 9.18789 7.15167 9.50789 7.335C9.83122 7.515 10.0796 7.76667 10.2529 8.09C10.4296 8.41333 10.5179 8.78667 10.5179 9.21C10.5179 9.62333 10.4296 10.0133 10.2529 10.38C10.0796 10.7433 9.81622 11.04 9.46289 11.27C9.10956 11.4967 8.66789 11.61 8.13789 11.61Z" fill="#E1F7FA"/>
</svg>
