<svg width="16" height="16" viewBox="0 0 16 16" fill="none" xmlns="http://www.w3.org/2000/svg">
<path d="M16 8C16 12.4183 12.4183 16 8 16C3.58172 16 0 12.4183 0 8C0 3.58172 3.58172 0 8 0C12.4183 0 16 3.58172 16 8Z" fill="#6EC0CC"/>
<path d="M7.86891 11.61C7.65557 11.61 7.44391 11.595 7.23391 11.565C7.02391 11.5383 6.81891 11.5 6.61891 11.45C6.42224 11.3967 6.23557 11.3367 6.05891 11.27C5.88224 11.2033 5.72057 11.1317 5.57391 11.055L5.65891 10.245C5.83891 10.345 6.02057 10.4333 6.20391 10.51C6.39057 10.5867 6.57391 10.6517 6.75391 10.705C6.93724 10.755 7.11557 10.7933 7.28891 10.82C7.46557 10.8467 7.63557 10.86 7.79891 10.86C8.37224 10.86 8.79724 10.7233 9.07391 10.45C9.35391 10.1733 9.49391 9.78833 9.49391 9.295C9.49391 8.93167 9.42224 8.64167 9.27891 8.425C9.13557 8.205 8.94057 8.04667 8.69391 7.95C8.45057 7.85 8.17891 7.8 7.87891 7.8C7.61891 7.8 7.37057 7.83167 7.13391 7.895C6.89724 7.95833 6.64557 8.08167 6.37891 8.265L5.99891 8.23V7.16C5.99891 6.71 5.99891 6.275 5.99891 5.855C5.99891 5.43167 5.99891 5.02667 5.99891 4.64H9.95391V5.39C9.55391 5.39 9.15057 5.39 8.74391 5.39C8.34057 5.39 7.93891 5.39 7.53891 5.39H6.52391L6.82391 5.1C6.82391 5.41 6.82224 5.72 6.81891 6.03C6.81891 6.33667 6.81724 6.64333 6.81391 6.95V7.41H6.89891C7.08891 7.30667 7.29391 7.22667 7.51391 7.17C7.73724 7.11 7.97057 7.08 8.21391 7.08C8.60724 7.08 8.96557 7.16 9.28891 7.32C9.61557 7.47667 9.87557 7.71667 10.0689 8.04C10.2656 8.36333 10.3639 8.77167 10.3639 9.265C10.3639 9.73167 10.2689 10.1417 10.0789 10.495C9.89224 10.845 9.61224 11.1183 9.23891 11.315C8.86891 11.5117 8.41224 11.61 7.86891 11.61Z" fill="#E1F7FA"/>
</svg>
