<svg width="16" height="16" viewBox="0 0 16 16" fill="none" xmlns="http://www.w3.org/2000/svg">
<path d="M16 8C16 12.4183 12.4183 16 8 16C3.58172 16 0 12.4183 0 8C0 3.58172 3.58172 0 8 0C12.4183 0 16 3.58172 16 8Z" fill="#6EC0CC"/>
<path d="M8.11195 11.5C8.11195 11.18 8.11195 10.8783 8.11195 10.595C8.11195 10.3117 8.11195 9.97833 8.11195 9.595L8.13695 9.44V7.19C8.13695 6.83333 8.13695 6.47833 8.13695 6.125C8.13695 5.76833 8.13695 5.41333 8.13695 5.06L8.78195 4.86C8.59195 5.13333 8.40529 5.39833 8.22195 5.655C8.04195 5.91167 7.86029 6.17 7.67695 6.43L6.48195 8.125C6.32195 8.35167 6.16362 8.57667 6.00695 8.8C5.85029 9.02333 5.69029 9.24833 5.52695 9.475L5.49695 9.17H8.33195H8.47695C8.65029 9.17 8.84362 9.17 9.05695 9.17C9.27029 9.17 9.48029 9.17 9.68695 9.17C9.89695 9.17 10.082 9.17 10.242 9.17V9.92C10.082 9.92 9.89695 9.92 9.68695 9.92C9.48029 9.92 9.27029 9.92 9.05695 9.92C8.84362 9.92 8.65029 9.92 8.47695 9.92H4.80195V9.33C4.94529 9.13 5.10195 8.91 5.27195 8.67C5.44195 8.42667 5.61362 8.18167 5.78695 7.935C5.96362 7.68833 6.12695 7.46 6.27695 7.25L7.15695 6C7.31695 5.77333 7.47695 5.54667 7.63695 5.32C7.79695 5.09333 7.95695 4.86667 8.11695 4.64H8.95695C8.95695 5.05333 8.95695 5.46 8.95695 5.86C8.95695 6.25667 8.95695 6.65333 8.95695 7.05V9.595C8.95695 9.97833 8.95695 10.3117 8.95695 10.595C8.95695 10.8783 8.95695 11.18 8.95695 11.5H8.11195Z" fill="#E1F7FA"/>
</svg>
