<svg width="16" height="16" viewBox="0 0 16 16" fill="none" xmlns="http://www.w3.org/2000/svg">
<path d="M16 8C16 12.4183 12.4183 16 8 16C3.58172 16 0 12.4183 0 8C0 3.58172 3.58172 0 8 0C12.4183 0 16 3.58172 16 8Z" fill="#6EC0CC"/>
<path d="M6.4534 11.5C6.66007 11.0467 6.86673 10.595 7.0734 10.145C7.2834 9.69167 7.4884 9.245 7.6884 8.805L8.6434 6.725C8.7634 6.47167 8.88173 6.21833 8.9984 5.965C9.11507 5.71167 9.23007 5.45667 9.3434 5.2L9.5134 5.39H8.1084C7.69507 5.39 7.28007 5.39 6.8634 5.39C6.44673 5.39 6.0284 5.39 5.6084 5.39V4.645H10.2434V5.23C10.0567 5.64 9.8734 6.04333 9.6934 6.44C9.5134 6.83667 9.3284 7.245 9.1384 7.665L8.5034 9.06C8.3234 9.46 8.14007 9.865 7.9534 10.275C7.76673 10.6817 7.58173 11.09 7.3984 11.5H6.4534Z" fill="#E1F7FA"/>
</svg>
