<svg width="16" height="16" viewBox="0 0 16 16" fill="none" xmlns="http://www.w3.org/2000/svg">
<path d="M16 8C16 12.4183 12.4183 16 8 16C3.58172 16 0 12.4183 0 8C0 3.58172 3.58172 0 8 0C12.4183 0 16 3.58172 16 8Z" fill="#6EC0CC"/>
<path d="M6.38633 6.62L6.18133 5.925C6.59133 5.705 7.00133 5.48667 7.41133 5.27C7.82466 5.05333 8.23799 4.835 8.65133 4.615L8.62633 5.41C8.25299 5.61333 7.87966 5.815 7.50633 6.015C7.13633 6.215 6.76299 6.41667 6.38633 6.62ZM8.22133 11.5C8.22133 11.13 8.22133 10.775 8.22133 10.435C8.22133 10.095 8.22133 9.72 8.22133 9.31V7.16C8.22133 6.80333 8.22133 6.44667 8.22133 6.09C8.22133 5.73333 8.22133 5.375 8.22133 5.015L8.65133 4.615L9.06633 4.645C9.06633 5.01833 9.06633 5.40333 9.06633 5.8C9.06633 6.19667 9.06633 6.605 9.06633 7.025V9.31C9.06633 9.72 9.06633 10.095 9.06633 10.435C9.06633 10.775 9.06633 11.13 9.06633 11.5H8.22133Z" fill="#E1F7FA"/>
</svg>
