<svg width="16" height="16" viewBox="0 0 16 16" fill="none" xmlns="http://www.w3.org/2000/svg">
<path d="M16 8C16 12.4183 12.4183 16 8 16C3.58172 16 0 12.4183 0 8C0 3.58172 3.58172 0 8 0C12.4183 0 16 3.58172 16 8Z" fill="#6EC0CC"/>
<path d="M7.91344 11.61C7.7001 11.61 7.48677 11.595 7.27344 11.565C7.0601 11.5383 6.85177 11.5 6.64844 11.45C6.44844 11.4 6.25844 11.3417 6.07844 11.275C5.90177 11.205 5.7401 11.1317 5.59344 11.055L5.67844 10.245C5.85844 10.345 6.0401 10.4333 6.22344 10.51C6.4101 10.5867 6.5951 10.6517 6.77844 10.705C6.96177 10.755 7.14177 10.7933 7.31844 10.82C7.49844 10.8467 7.67177 10.86 7.83844 10.86C8.4151 10.86 8.83177 10.7433 9.08844 10.51C9.3451 10.2733 9.47344 9.975 9.47344 9.615C9.47344 9.18167 9.29844 8.85167 8.94844 8.625C8.59844 8.39833 8.1101 8.285 7.48344 8.285C7.37344 8.285 7.2651 8.285 7.15844 8.285C7.0551 8.285 6.9501 8.285 6.84344 8.285V7.575C6.9401 7.575 7.03844 7.575 7.13844 7.575C7.24177 7.575 7.34344 7.575 7.44344 7.575C7.86677 7.575 8.2101 7.52 8.47344 7.41C8.73677 7.3 8.9301 7.15167 9.05344 6.965C9.1801 6.77833 9.24344 6.56667 9.24344 6.33C9.24344 5.96667 9.11177 5.69833 8.84844 5.525C8.58844 5.35167 8.25677 5.265 7.85344 5.265C7.69677 5.265 7.53344 5.28167 7.36344 5.315C7.19677 5.345 7.02677 5.39 6.85344 5.45C6.68344 5.50667 6.51177 5.57833 6.33844 5.665C6.16844 5.75167 6.00177 5.85167 5.83844 5.965L5.73844 5.14C5.8851 5.05333 6.0451 4.97167 6.21844 4.895C6.39177 4.81833 6.5751 4.75167 6.76844 4.695C6.96177 4.63833 7.15844 4.59333 7.35844 4.56C7.56177 4.52667 7.76344 4.51 7.96344 4.51C8.3901 4.51 8.7651 4.57833 9.08844 4.715C9.41177 4.85167 9.66344 5.04667 9.84344 5.3C10.0234 5.55 10.1134 5.84667 10.1134 6.19C10.1134 6.47667 10.0534 6.73167 9.93344 6.955C9.81344 7.175 9.65344 7.35833 9.45344 7.505C9.25344 7.64833 9.03344 7.74833 8.79344 7.805V7.89C8.97677 7.92333 9.15844 7.98333 9.33844 8.07C9.52177 8.15333 9.68844 8.26833 9.83844 8.415C9.99177 8.55833 10.1134 8.73333 10.2034 8.94C10.2968 9.14667 10.3434 9.39 10.3434 9.67C10.3434 10.0333 10.2551 10.3617 10.0784 10.655C9.90177 10.9483 9.63344 11.1817 9.27344 11.355C8.91344 11.525 8.4601 11.61 7.91344 11.61Z" fill="#E1F7FA"/>
</svg>
