<svg width="500" height="78" viewBox="0 0 500 78" fill="none" xmlns="http://www.w3.org/2000/svg">
<rect width="500" height="78" fill="white"/>
<path d="M41 47.8368H53.8099V50.4941H41V47.8368ZM133.638 39.3067L137.677 34.8506H134.667L131.357 38.5542V34.8506H128.958V44.2155H131.369V40.2708L134.908 44.2155H138L133.638 39.3067ZM55.2208 39.924C55.1561 41.6876 54.9327 42.0227 53.9568 42.0227V44.2214H54.3213C56.7728 44.2214 57.3548 42.9575 57.443 40.1415L57.5488 37.0258H59.8121V44.2155H62.2107V34.8506H55.3854L55.2208 39.924ZM44.8095 41.5348H49.8652L50.7059 44.2155H53.5101L49.73 32.9518C49.3655 31.8642 48.9422 31 47.4961 31C46.0499 31 45.609 31.8642 45.221 32.9518L41.2587 44.2155H43.8924L44.8095 41.5348ZM47.3726 33.9394H47.4373L49.1304 39.2773H45.5678L47.3726 33.9394ZM103.403 36.1792H100.728V33.5338H106.936V31.1822H98.2124V44.2155H103.403C106.278 44.2155 107.93 42.7811 107.93 40.1592C107.93 37.6724 106.255 36.1792 103.403 36.1792ZM103.28 41.8581H100.728V38.4719H103.28C104.608 38.4719 105.355 39.0598 105.355 40.165C105.355 41.2702 104.608 41.8581 103.28 41.8581ZM79.559 34.6331V31.1646H77.1663V34.6331C75.9099 34.6745 74.7214 35.2129 73.8616 36.1299C73.0019 37.047 72.5412 38.2678 72.5808 39.5242C72.538 40.7832 72.9971 42.0077 73.857 42.9282C74.7169 43.8489 75.9073 44.3901 77.1663 44.433V47.9603H79.5648V44.433C80.1885 44.4125 80.802 44.2692 81.3701 44.0113C81.9383 43.7534 82.45 43.3859 82.876 42.9299C83.3019 42.4739 83.6337 41.9384 83.8524 41.354C84.0711 40.7696 84.1723 40.1478 84.1503 39.5242C84.1755 38.9003 84.0761 38.2775 83.858 37.6924C83.6399 37.1072 83.3075 36.5714 82.8801 36.1161C82.4527 35.6608 81.9389 35.2952 81.3687 35.0405C80.7985 34.7859 80.1833 34.6474 79.559 34.6331ZM77.1722 42.1697C76.5374 42.1 75.9554 41.7835 75.5519 41.2886C75.1482 40.7938 74.9553 40.1601 75.0147 39.5242C74.9629 38.89 75.1586 38.2603 75.5609 37.7672C75.963 37.274 76.5405 36.9557 77.1722 36.8788V42.1697ZM79.5707 42.1697V36.8788C80.2024 36.9557 80.7799 37.274 81.182 37.7672C81.5843 38.2603 81.78 38.89 81.7282 39.5242C81.7845 40.1594 81.5904 40.7915 81.1874 41.2857C80.7844 41.7799 80.2043 42.0971 79.5707 42.1697ZM93.139 41.3408V38.1839C93.139 35.8794 91.6751 34.4391 89.2178 34.4391C86.7605 34.4391 85.3261 35.9676 85.2085 37.5607H87.6364C87.7187 37.2198 88.0832 36.6142 89.2119 36.6142C89.423 36.5871 89.637 36.6093 89.8374 36.6793C90.0385 36.7492 90.2201 36.8649 90.3683 37.0172C90.5164 37.1694 90.6275 37.3541 90.6922 37.5566C90.7569 37.7591 90.7733 37.9739 90.7404 38.1839H88.3889C86.2608 38.1839 84.9968 39.3067 84.9968 41.1644C84.9803 41.6077 85.0569 42.0496 85.2219 42.4614C85.3869 42.8732 85.6365 43.2457 85.9546 43.555C86.2727 43.8642 86.6521 44.1032 87.0685 44.2565C87.4847 44.4098 87.9286 44.4739 88.3713 44.4448C88.871 44.4711 89.3695 44.3738 89.8227 44.1615C90.276 43.9493 90.6699 43.6286 90.9697 43.2279C91.1649 43.558 91.4494 43.8259 91.791 44.0007C92.1319 44.1755 92.5158 44.25 92.8979 44.2155H93.7268V42.0521C93.3212 42.0521 93.139 41.8581 93.139 41.3408ZM90.7404 40.7529C90.7504 40.9845 90.711 41.2155 90.6246 41.4307C90.5388 41.646 90.4083 41.8405 90.2419 42.0016C90.0749 42.1627 89.8762 42.2866 89.6581 42.3653C89.44 42.4439 89.2078 42.4754 88.9768 42.4578C88.1126 42.4578 87.4307 42.1462 87.4307 41.2115C87.4307 40.2767 88.189 40.1415 88.8298 40.1415H90.7404V40.7529ZM68.1835 37.6959H66.461V34.8506H64.0625V44.2155H68.2247C70.829 44.2155 71.7519 42.5224 71.7519 40.9234C71.7637 38.8599 70.4704 37.6959 68.1835 37.6959ZM68.0071 42.1697H66.461V39.8182H68.0071C68.8361 39.8182 69.3358 40.1944 69.3358 40.9939C69.3358 41.7935 68.8596 42.1697 68.0071 42.1697ZM117.083 41.3408V38.1839C117.083 35.8794 115.619 34.4391 113.162 34.4391C110.705 34.4391 109.27 35.9676 109.153 37.5607H111.581C111.663 37.2198 112.028 36.6142 113.156 36.6142C113.367 36.5871 113.581 36.6093 113.782 36.6793C113.983 36.7492 114.164 36.8649 114.313 37.0172C114.461 37.1694 114.572 37.3541 114.637 37.5566C114.701 37.7591 114.718 37.9739 114.685 38.1839H112.333C110.205 38.1839 108.941 39.3067 108.941 41.1644C108.925 41.6077 109.001 42.0496 109.166 42.4614C109.331 42.8732 109.581 43.2457 109.899 43.555C110.217 43.8642 110.597 44.1032 111.013 44.2565C111.429 44.4098 111.873 44.4739 112.316 44.4448C112.82 44.476 113.324 44.3811 113.784 44.1687C114.242 43.9563 114.641 43.6329 114.943 43.2279C115.136 43.5522 115.415 43.8165 115.749 43.9909C116.084 44.1654 116.46 44.2432 116.836 44.2155H117.665V42.0521C117.248 42.0521 117.083 41.8581 117.083 41.3408ZM114.696 40.7529C114.705 40.9842 114.665 41.2148 114.579 41.4296C114.492 41.6444 114.362 41.8386 114.196 41.9995C114.029 42.1603 113.831 42.2843 113.613 42.3633C113.396 42.4423 113.164 42.4745 112.933 42.4578C112.069 42.4578 111.387 42.1462 111.387 41.2115C111.387 40.2767 112.145 40.1415 112.786 40.1415H114.696V40.7529ZM124.743 38.3367H121.434V34.8506H119.035V44.2214H121.434V40.5295H124.743V44.2155H127.142V34.8506H124.743V38.3367Z" fill="#EF3124"/>
<path d="M211.881 37.8858L212.321 36.5067L210.889 36.5519C210.219 36.5272 209.573 36.3014 209.03 35.9033H209.223C210.096 35.8992 210.894 35.4025 211.28 34.6227L211.91 33.2805C211.416 33.2846 210.922 33.2558 210.433 33.1943C209.964 33.0835 209.544 32.829 209.228 32.4678C208.8 32.0122 208.207 31.7536 207.582 31.7495C207.339 31.7495 207.097 31.7905 206.862 31.8644C206.895 31.7536 206.924 31.6428 206.944 31.5278C207.043 30.7274 206.817 29.9188 206.319 29.2826L205.233 27.9486L204.567 29.5083C204.46 29.73 204.299 29.923 204.094 30.0625C203.978 29.5042 203.707 28.9953 203.304 28.593C202.629 27.9035 201.704 27.5176 200.737 27.5258C200.568 27.5258 200.4 27.5382 200.235 27.5628L198.935 27.8173C199.046 27.3822 199.223 26.9676 199.462 26.5859L200.177 25.4735L198.376 25.6418L197.8 24.4105L196.689 25.0138L195.661 24L194.632 25.0138L193.521 24.4392L192.945 25.6418L191.144 25.4366L191.859 26.5531C192.098 26.9348 192.275 27.3493 192.386 27.7844L191.152 27.5423H191.111C190.938 27.5176 190.765 27.5053 190.592 27.5053C189.626 27.4971 188.7 27.8829 188.025 28.5725C187.618 28.9789 187.339 29.4961 187.227 30.0625C187.03 29.927 186.87 29.7423 186.763 29.5248L186.092 27.9527L184.998 29.2908C184.508 29.927 184.29 30.7315 184.385 31.5278C184.405 31.6428 184.434 31.7536 184.467 31.8644C184.233 31.7905 183.99 31.7495 183.747 31.7495C183.122 31.7536 182.53 32.0122 182.102 32.4678C181.789 32.8248 181.374 33.0794 180.909 33.1943C180.415 33.2682 179.913 33.2969 179.411 33.2805L180.024 34.6432C180.411 35.423 181.209 35.9198 182.081 35.9238H182.275C181.74 36.3138 181.102 36.5395 180.44 36.5682L179 36.5067L179.44 37.8858C179.769 38.9654 180.703 39.7575 181.826 39.9012C181.711 40.6277 181.25 41.2557 180.592 41.5841L179.49 42.0314L180.082 43.0617C180.571 43.8211 181.415 44.2726 182.316 44.2644C182.55 44.2644 182.785 44.2397 183.015 44.1905C183.073 44.4408 183.147 44.6912 183.229 44.9334C183.435 45.4752 183.447 46.0663 183.27 46.6163L182.735 47.7368L183.932 48.0529C184.2 48.1227 184.479 48.1555 184.755 48.1555C184.953 48.1555 185.146 48.135 185.339 48.0899C185.479 48.057 185.619 48.016 185.751 47.9626C185.903 48.2376 186.096 48.4921 186.314 48.7178C187.079 49.5018 188.165 49.9 189.543 49.9H190.527L188.499 50.7414L190.037 51.5007C190.658 51.8045 191.292 52.0795 191.938 52.3216L191.753 52.8553L192.283 53.0974C193.164 53.4422 194.097 53.6352 195.044 53.668H196.306C197.248 53.6352 198.178 53.4381 199.054 53.0933L199.569 52.8553L199.388 52.3216C200.042 52.0713 200.683 51.788 201.309 51.472L202.818 50.7414L200.794 49.9205H201.782C203.16 49.9205 204.25 49.51 205.011 48.7383C205.233 48.5126 205.422 48.2581 205.575 47.9831C205.706 48.0365 205.846 48.0775 205.986 48.1104C206.179 48.1555 206.373 48.176 206.57 48.176C206.846 48.176 207.125 48.1391 207.393 48.0734L208.594 47.7573L208.072 46.6574C207.874 46.0991 207.882 45.4875 208.092 44.9334C208.179 44.683 208.249 44.4286 208.306 44.174C208.536 44.2233 208.775 44.248 209.01 44.248C209.919 44.2561 210.766 43.7882 211.247 43.0166L211.832 41.9986L210.745 41.5553C210.087 41.227 209.627 40.5989 209.511 39.8725C210.634 39.7247 211.568 38.9366 211.897 37.853L211.881 37.8858Z" fill="white"/>
<path d="M200.605 42.2448H190.732V45.9389C190.732 47.4576 191.831 48.4017 193.456 48.4017C194.813 48.4017 195.171 48.455 195.673 48.9558C195.99 48.6151 196.438 48.4222 196.907 48.4304V48.3729L197.22 47.4124L196.689 46.8337C196.475 46.8993 196.253 46.924 196.031 46.9117C195.698 46.9076 195.368 46.8747 195.044 46.8091H194.941C194.895 46.8091 194.895 46.8091 194.883 46.8337L194.821 46.9363L194.71 47.121L194.496 47.0718L193.546 46.8501L193.415 47.0635V47.0882L193.53 47.2154L193.48 47.3796C193.394 47.5808 193.271 47.7613 193.114 47.9173L192.876 48.1718L192.658 47.9009L192.497 47.6997C192.324 47.474 192.283 47.1785 192.382 46.9117L192.115 47.0225L191.995 46.7598L191.929 46.5751C191.761 46.1851 191.888 45.7336 192.23 45.4874L192.995 45.0769L193.723 45.2206C193.723 45.1508 193.768 44.9005 193.789 44.8389H193.748L193.336 44.9948L192.925 44.7158C192.843 44.6337 192.839 44.4982 192.925 44.412L193.316 43.8209L192.324 42.5896L193.809 43.1724L193.912 43.0493L194.118 42.803L194.352 43.0246C194.414 43.0862 194.455 43.1601 194.476 43.2463C194.887 43.4105 195.648 43.8907 195.71 44.6706L195.475 44.765C195.504 44.806 195.541 44.8389 195.587 44.8594L196.673 44.9661L196.771 44.9373C196.956 44.8676 197.154 44.8306 197.351 44.8265C197.549 44.8265 197.742 44.8717 197.919 44.9579C197.997 44.9292 198.084 44.9127 198.166 44.9086H198.219C198.799 44.9086 199.091 45.3437 199.322 45.6885L199.441 45.8609C199.643 46.1483 199.91 46.5669 199.922 46.5833L200.042 46.768L199.894 46.9404C199.758 47.121 199.544 47.2236 199.318 47.2236C199.252 47.2277 199.186 47.2277 199.12 47.2236C199.063 47.2113 199.005 47.1949 198.947 47.1703C198.947 47.2277 198.947 47.2975 198.915 47.355L198.746 48.3237C199.865 48.0979 200.655 47.0964 200.609 45.9553L200.605 42.2448ZM190.72 41.9451H198.409C198.096 41.6168 197.989 41.1447 198.129 40.7138C198.026 40.6645 197.927 40.5988 197.841 40.525C197.541 40.7466 196.607 41.4115 196.385 41.5798L196.335 41.6127L193.316 41.0791H193.254C193.155 41.0832 193.057 41.0832 192.958 41.0791C192.929 41.2145 192.81 41.3089 192.674 41.3089H192.625C192.464 41.2802 192.353 41.1283 192.378 40.9682V40.9025C191.987 40.6235 191.802 40.1391 191.905 39.6712V39.6178L191.95 39.585C191.95 39.585 192.008 39.544 192.086 39.4988L191.868 39.466C191.786 39.4495 191.732 39.3757 191.744 39.2936C191.757 39.2115 191.831 39.1581 191.913 39.1705H191.917L192.44 39.2525L192.489 37.4178L193.266 36.5969L193.752 37.6148L193.242 39.3798L193.702 39.4536C193.785 39.4701 193.838 39.544 193.826 39.626C193.814 39.6999 193.752 39.7492 193.678 39.7492H193.653L193.279 39.6876V39.7163C193.32 39.7902 193.382 39.8477 193.46 39.8846L195.759 39.9216L196.348 39.3428C195.899 39.1868 195.578 38.7928 195.525 38.3208C195.237 38.21 195.002 37.9965 194.871 37.7215C194.76 37.4629 194.739 37.1715 194.817 36.9006C194.455 36.757 194.126 36.5394 193.859 36.2603H190.444C190.609 36.6625 190.704 37.0894 190.72 37.5204V41.9451Z" fill="#FCE527"/>
<path d="M217.257 38.7765H220.647V44.523H223.115V38.7765H226.505V36.6914H217.257V38.7765ZM229.763 41.2393V36.7243H227.377V44.523H229.483L233.597 39.9587V44.523H235.983V36.6914H233.877L229.763 41.2393ZM243.927 39.5975H240.093V36.7243H237.707V44.523H240.093V41.6005H243.927V44.523H246.312V36.7243H243.927V39.5975ZM254.635 38.99C254.071 38.8176 253.479 38.7478 252.89 38.7765H250.422V36.7243H248.036V44.523L252.874 44.4902C253.38 44.4984 253.882 44.4409 254.372 44.3096C255.614 44.0058 256.47 42.8771 256.429 41.6005C256.478 40.4307 255.749 39.3635 254.635 38.99ZM253.417 42.5199C253.116 42.6225 252.796 42.6636 252.479 42.6349H250.422V40.6483H252.479C252.788 40.6277 253.1 40.6647 253.401 40.7468C253.779 40.8576 254.034 41.2065 254.026 41.6005C254.03 42.0028 253.792 42.3681 253.417 42.5199ZM266.424 36.7243H263.43L260.55 39.6632H259.892V36.7243H257.506V44.523H259.892V41.5677H260.55L263.397 44.523H266.573L262.607 40.4184L266.424 36.7243Z" fill="#222220"/>
<path d="M271.559 36.4778C268.334 36.4778 266.408 38.2838 266.408 40.6152C266.408 42.9466 268.35 44.7526 271.542 44.7526C274.734 44.7526 276.659 42.9466 276.659 40.6152C276.659 38.2838 274.784 36.4778 271.559 36.4778ZM271.542 42.8481C269.946 42.8481 268.926 41.8959 268.926 40.6152C268.926 39.3346 269.963 38.3988 271.542 38.3988C273.122 38.3988 274.158 39.3346 274.158 40.6152C274.158 41.8959 273.138 42.8481 271.542 42.8481ZM284.521 37.036V36.248H282.135V37.036C279.14 37.1017 277.347 38.3659 277.347 40.5988C277.347 42.8317 279.14 43.9974 282.135 44.0631V44.8511H284.521V44.0631C287.532 43.9974 289.326 42.8317 289.326 40.5988C289.326 38.3659 287.536 37.1017 284.521 37.036ZM282.135 42.3884C280.489 42.3228 279.765 41.6496 279.765 40.5988C279.765 39.548 280.489 38.7928 282.135 38.7271V42.3884ZM284.521 42.3884V38.7271C286.183 38.7928 286.89 39.548 286.89 40.5988H286.894C286.894 41.6496 286.187 42.3228 284.521 42.3884ZM297.195 37.036V36.248H294.809V37.036C291.814 37.1017 290.02 38.3659 290.02 40.5988C290.02 42.8317 291.814 43.9974 294.809 44.0631V44.8511H297.195V44.0631C300.206 43.9974 302 42.8317 302 40.5988C302 38.3659 300.206 37.1017 297.195 37.036ZM294.809 42.3884C293.164 42.3228 292.439 41.6496 292.439 40.5988C292.439 39.548 293.164 38.7928 294.809 38.7271V42.3884ZM299.56 40.5988C299.56 41.6496 298.857 42.3228 297.195 42.3884V38.7271C298.857 38.7928 299.565 39.548 299.565 40.5988H299.56ZM193.875 43.8579C193.826 43.8579 193.781 43.8948 193.776 43.944V43.9481C193.772 44.0015 193.813 44.0507 193.867 44.0548H193.871C193.929 44.0548 193.97 44.0097 193.97 43.9564C193.97 43.8989 193.929 43.8579 193.875 43.8579ZM193.871 43.8537C193.875 43.8537 193.875 43.8579 193.875 43.8579C193.879 43.8579 193.879 43.8537 193.883 43.8537H193.871ZM200.593 50.5853L200.025 50.3677L200.181 49.7807L200.354 49.1405C199.577 49.5386 198.762 49.8587 197.923 50.0968C197.512 50.2117 197.215 50.2651 197.215 50.2651V50.6797C196.71 50.7617 196.199 50.8069 195.685 50.811H195.64C195.126 50.8069 194.616 50.7617 194.11 50.6797V50.2692C194.11 50.2692 193.809 50.2117 193.398 50.0968C192.559 49.8587 191.744 49.5386 190.967 49.1405L191.135 49.7807L191.296 50.3677L190.724 50.5853L190.107 50.8192C190.954 51.2584 191.839 51.6237 192.752 51.911L192.534 52.5021C193.525 52.8797 194.587 53.0645 195.648 53.0398H195.673C196.734 53.0645 197.796 52.8797 198.787 52.5021L198.573 51.911C199.482 51.6237 200.367 51.2584 201.214 50.8192L200.593 50.5853ZM190.794 50.8562L191.715 50.5483L191.44 49.6453C192.045 49.9449 192.67 50.1954 193.316 50.3923L192.863 51.6237C192.151 51.4349 191.456 51.1764 190.794 50.8562ZM195.685 52.7484L195.665 52.732C194.76 52.7278 193.859 52.6047 192.987 52.3667L193.542 50.8644C194.233 51.0368 194.945 51.1312 195.66 51.1352H195.706C196.422 51.1271 197.133 51.0368 197.824 50.8644L198.38 52.3667C197.503 52.613 196.594 52.7402 195.685 52.7484ZM198.491 51.6484V51.636L198.038 50.4047C198.684 50.2076 199.309 49.9573 199.914 49.6576L199.638 50.5606L200.572 50.8726C199.906 51.1969 199.206 51.4595 198.491 51.6484ZM195.66 27.1563C196.59 27.1316 197.503 27.4108 198.26 27.9485C198.38 27.341 198.606 26.7581 198.931 26.2286L197.997 26.3353L197.512 25.2969L196.57 25.7812L195.66 24.8823L194.751 25.7812L193.809 25.2969L193.324 26.3353L192.39 26.2286C192.715 26.7581 192.941 27.341 193.061 27.9485C193.818 27.4108 194.731 27.1316 195.66 27.1563ZM193.283 26.6966L193.542 26.7253L193.653 26.4913L193.978 25.7935L194.583 26.1055L194.817 26.2245L195.006 26.0521L195.66 25.3913L196.315 26.0521L196.504 26.2368L196.738 26.1178L197.339 25.8059L197.668 26.5036L197.779 26.7376L198.038 26.7089L198.285 26.6801C198.186 26.9059 198.1 27.1399 198.03 27.3779C196.545 26.6186 194.78 26.6186 193.295 27.3779C193.225 27.1399 193.139 26.9059 193.04 26.6801L193.283 26.6966ZM207.862 35.6281L207.751 35.4927C206.986 34.5199 206.257 33.5964 204.957 33.1736C205.011 33.1284 205.064 33.0874 205.122 33.0504C205.739 32.7015 206.175 32.1023 206.315 31.4086C206.385 30.7806 206.208 30.1526 205.821 29.6518L205.41 29.1388L205.151 29.7504C205.151 29.7873 204.694 30.7683 203.773 30.7683H203.501C203.551 30.1239 203.316 29.4877 202.86 29.028C202.304 28.4615 201.539 28.1455 200.745 28.1496C200.597 28.1496 200.449 28.1619 200.305 28.1824L199.675 28.3056L200.066 28.8186C200.371 29.2291 200.646 29.9392 200.321 30.3209C200.165 30.4564 199.988 30.5631 199.795 30.6369C199.383 30.8299 198.791 31.1049 198.791 31.7945C198.791 32.2419 199.141 32.7098 199.77 33.1079C201.625 34.2819 202.773 35.4927 203.271 36.8554C204.04 38.9323 203.036 40.1145 202.061 40.7383L201.625 41.0175L202.008 41.3664C202.349 41.6578 202.769 41.8384 203.217 41.8835H203.592C203.974 41.8835 204.353 41.8302 204.719 41.7193C204.628 41.8794 204.517 42.0313 204.398 42.1708C203.843 42.8153 203.02 43.1683 202.168 43.1231H201.802L201.774 43.4885C201.769 44.0015 201.996 44.4858 202.386 44.8183C202.489 44.9086 202.604 44.9825 202.728 45.0399C202.119 45.631 201.774 46.4396 201.761 47.2892C201.761 47.7531 201.654 48.2128 201.453 48.6315L201.041 49.2472H201.774C202.983 49.2472 203.909 48.9147 204.55 48.2539C204.883 47.905 205.13 47.4822 205.274 47.0225C205.513 47.2236 205.793 47.3632 206.097 47.4329C206.241 47.4658 206.389 47.4822 206.537 47.4822C206.759 47.4822 206.981 47.4534 207.195 47.4042L207.664 47.2811L207.459 46.846C207.199 46.1523 207.199 45.3847 207.459 44.691C207.611 44.2395 207.718 43.7716 207.775 43.2955C208.146 43.4843 208.557 43.5787 208.972 43.5746C209.655 43.5828 210.293 43.2463 210.663 42.6757L210.889 42.2653L210.478 42.0928C209.1 41.5224 208.796 39.9872 208.734 39.1581C208.87 39.1868 209.005 39.2032 209.145 39.2073L209.26 39.2853C210.758 39.2853 211.26 37.7625 211.28 37.6969L211.449 37.1591H210.885C209.701 37.1181 208.594 36.5599 207.862 35.6281ZM209.265 38.8708H209.207C208.907 38.8749 208.61 38.7928 208.355 38.6368C208.355 38.6368 208.137 41.6045 210.355 42.5239V42.5362C210.063 42.9795 209.561 43.2422 209.03 43.2339C208.429 43.2709 207.849 43.0164 207.471 42.5526C207.483 43.2504 207.368 43.9481 207.134 44.6049C206.833 45.3971 206.833 46.2755 207.134 47.0677C206.949 47.1128 206.763 47.1374 206.574 47.1374C206.459 47.1374 206.34 47.1251 206.229 47.0964C205.681 46.965 205.245 46.5628 205.069 46.0333C205.069 46.0333 205.155 48.8818 201.827 48.8818H201.802C202.053 48.4057 202.185 47.8762 202.181 47.3385C202.325 45.2329 203.756 44.9332 203.756 44.9332C203.361 44.884 202.987 44.7444 202.658 44.5228C202.358 44.2724 202.185 43.903 202.177 43.5131C203.139 43.5541 204.069 43.1559 204.698 42.4254C205.077 41.9944 205.328 41.469 205.435 40.9066C204.904 41.3048 204.25 41.5059 203.588 41.4772H203.25C202.892 41.4403 202.551 41.3007 202.275 41.0667C203.542 40.2458 204.431 38.8421 203.645 36.7117C203.012 35.0042 201.494 33.7277 199.968 32.7673C199.462 32.4553 199.157 32.1023 199.157 31.7985C199.157 31.0843 200.173 31.0638 200.593 30.5672C201.074 30.009 200.774 29.1059 200.354 28.5641C200.474 28.5436 200.597 28.5354 200.716 28.5354C201.403 28.5272 202.066 28.8022 202.543 29.2948C203.028 29.7545 203.213 30.4481 203.028 31.0885L203.25 31.1336C203.386 31.1582 203.522 31.1706 203.662 31.1747H203.752C204.957 31.1747 205.5 29.9145 205.5 29.9145C205.5 29.9145 206.784 31.4907 204.896 32.7221C204.571 32.9315 204.427 33.1325 204.484 33.3377L204.513 33.4732L204.649 33.4978C206.019 33.8672 206.706 34.8114 207.557 35.8826C208.364 36.9047 209.581 37.5204 210.885 37.5655H210.91C210.91 37.5655 210.499 38.8708 209.265 38.8708Z" fill="#222220"/>
<path d="M206.623 33.3584C207.084 33.6211 207.483 33.9782 207.796 34.4051C208.03 34.7663 208.364 35.0536 208.758 35.226C208.907 35.2752 209.067 35.2999 209.223 35.2999C209.853 35.2999 210.429 34.9428 210.717 34.3846L210.955 33.851L210.375 33.8181C209.75 33.7032 209.186 33.3831 208.771 32.9028C208.462 32.5703 208.03 32.3774 207.574 32.3733C207.22 32.3774 206.879 32.4841 206.582 32.6729L206.048 33.0464L206.623 33.3584ZM207.586 32.7715L207.574 32.7756C207.923 32.7756 208.252 32.9274 208.487 33.186C208.968 33.736 209.626 34.1014 210.351 34.2204C210.128 34.6349 209.696 34.8935 209.223 34.8976C209.108 34.8976 208.993 34.8771 208.882 34.8402C208.216 34.6144 207.981 33.6088 206.825 33.0013C207.051 32.8536 207.315 32.7756 207.586 32.7715ZM206.895 38.6492L206.887 38.641C206.549 35.932 204.579 33.9741 202.386 32.7879C202.185 32.677 201.996 32.5868 201.815 32.5006C202.72 32.6853 203.662 32.4636 204.39 31.8972C204.39 31.8972 203.119 32.8289 200.519 31.9834C201.239 32.4513 202.637 33.108 203.917 34.1752C207.109 36.9745 204.826 39.7082 204.826 39.7082C205.78 38.8052 206.113 37.426 205.686 36.1865C206.36 37.307 206.685 38.6041 206.615 39.9094C206.525 42.0601 205.328 43.9401 204.094 45.4382C203.723 45.9102 203.468 46.4644 203.361 47.0554C203.571 46.4684 203.888 45.9267 204.299 45.4587C205.636 43.8949 206.767 42.2736 206.928 39.9381C207.068 40.3485 207.635 41.543 208.541 41.9903C208.541 41.9903 207.405 41.309 206.895 38.6492ZM189.864 48.6604C189.667 48.2416 189.56 47.782 189.556 47.3181C189.543 46.4684 189.194 45.6599 188.585 45.0688C188.708 45.0113 188.823 44.9375 188.926 44.8471C189.317 44.5147 189.543 44.0303 189.539 43.5173L189.515 43.1519H189.144C188.297 43.193 187.474 42.8441 186.919 42.1997C186.8 42.0601 186.693 41.9082 186.598 41.7482C186.964 41.859 187.343 41.9124 187.725 41.9124H188.099C188.548 41.8672 188.972 41.6866 189.313 41.3952L189.696 41.0463L189.26 40.7672C188.28 40.1433 187.281 38.9611 188.05 36.8843C188.548 35.5339 189.696 34.3148 191.567 33.1409C192.197 32.7304 192.542 32.2748 192.542 31.8274C192.542 31.1378 191.962 30.8629 191.538 30.6699C191.345 30.596 191.168 30.4893 191.012 30.3539C190.683 29.9721 190.958 29.2456 191.267 28.8516L191.678 28.3385L191.045 28.2154C190.901 28.1907 190.753 28.1825 190.605 28.1825C189.803 28.1579 189.029 28.4657 188.461 29.0281C187.997 29.4837 187.754 30.124 187.799 30.7725H187.552C186.627 30.7725 186.191 29.7956 186.174 29.7546L185.915 29.143L185.504 29.6561C185.121 30.1568 184.944 30.7849 185.014 31.4128C185.154 32.1065 185.586 32.7058 186.203 33.0547C186.261 33.0916 186.318 33.1326 186.368 33.1778C185.068 33.5883 184.34 34.5241 183.574 35.4969L183.463 35.6365C182.731 36.5682 181.62 37.1264 180.436 37.1675H179.872L180.045 37.7052C180.045 37.7708 180.563 39.2937 182.065 39.2937H182.139C182.279 39.2895 182.414 39.2731 182.55 39.2444C182.488 40.0653 182.184 41.6086 180.802 42.1792L180.39 42.3516L180.617 42.762C180.987 43.3326 181.624 43.6692 182.307 43.6609C182.723 43.665 183.13 43.5706 183.5 43.3819C183.558 43.858 183.665 44.3259 183.817 44.7774C184.076 45.4711 184.076 46.2386 183.817 46.9323L183.611 47.3674L184.08 47.4905C184.294 47.5398 184.516 47.5685 184.739 47.5685C184.887 47.5685 185.035 47.5521 185.179 47.5193C185.483 47.4494 185.763 47.3099 186.001 47.1088C186.145 47.5685 186.392 47.9913 186.726 48.3402C187.371 49.001 188.297 49.3294 189.502 49.3334H190.234L189.864 48.6604ZM189.51 48.8902C186.182 48.8902 186.265 46.0416 186.265 46.0416C186.088 46.5711 185.652 46.9733 185.105 47.1047C184.994 47.1334 184.874 47.1458 184.759 47.1458C184.57 47.1458 184.385 47.1211 184.204 47.0759C184.504 46.2837 184.504 45.4054 184.204 44.6132C183.969 43.9565 183.858 43.2587 183.871 42.5609C183.492 43.0247 182.912 43.2792 182.311 43.2423H182.291C181.756 43.2505 181.254 42.9837 180.962 42.5404C183.179 41.6209 182.961 38.6533 182.961 38.6533C182.706 38.8093 182.41 38.8914 182.11 38.8873H182.065C180.831 38.8873 180.419 37.582 180.419 37.582H180.444C181.748 37.541 182.97 36.9253 183.776 35.9033C184.623 34.832 185.314 33.8879 186.684 33.5185L186.82 33.4939L186.849 33.3584C186.886 33.1491 186.742 32.9479 186.437 32.7427C184.549 31.5113 185.833 29.9352 185.833 29.9352C185.833 29.9352 186.368 31.1953 187.581 31.1953H187.639C187.779 31.1912 187.914 31.1789 188.05 31.1543L188.272 31.1091C188.083 30.4688 188.272 29.7751 188.758 29.3154C189.235 28.8228 189.897 28.5478 190.584 28.556C190.703 28.556 190.827 28.5643 190.946 28.5848C190.535 29.1307 190.23 30.0337 190.712 30.5878C191.123 31.0681 192.143 31.0886 192.143 31.8192C192.143 32.1229 191.859 32.4759 191.353 32.792C189.823 33.7525 188.305 35.029 187.676 36.7365C186.89 38.8668 187.779 40.2829 189.046 41.0915C188.77 41.3213 188.429 41.465 188.071 41.5019H187.729C187.067 41.5306 186.413 41.3295 185.882 40.9314C185.989 41.4937 186.24 42.0191 186.614 42.4501C187.244 43.1766 188.178 43.5788 189.14 43.5378C189.132 43.9277 188.959 44.2971 188.659 44.5476C188.33 44.7691 187.955 44.9087 187.561 44.958C187.561 44.958 188.996 45.2494 189.153 47.3633C189.148 47.9009 189.28 48.4304 189.531 48.9066L189.51 48.8902Z" fill="#222220"/>
<path d="M182.093 35.2958H182.098C182.254 35.2958 182.414 35.2712 182.562 35.222C182.957 35.0495 183.291 34.7622 183.525 34.401C183.834 33.9742 184.233 33.617 184.693 33.3543L185.269 33.0465L184.734 32.673C184.438 32.4842 184.097 32.3774 183.747 32.3733C183.291 32.3774 182.859 32.5704 182.55 32.9069C182.139 33.3831 181.571 33.7074 180.95 33.8223L180.37 33.851L180.604 34.3846C180.892 34.9428 181.464 35.2917 182.093 35.2958ZM182.834 33.1861C183.064 32.9274 183.393 32.7756 183.743 32.7756C184.01 32.7797 184.274 32.8618 184.5 33.0054C183.336 33.6252 183.093 34.6186 182.443 34.8443C182.336 34.8813 182.221 34.9018 182.106 34.9018C181.629 34.9018 181.193 34.6391 180.97 34.2204C181.694 34.1014 182.353 33.7361 182.834 33.1861ZM184.714 39.9258C184.644 38.6206 184.965 37.3235 185.644 36.203C185.216 37.4425 185.549 38.8217 186.503 39.7247C186.503 39.7247 184.216 36.991 187.413 34.1917C188.692 33.1245 190.087 32.4678 190.806 31.9998C188.207 32.8453 186.935 31.9136 186.935 31.9136C187.664 32.4801 188.601 32.7017 189.506 32.517C189.325 32.6032 189.136 32.6976 188.935 32.8043C186.742 33.9947 184.759 35.9525 184.434 38.6616V38.6411C183.924 41.3008 182.789 41.9822 182.789 41.9822C183.69 41.5389 184.261 40.3404 184.397 39.9299C184.549 42.2695 185.693 43.8908 187.03 45.4506C187.437 45.9185 187.758 46.4603 187.968 47.0473C187.857 46.4603 187.602 45.9062 187.227 45.4383C185.993 43.9401 184.8 42.0602 184.714 39.9258ZM194.908 34.9839C195.052 34.8443 195.253 34.7786 195.455 34.8033V35.579C195.451 35.7719 195.401 35.9566 195.307 36.125H196.084C195.99 35.9566 195.94 35.7719 195.936 35.579V34.8033C196.134 34.7786 196.335 34.8443 196.479 34.9839V34.4462H194.908V34.9839ZM194.583 31.261H194.575C194.694 31.3636 194.834 31.4457 194.986 31.4949L195.085 31.5401V31.0312L194.171 30.6494C194.217 30.9039 194.365 31.1255 194.583 31.261ZM196.751 31.2569L196.747 31.261C196.965 31.1255 197.113 30.9039 197.158 30.6494L196.245 31.0312V31.536L196.339 31.4908C196.492 31.4416 196.631 31.3595 196.751 31.2569Z" fill="#222220"/>
<path d="M198.388 29.2003C198.388 28.4327 197.092 27.7432 195.665 27.7432C194.237 27.7432 192.941 28.4327 192.941 29.2003L192.97 29.3891L193.542 32.6728L192.97 33.0052L191.477 33.8508C191.477 33.8508 191.144 34.0232 190.987 34.1258C190.424 34.5363 190.305 35.0863 190.629 35.3244C190.712 34.7661 191.201 34.3556 191.769 34.3721C192.242 34.3844 192.682 34.6224 192.95 35.0124C193.032 35.1109 193.106 35.2176 193.172 35.3244C193.258 35.4639 193.345 35.587 193.431 35.7061H189.622C189.942 36.2561 190.128 36.8758 190.169 37.5121V45.9552C190.169 48.0076 191.744 48.9721 193.46 48.9721C194.776 48.9721 194.953 48.9106 195.677 49.6329C196.401 48.9106 196.578 48.9721 197.894 48.9721C199.597 48.9721 201.185 47.9993 201.185 45.9552V37.5203C201.226 36.8841 201.411 36.2643 201.732 35.7143H197.882C197.968 35.5953 198.055 35.4721 198.141 35.3326C198.211 35.2258 198.285 35.1191 198.363 35.0206C198.635 34.6307 199.075 34.3926 199.548 34.3803C200.116 34.3639 200.605 34.7743 200.687 35.3326C201.017 35.0986 200.897 34.5116 200.33 34.134C200.177 34.0273 199.844 33.859 199.844 33.859L198.363 32.9888L197.791 32.6563L198.363 29.3727L198.388 29.2003ZM193.493 29.5779L195.5 30.2552V33.3993L194.023 32.6194L193.493 29.5779ZM190.444 36.2602H193.904C194.171 36.5393 194.5 36.761 194.862 36.9005C194.784 37.1714 194.805 37.4628 194.916 37.7214C195.048 37.9964 195.282 38.2099 195.57 38.3207C195.624 38.7927 195.944 39.1867 196.393 39.3427C196.146 39.5931 195.903 39.8271 195.805 39.9215L193.505 39.8846C193.427 39.8476 193.365 39.7901 193.324 39.7162V39.6875L193.698 39.7491H193.723C193.797 39.7491 193.859 39.6999 193.871 39.626C193.883 39.5439 193.83 39.47 193.748 39.4535L193.287 39.3797L193.797 37.6147L193.312 36.5968L192.534 37.4177L192.485 39.2525L191.962 39.1704C191.88 39.1539 191.806 39.2073 191.79 39.2893V39.2935C191.777 39.3756 191.831 39.4494 191.913 39.4659L192.131 39.4987C192.053 39.5439 191.999 39.5767 191.995 39.5849L191.95 39.6177V39.6711C191.847 40.139 192.036 40.6234 192.423 40.9025V40.9682C192.398 41.1282 192.509 41.2801 192.67 41.3088H192.719C192.855 41.3088 192.974 41.2145 193.003 41.079C193.102 41.0831 193.196 41.0831 193.295 41.079H193.357L196.372 41.6249L196.422 41.592C196.66 41.4238 197.577 40.7711 197.878 40.5371C197.964 40.6111 198.063 40.6767 198.166 40.726C198.026 41.157 198.133 41.629 198.446 41.9574H190.72V37.5203C190.704 37.0893 190.609 36.6624 190.444 36.2602ZM197.619 40.3196C197.306 40.5495 196.537 41.1077 196.257 41.3047L193.521 40.8286V40.7547C193.567 40.57 193.591 40.3812 193.595 40.1924L195.899 40.2293L195.944 40.1842C195.981 40.1472 196.71 39.4453 197.08 39.039C197.178 39.1621 197.294 39.2647 197.425 39.3468C197.36 39.6834 197.429 40.0323 197.619 40.3196ZM193.048 39.8271V39.8394C193.11 39.9543 193.201 40.0528 193.312 40.1185C193.307 40.2868 193.291 40.451 193.262 40.6151C193.262 40.6521 193.262 40.6891 193.233 40.726V40.7834C193.044 40.7834 192.859 40.7547 192.678 40.6972C192.349 40.5208 192.164 40.1596 192.217 39.7901C192.365 39.6875 192.534 39.6219 192.711 39.5972C192.863 39.5931 192.999 39.6834 193.048 39.8271ZM192.765 39.2812L192.81 37.5449L193.221 37.1345L193.472 37.6558L192.982 39.3468L192.765 39.2812ZM197.598 48.4262H197.203L197.512 47.4206C197.561 47.281 197.306 47.1004 197.199 46.9403C197.45 47.0922 197.709 47.2276 197.977 47.3508C197.977 47.3836 197.598 48.4262 197.598 48.4262ZM198.655 47.3015L198.622 47.2728L198.408 48.3811C198.273 48.3811 198.129 48.4098 197.997 48.418L198.223 47.3508C198.289 47.0347 197.438 46.9403 197.018 46.3123C196.742 46.5422 196.389 46.6489 196.035 46.6119C195.722 46.6078 195.414 46.5751 195.109 46.5135C195.056 46.5093 195.002 46.5093 194.949 46.5135C194.821 46.5052 194.698 46.5709 194.632 46.6818L194.57 46.7844L193.398 46.5011L193.118 46.9855C193.073 47.0512 193.081 47.1414 193.139 47.1989L193.217 47.2851C193.139 47.437 193.04 47.5766 192.921 47.6956L192.748 47.4821C192.616 47.2687 192.629 46.9937 192.777 46.7926L193.238 46.0168L194.221 46.1646L194.069 45.8156C193.863 45.356 194.175 44.769 194.208 44.4324C194.208 44.5351 194.101 44.5556 193.995 44.5556H193.711C193.69 44.5515 193.665 44.5515 193.645 44.5556L193.377 44.7157L193.168 44.5227C193.135 44.4611 193.147 44.3873 193.196 44.3421L193.682 43.7962L193.106 43.1272L193.929 43.5376L194.175 43.2421C194.241 43.3078 194.212 43.4801 194.212 43.4801C194.809 43.628 195.225 44.1697 195.208 44.7854V44.9045C195.29 45.0358 195.422 45.1261 195.57 45.1631L196.685 45.2739C196.907 45.2041 197.133 45.1589 197.364 45.1302C197.561 45.1302 197.759 45.1918 197.923 45.2985C198.001 45.2452 198.096 45.2123 198.19 45.2082H198.227C198.725 45.2082 198.935 45.6597 199.202 46.0291C199.404 46.3123 199.676 46.7392 199.676 46.7392C199.597 46.8541 199.47 46.9239 199.33 46.9239C199.281 46.928 199.235 46.928 199.186 46.9239C198.651 46.8254 198.573 45.7254 198.269 45.6392H198.219C198.162 45.6392 198.108 45.672 198.079 45.7254C198.219 46.0989 198.137 46.2508 198.289 46.5463C198.4 46.7228 198.54 46.8829 198.701 47.0183C198.701 47.0183 198.68 47.1825 198.655 47.3015ZM192.662 46.2262H192.653L192.703 46.3534C192.67 46.4642 192.291 46.6243 192.291 46.6243L192.209 46.4437C192.102 46.1851 192.18 45.8896 192.407 45.7213L193.028 45.3436L193.69 45.4832C193.686 45.6146 193.727 45.7418 193.805 45.8485L193.11 45.7172L192.699 46.0045C192.633 46.062 192.62 46.1523 192.662 46.2262ZM200.618 45.9593C200.663 47.1004 199.869 48.1019 198.746 48.3236L198.935 47.3303C198.935 47.2728 198.956 47.203 198.964 47.1455C199.021 47.1702 199.079 47.1866 199.137 47.1989C199.202 47.203 199.268 47.203 199.334 47.1989C199.56 47.1989 199.774 47.0963 199.91 46.9157L200.058 46.7433L199.935 46.5751C199.935 46.5751 199.659 46.1399 199.453 45.8526L199.338 45.6802C199.108 45.3354 198.816 44.9004 198.236 44.9004H198.182C198.1 44.9045 198.014 44.9209 197.935 44.9496C197.759 44.8634 197.565 44.8183 197.368 44.8183C197.17 44.8224 196.973 44.8593 196.788 44.9291L196.689 44.9578L195.603 44.8511C195.558 44.8306 195.521 44.7978 195.492 44.7567L195.726 44.6623C195.661 43.8783 194.904 43.3981 194.492 43.238C194.472 43.1518 194.431 43.0779 194.369 43.0164L194.134 42.7947L193.929 43.041L193.826 43.1641L192.304 42.5402L193.295 43.7716L192.904 44.3626C192.822 44.4447 192.818 44.5802 192.904 44.6664L193.316 44.9455L193.727 44.7895H193.768C193.768 44.8511 193.723 45.1015 193.702 45.1713L192.987 45.0481L192.221 45.4586C191.868 45.713 191.744 46.181 191.929 46.5751L192.016 46.7598L192.135 47.0224L192.402 46.9116C192.304 47.1784 192.345 47.474 192.518 47.6997L192.678 47.9049L192.892 48.1758L193.131 47.9213C193.287 47.7654 193.41 47.5848 193.497 47.3836L193.546 47.2194L193.431 47.0922V47.0676L193.563 46.8541L194.513 47.0758L194.727 47.125L194.842 46.9362L194.904 46.8336C194.904 46.8131 194.904 46.809 194.961 46.809H195.064C195.389 46.8746 195.718 46.9075 196.047 46.9116C196.269 46.9239 196.491 46.8993 196.705 46.8336L197.232 47.4329L196.919 48.3933V48.4508C196.45 48.4426 196.002 48.6355 195.685 48.9762C195.179 48.4754 194.821 48.4221 193.468 48.4221C191.843 48.4221 190.745 47.474 190.745 45.9593V42.2652H200.618V45.9593ZM200.885 36.2602C200.716 36.6583 200.626 37.0852 200.609 37.5203V40.2868C200.251 40.2088 199.984 39.9051 199.959 39.5398V39.4125H199.836C199.622 39.3961 199.425 39.2976 199.276 39.1457C199.095 38.9364 198.997 38.6737 198.993 38.3987C198.816 38.686 198.832 39.0554 199.038 39.3263C199.198 39.5274 199.433 39.6629 199.688 39.6957C199.762 40.1719 200.144 40.5413 200.622 40.6029V41.9574H198.894C198.441 41.7275 198.252 41.1898 198.454 40.726L198.52 40.5782L198.367 40.5208C197.874 40.3483 197.602 39.8188 197.759 39.3181L197.791 39.195L197.676 39.1416C197.244 38.8912 197.006 38.4028 197.076 37.9102C196.849 38.1401 196.792 38.489 196.936 38.7763C196.854 38.8707 196.747 38.9815 196.627 39.1046C196.195 39.0144 195.883 38.6409 195.866 38.2016V38.099L195.772 38.0621C195.521 37.9882 195.315 37.8158 195.196 37.586C195.117 37.3972 195.101 37.1838 195.155 36.9867C195.237 37.0031 195.319 37.0154 195.401 37.0237C195.484 37.0278 195.57 37.0278 195.652 37.0237C196.319 37.0237 196.952 36.7363 197.396 36.2438L200.885 36.2602ZM198.219 33.4609L198.894 33.8713L199.063 33.9698C198.713 34.0642 198.396 34.253 198.145 34.5157L198.116 34.5403C198.059 34.6019 198.005 34.6635 197.952 34.7292L197.919 34.7703C197.865 34.8359 197.816 34.9057 197.771 34.9796L197.746 35.0165C197.689 35.0986 197.635 35.1889 197.582 35.2792C197.207 36.0221 196.479 36.5188 195.652 36.6009C194.825 36.5188 194.097 36.0221 193.723 35.2792C193.67 35.1889 193.616 35.1027 193.563 35.0165L193.53 34.9713L193.398 34.7579L193.361 34.7128C193.307 34.6471 193.254 34.5855 193.201 34.5281L193.172 34.4993C192.921 34.2366 192.604 34.0478 192.254 33.9534L192.427 33.8549L193.106 33.4445L193.801 33.034L195.656 34.0396L197.512 33.0668L198.219 33.4609ZM197.306 32.6399L195.829 33.4157V30.2593L197.833 29.582L197.306 32.6399ZM195.661 29.9268L193.464 29.0484C193.649 28.6051 194.513 28.2275 195.661 28.2275C196.808 28.2275 197.672 28.6051 197.857 29.0484L195.661 29.9268Z" fill="#222220"/>
<path d="M394.878 35.464L397.327 33.664H389.207V44.3355H397.327V42.5355H391.527V39.8355H396.424V38.0355H391.527V35.464H394.878ZM384.76 35.464L387.209 33.664H377.929V44.3355H382.762C385.469 44.3355 387.016 43.114 387.016 40.9926C387.016 38.9355 385.598 37.8426 383.02 37.8426H380.184V35.464H384.76ZM382.698 39.5783C384.18 39.5783 384.824 40.0926 384.824 41.0569C384.824 42.0212 384.116 42.5355 382.698 42.5355H380.249V39.5783H382.698ZM403.836 33.664H399.453V44.3355H401.773V41.314H403.9C406.736 41.314 408.476 39.8355 408.476 37.4569C408.476 35.0783 406.671 33.664 403.836 33.664ZM403.836 39.514H401.773V35.3998H403.836C405.318 35.3998 406.156 36.1069 406.156 37.4569C406.091 38.8069 405.318 39.514 403.836 39.514ZM373.998 42.0212C373.353 42.3426 372.709 42.5355 372 42.5355C369.938 42.5355 368.391 41.0569 368.391 38.9998C368.391 36.9426 369.873 35.464 372 35.464C372.773 35.464 373.482 35.7212 374.127 36.1069L375.802 34.8855L375.673 34.7569C374.707 33.9212 373.418 33.4712 371.936 33.4712C370.324 33.4712 368.907 33.9855 367.811 35.014C366.78 36.0426 366.136 37.4569 366.2 38.9355C366.2 40.414 366.78 41.8283 367.811 42.9212C368.907 43.9498 370.389 44.5283 371.871 44.464C373.547 44.464 374.964 43.8855 375.996 42.8569L374.513 41.764L373.998 42.0212ZM443.533 38.0355H438.571V33.664H436.251V44.3355H438.571V39.964H443.533V44.3355H445.853V33.664H443.533V38.0355ZM427.873 33.664L423.233 44.3355H425.553L426.456 42.214H431.353L432.256 44.3355H434.704L430.193 33.664H427.873ZM427.229 40.414L429.033 36.1069L430.709 40.414H427.229ZM454.231 38.8069L458.42 33.664H455.778L452.298 38.2283H451.009V33.664H448.689V44.3355H451.009V40.0283H452.491L456.036 44.3355H459L454.231 38.8069ZM418.4 37.8426H415.564V35.464H421.622V33.664H413.244V44.3355H418.078C420.784 44.3355 422.331 43.114 422.331 40.9926C422.396 38.9355 420.978 37.8426 418.4 37.8426ZM418.013 42.5998H415.564V39.6426H418.013C419.496 39.6426 420.14 40.1569 420.14 41.1212C420.204 42.0855 419.431 42.5998 418.013 42.5998Z" fill="#21A038"/>
<path d="M358.777 33.4595C359.195 34.0063 359.549 34.6004 359.832 35.2298L351.809 41.2086L348.457 39.0837V36.5275L351.809 38.6523L358.777 33.4595Z" fill="#21A038"/>
<path d="M345.035 38.9031C345.035 38.7883 345.037 38.6744 345.043 38.5611L343.011 38.4604C343.004 38.6073 343 38.7555 343 38.9051C342.999 40.0741 343.227 41.2316 343.669 42.3115C344.112 43.3913 344.761 44.3722 345.58 45.1978L347.021 43.7414C346.391 43.107 345.891 42.3529 345.55 41.5226C345.209 40.6923 345.034 39.802 345.035 38.9031Z" fill="url(#paint0_linear_708_4094)"/>
<path d="M351.808 32.0566C351.921 32.0566 352.034 32.0608 352.146 32.0664L352.247 30.0115C352.102 30.0045 351.955 30.001 351.808 30.001C350.651 29.9996 349.505 30.2292 348.436 30.6766C347.368 31.124 346.397 31.7805 345.58 32.6082L347.021 34.0653C347.649 33.4282 348.394 32.9227 349.216 32.5779C350.037 32.2332 350.918 32.056 351.808 32.0566Z" fill="url(#paint1_linear_708_4094)"/>
<path d="M351.808 45.7507C351.694 45.7507 351.581 45.7507 351.469 45.7416L351.367 47.7958C351.513 47.8033 351.66 47.807 351.808 47.807C352.964 47.8082 354.109 47.5785 355.177 47.1309C356.245 46.6834 357.216 46.0268 358.032 45.1991L356.594 43.7427C355.966 44.3795 355.22 44.8847 354.399 45.2293C353.577 45.5739 352.697 45.7511 351.808 45.7507Z" fill="url(#paint2_linear_708_4094)"/>
<path d="M355.625 33.2512L357.338 31.9752C355.773 30.6939 353.819 29.9964 351.805 30V32.0563C353.169 32.0546 354.501 32.4713 355.625 33.2512Z" fill="url(#paint3_linear_708_4094)"/>
<path d="M360.615 38.9036C360.616 38.3687 360.569 37.8347 360.476 37.3081L358.581 38.7205C358.581 38.7813 358.581 38.8421 358.581 38.9036C358.581 39.8603 358.383 40.8065 357.998 41.6807C357.614 42.5549 357.052 43.3377 356.349 43.9783L357.717 45.5061C358.63 44.6722 359.36 43.6536 359.86 42.5162C360.359 41.3788 360.616 40.148 360.615 38.9036Z" fill="#21A038"/>
<path d="M351.808 45.7507C350.861 45.751 349.925 45.5504 349.06 45.1619C348.196 44.7733 347.421 44.2055 346.787 43.4951L345.277 44.8767C346.102 45.8005 347.109 46.5387 348.234 47.0435C349.359 47.5483 350.577 47.8084 351.808 47.807V45.7507Z" fill="url(#paint4_linear_708_4094)"/>
<path d="M347.266 33.8285L345.899 32.3008C344.985 33.1345 344.255 34.1531 343.755 35.2905C343.256 36.4279 342.999 37.6587 343 38.9032H345.035C345.034 37.9465 345.233 37.0004 345.617 36.1262C346.001 35.252 346.563 34.4692 347.266 33.8285Z" fill="url(#paint5_linear_708_4094)"/>
<defs>
<linearGradient id="paint0_linear_708_4094" x1="345.991" y1="44.9412" x2="343.725" y2="38.4603" gradientUnits="userSpaceOnUse">
<stop offset="0.14" stop-color="#F1E813"/>
<stop offset="0.3" stop-color="#E6E418"/>
<stop offset="0.58" stop-color="#C9DA26"/>
<stop offset="0.89" stop-color="#A2CC39"/>
</linearGradient>
<linearGradient id="paint1_linear_708_4094" x1="346.161" y1="32.9718" x2="351.902" y2="30.8075" gradientUnits="userSpaceOnUse">
<stop offset="0.06" stop-color="#0FA7DF"/>
<stop offset="0.54" stop-color="#0098F8"/>
<stop offset="0.92" stop-color="#0290EA"/>
</linearGradient>
<linearGradient id="paint2_linear_708_4094" x1="351.233" y1="46.566" x2="357.714" y2="45.1176" gradientUnits="userSpaceOnUse">
<stop offset="0.12" stop-color="#A2CC39"/>
<stop offset="0.28" stop-color="#86C239"/>
<stop offset="0.87" stop-color="#219F38"/>
</linearGradient>
<linearGradient id="paint3_linear_708_4094" x1="351.382" y1="30.6887" x2="356.928" y2="32.3816" gradientUnits="userSpaceOnUse">
<stop offset="0.06" stop-color="#0290EA"/>
<stop offset="0.79" stop-color="#0C89CA"/>
</linearGradient>
<linearGradient id="paint4_linear_708_4094" x1="345.787" y1="44.6264" x2="351.828" y2="46.8597" gradientUnits="userSpaceOnUse">
<stop offset="0.13" stop-color="#F1E813"/>
<stop offset="0.3" stop-color="#EAE616"/>
<stop offset="0.53" stop-color="#D8DF1F"/>
<stop offset="0.8" stop-color="#BAD52D"/>
<stop offset="0.98" stop-color="#A2CC39"/>
</linearGradient>
<linearGradient id="paint5_linear_708_4094" x1="343.758" y1="39.1521" x2="346.223" y2="32.8096" gradientUnits="userSpaceOnUse">
<stop offset="0.07" stop-color="#A2CC39"/>
<stop offset="0.26" stop-color="#81C45E"/>
<stop offset="0.92" stop-color="#0FA7DF"/>
</linearGradient>
</defs>
</svg>
