<svg width="756" height="567" viewBox="0 0 756 567" fill="none" xmlns="http://www.w3.org/2000/svg">
<path d="M405.263 390.994C402.145 388.159 399.499 384.899 397.42 381.214C396.333 379.276 395.435 377.292 394.726 375.213C394.396 374.268 394.065 373.276 393.829 372.283C393.592 371.386 393.545 370.488 393.734 369.59C394.396 368.078 395.341 367.747 396.616 368.598C397.136 369.165 398.176 368.409 397.75 367.747C394.301 362.881 391.75 357.494 390.285 351.682C389.954 350.359 389.671 349.036 389.434 347.666C389.245 346.39 389.293 344.878 388.962 343.603C388.253 341.051 386.363 338.452 385.229 336.043C379.843 324.844 375.307 312.607 377.197 299.991C376.771 300.038 376.346 300.085 375.921 300.18C385.229 312.37 392.506 325.931 397.467 340.437C397.75 341.287 399.073 340.957 398.837 340.059C398.317 337.98 398.081 335.995 398.176 333.869C397.892 334.105 397.561 334.342 397.278 334.531C398.743 334.767 399.593 335.617 399.829 337.082C399.971 337.885 401.2 337.649 401.2 336.893C401.247 334.389 401.341 331.837 401.389 329.333C400.963 329.475 400.491 329.569 400.066 329.711C407.815 341.618 413.91 354.47 418.21 367.984C418.446 368.692 419.344 368.645 419.58 367.984C419.958 366.897 420.336 365.763 420.761 364.676C420.43 364.818 420.052 364.96 419.722 365.101C424.258 368.362 426.715 373.606 426.431 379.135C426.384 380.032 427.801 380.032 427.849 379.135C428.132 373.039 425.344 367.417 420.43 363.873C420.052 363.589 419.533 363.92 419.391 364.298C419.013 365.385 418.635 366.519 418.21 367.606C418.682 367.606 419.107 367.606 419.58 367.606C415.28 353.95 409.138 340.957 401.294 329.002C400.916 328.435 399.971 328.624 399.971 329.38C399.924 331.885 399.829 334.436 399.782 336.94C400.255 336.893 400.727 336.799 401.152 336.751C400.822 334.861 399.499 333.491 397.609 333.208C397.136 333.113 396.711 333.397 396.711 333.869C396.616 336.137 396.853 338.263 397.42 340.437C397.892 340.295 398.317 340.201 398.79 340.059C393.781 325.459 386.458 311.756 377.102 299.471C376.771 299.046 375.921 298.951 375.826 299.66C373.984 311.945 377.953 323.805 383.056 334.814C384.379 337.696 386.127 340.484 387.261 343.366C388.3 345.965 388.206 349.273 388.915 352.013C390.427 357.919 393.025 363.448 396.522 368.409C396.9 368.125 397.278 367.842 397.656 367.558C396.427 366.188 394.348 366.424 393.167 367.747C391.277 369.826 392.6 373.276 393.356 375.544C395.577 381.828 399.357 387.451 404.271 391.939C404.932 392.601 405.925 391.609 405.263 390.994Z" fill="white"/>
<path d="M269.608 372.944C267.293 371.196 265.214 369.164 263.513 366.802C262.852 365.904 262.238 364.912 261.671 363.967C261.387 363.4 261.056 362.88 260.82 362.313C260.584 361.84 258.552 356.359 261.34 357.588C261.954 357.871 262.663 357.304 262.332 356.596C261.718 355.462 256.473 347.335 259.213 346.673C259.686 346.579 259.828 346.012 259.639 345.634C255.292 337.743 252.221 329.285 250.378 320.449C250.236 320.733 250.047 321.016 249.905 321.3C253.638 320.638 255.481 326.497 256.709 329.096C258.221 332.309 259.733 335.522 261.293 338.688C264.411 345.256 267.482 351.776 270.601 358.344C270.979 359.1 272.066 358.533 271.877 357.777C271.546 356.265 271.593 354.942 272.018 353.43C271.64 353.524 271.215 353.619 270.837 353.761C273.247 355.698 275.184 357.919 276.791 360.612C277.121 361.179 277.877 360.99 278.066 360.423C279.578 360.045 280.571 360.376 281.09 361.462C281.327 361.888 281.563 362.36 281.799 362.785C282.366 363.825 282.886 364.864 283.453 365.857C284.54 367.936 285.626 369.967 286.713 372.046C287.138 372.85 288.367 372.141 287.942 371.338C286.855 369.259 285.768 367.227 284.681 365.148C283.736 363.352 282.886 361.132 281.515 359.572C280.098 357.966 277.594 357.777 276.696 359.998C277.121 359.95 277.547 359.903 277.972 359.809C276.318 357.068 274.286 354.706 271.782 352.674C271.357 352.343 270.743 352.438 270.601 353.005C270.128 354.753 270.081 356.359 270.459 358.108C270.884 357.919 271.309 357.73 271.735 357.541C268.002 349.603 264.222 341.617 260.442 333.679C258.741 330.136 257.324 326.119 255.103 322.859C253.733 320.875 251.984 319.363 249.433 319.835C249.055 319.882 248.866 320.355 248.96 320.686C250.803 329.616 253.969 338.215 258.363 346.201C258.505 345.87 258.647 345.492 258.788 345.161C253.733 346.437 260.017 355.225 261.056 357.163C261.387 356.832 261.718 356.501 262.048 356.17C260.82 355.651 259.544 355.934 258.788 357.115C257.702 358.816 258.694 360.943 259.45 362.502C261.576 367.085 264.883 370.96 268.9 374.031C269.608 374.74 270.317 373.511 269.608 372.944Z" fill="white"/>
<path d="M77.49 171.471C83.1128 165.045 91.9485 169.25 98.2328 172.038C103.997 174.589 110.612 176.621 116.377 172.935C121.858 169.392 124.929 163.249 131.686 161.737C139.813 159.894 147.562 164.005 154.177 168.21C154.933 168.683 155.642 167.454 154.886 166.982C148.46 162.918 141.23 159.138 133.387 159.989C130.174 160.367 127.197 161.501 124.646 163.485C122.094 165.47 120.015 168.069 117.558 170.195C110.093 176.621 102.013 171.943 94.311 168.777C88.5465 166.368 81.081 165.186 76.4505 170.478C75.8835 171.187 76.8758 172.179 77.49 171.471Z" fill="white"/>
<path d="M57.5978 259.072C60.5745 255.906 65.016 259.403 67.284 261.623C69.2685 263.561 71.5365 265.876 74.466 266.159C77.0648 266.443 79.1438 265.025 80.9393 263.277C83.4908 260.82 85.806 258.647 89.3498 257.654C92.8935 256.709 96.8153 256.946 100.17 258.599C102.816 259.922 105.226 262.474 108.392 262.19C111.179 261.954 112.833 259.497 114.581 257.654C117.416 254.63 121.574 253.071 125.732 253.591C132.678 254.441 138.773 260.442 146.05 258.269C146.9 258.032 146.569 256.662 145.672 256.898C138.726 258.93 132.631 252.977 125.921 252.173C122.803 251.795 119.59 252.457 116.897 254.016C115.574 254.772 114.392 255.764 113.353 256.898C112.124 258.221 110.943 260.017 109.195 260.631C105.746 261.812 101.966 257.607 98.847 256.568C96.012 255.623 92.9408 255.481 90.0113 256.095C87.1763 256.662 84.5775 257.985 82.404 259.875C79.4273 262.568 76.6868 266.443 72.2453 263.891C68.1345 261.576 61.8975 252.362 56.6055 258.08C55.944 258.741 56.9363 259.781 57.5978 259.072Z" fill="white"/>
<path d="M110.518 246.598C113.117 244.519 116.141 242.251 119.543 241.967C122.661 241.731 125.165 243.432 127.575 245.18C130.883 247.543 135.513 250.425 139.482 247.685C140.711 246.834 141.608 245.322 143.073 244.897C145.152 244.283 147.184 245.747 148.743 246.881C150.491 248.204 152.192 249.669 154.413 250.047C157.201 250.52 160.225 249.386 162.965 248.771C166.32 248.015 169.675 247.259 173.03 246.503C173.927 246.314 173.549 244.944 172.652 245.133C169.155 245.936 165.611 246.74 162.115 247.543C158.477 248.346 155.075 249.575 151.72 247.307C149.452 245.795 147.42 243.621 144.538 243.385C142.317 243.196 141.089 244.377 139.576 245.747C134.048 250.709 128.473 242.818 123.417 241.07C118.267 239.227 113.4 242.44 109.526 245.558C108.817 246.173 109.809 247.165 110.518 246.598Z" fill="white"/>
<path d="M633.245 209.743C634.52 205.632 639.529 206.908 642.269 208.42C644.868 209.837 647.325 211.822 650.396 212.153C652.948 212.436 655.027 211.302 657.2 210.074C660.555 208.136 664.288 207.333 668.068 208.514C670.525 209.27 672.604 211.302 675.25 211.491C677.801 211.727 679.691 210.026 681.723 208.751C687.062 205.396 692.827 210.074 698.544 208.656C699.442 208.42 699.064 207.05 698.166 207.286C692.26 208.751 686.732 203.931 681.014 207.522C679.739 208.325 678.51 209.412 677.045 209.885C674.825 210.593 672.982 209.223 671.092 208.231C668.493 206.908 665.705 206.246 662.776 206.577C659.705 206.908 657.484 208.42 654.791 209.79C650.302 212.058 646.853 209.27 643.025 207.191C639.387 205.207 633.481 204.356 631.922 209.365C631.638 210.215 633.008 210.593 633.245 209.743Z" fill="white"/>
<path d="M657.106 203.837C659.232 201.852 661.547 199.726 664.335 198.781C666.934 197.883 669.533 198.403 672.037 199.301C676.006 200.766 679.928 203.317 684.369 202.656C688.433 202.041 692.59 197.6 696.796 198.781C698.969 199.395 700.292 201.144 702.702 201.38C705.206 201.616 707.663 200.813 709.979 200.01C710.829 199.726 710.451 198.356 709.601 198.639C706.624 199.679 703.269 200.86 700.292 199.159C698.497 198.12 697.126 197.033 694.906 197.269C690.039 197.742 686.495 202.089 681.298 201.285C676.809 200.577 673.029 197.458 668.446 196.986C663.437 196.466 659.563 199.726 656.114 202.892C655.452 203.459 656.444 204.451 657.106 203.837Z" fill="white"/>
<path d="M198.403 59.6294C199.442 55.8494 204.356 56.4636 207.144 57.6449C209.932 58.8734 212.578 60.6689 215.743 60.7161C221.697 60.8579 226.327 54.6681 232.281 55.7076C235.069 56.1801 237.337 58.2591 240.172 58.5899C243.337 58.9679 245.18 56.6526 247.59 55.0461C250.425 53.1561 253.969 52.4474 257.371 52.8254C259.119 53.0144 260.82 53.5341 262.332 54.3374C263.749 55.0461 264.931 56.1801 266.395 56.8416C269.278 58.1174 271.168 56.3691 273.483 54.8571C278.019 51.9276 282.933 55.7076 286.335 58.6844C286.996 59.2986 288.036 58.3064 287.327 57.6921C284.776 55.4241 281.846 53.1089 278.397 52.4946C274.995 51.8804 273.2 53.6759 270.459 55.2351C268.002 56.6526 266.254 55.0934 264.222 53.8176C262.899 52.9671 261.481 52.3529 259.969 51.9276C257.087 51.1244 253.969 51.1244 251.087 51.9276C249.575 52.3529 248.157 52.9671 246.834 53.8176C245.228 54.8571 243.81 56.6054 241.873 57.0779C238.423 57.9284 235.21 54.5264 231.808 54.1956C224.957 53.5814 219.949 61.1414 212.956 58.7316C209.507 57.5504 206.482 54.9989 202.608 55.2351C200.056 55.3769 197.694 56.6054 197.032 59.2041C196.796 60.1491 198.119 60.5271 198.403 59.6294Z" fill="white"/>
<path d="M264.364 45.9745C266.821 43.8483 270.081 42.9978 273.247 43.7065C275.987 44.3208 277.594 46.3053 279.956 47.581C283.689 49.5655 286.855 47.1085 289.879 45.0295C292.1 43.5175 294.32 42.3835 296.919 43.612C299.045 44.6043 300.746 45.88 303.203 45.7855C308.637 45.5965 314.402 38.8398 319.741 42.5725C320.497 43.0923 321.206 41.8638 320.45 41.344C315.394 37.8003 310.102 42.6198 305.282 43.99C303.156 44.6043 301.455 44.368 299.47 43.3758C298.289 42.7615 297.25 42.0528 295.927 41.7693C294.037 41.344 292.241 41.9583 290.587 42.9033C288.603 44.0373 286.855 45.7855 284.681 46.5888C281.232 47.8645 279.248 44.935 276.602 43.4703C272.349 41.0605 267.01 41.8638 263.419 44.9823C262.663 45.5493 263.655 46.5415 264.364 45.9745Z" fill="white"/>
<path d="M342.373 209.932C346.47 209.932 349.792 206.611 349.792 202.514C349.792 198.417 346.47 195.096 342.373 195.096C338.277 195.096 334.955 198.417 334.955 202.514C334.955 206.611 338.277 209.932 342.373 209.932Z" fill="white" stroke="#E8E8E8" stroke-miterlimit="10"/>
<path d="M107.494 334.861C110.834 334.861 113.542 332.153 113.542 328.813C113.542 325.472 110.834 322.765 107.494 322.765C104.154 322.765 101.446 325.472 101.446 328.813C101.446 332.153 104.154 334.861 107.494 334.861Z" fill="white" stroke="#E8E8E8" stroke-miterlimit="10"/>
<path d="M458.608 38.9816C461.401 38.9816 463.664 36.7181 463.664 33.9259C463.664 31.1337 461.401 28.8701 458.608 28.8701C455.816 28.8701 453.553 31.1337 453.553 33.9259C453.553 36.7181 455.816 38.9816 458.608 38.9816Z" fill="white" stroke="#E8E8E8" stroke-miterlimit="10"/>
<path d="M216.263 108.108C217.881 108.108 219.193 106.796 219.193 105.179C219.193 103.561 217.881 102.249 216.263 102.249C214.645 102.249 213.334 103.561 213.334 105.179C213.334 106.796 214.645 108.108 216.263 108.108Z" fill="#A9DFE7"/>
<path d="M342.752 288.037C346.3 288.037 349.178 285.16 349.178 281.611C349.178 278.062 346.3 275.185 342.752 275.185C339.203 275.185 336.326 278.062 336.326 281.611C336.326 285.16 339.203 288.037 342.752 288.037Z" fill="#A9DFE7"/>
<path d="M623.889 80.987C626.629 80.987 628.85 78.7657 628.85 76.0257C628.85 73.2857 626.629 71.0645 623.889 71.0645C621.149 71.0645 618.928 73.2857 618.928 76.0257C618.928 78.7657 621.149 80.987 623.889 80.987Z" fill="#A9DFE7"/>
<path d="M119.732 328.435C121.924 328.435 123.701 326.658 123.701 324.466C123.701 322.274 121.924 320.497 119.732 320.497C117.539 320.497 115.763 322.274 115.763 324.466C115.763 326.658 117.539 328.435 119.732 328.435Z" fill="#A9DFE7"/>
<path d="M452.277 263.372C453.451 263.372 454.403 262.42 454.403 261.245C454.403 260.071 453.451 259.119 452.277 259.119C451.103 259.119 450.151 260.071 450.151 261.245C450.151 262.42 451.103 263.372 452.277 263.372Z" fill="#A9DFE7"/>
<path d="M381.024 162.257C383.79 162.257 386.033 160.015 386.033 157.249C386.033 154.483 383.79 152.24 381.024 152.24C378.258 152.24 376.016 154.483 376.016 157.249C376.016 160.015 378.258 162.257 381.024 162.257Z" fill="#E5C7C1"/>
<path d="M410.744 67.8037C412.884 67.8037 414.619 66.069 414.619 63.9292C414.619 61.7894 412.884 60.0547 410.744 60.0547C408.604 60.0547 406.87 61.7894 406.87 63.9292C406.87 66.069 408.604 67.8037 410.744 67.8037Z" fill="#E5C7C1"/>
<path d="M401.342 116.566C402.665 115.149 404.555 114.771 406.256 115.716C407.153 116.188 407.862 116.944 408.854 117.275C410.366 117.795 411.831 117.228 413.201 116.519C415.847 115.149 417.596 113.826 420.525 115.48C422.084 116.377 423.691 117.275 425.533 116.614C427.99 115.716 429.313 113.731 432.148 113.495C433.755 113.353 435.362 113.684 436.779 114.44C437.677 114.913 438.48 115.621 439.472 115.905C441.126 116.425 442.213 115.716 443.488 114.724C446.182 112.645 449.442 112.267 452.419 114.015C453.222 114.487 453.931 113.259 453.128 112.786C451.19 111.652 449.064 111.18 446.843 111.558C445.709 111.747 444.575 112.172 443.583 112.834C442.118 113.779 441.315 115.196 439.142 114.251C436.921 113.259 435.362 112.078 432.81 112.078C430.117 112.078 428.321 113.212 426.148 114.629C422.982 116.661 421.281 113.448 418.304 113.164C416.32 112.975 414.666 114.109 413.012 115.054C411.406 115.952 410.036 116.425 408.335 115.48C407.342 114.913 406.539 114.157 405.405 113.92C403.515 113.542 401.672 114.251 400.349 115.621C399.688 116.188 400.68 117.228 401.342 116.566Z" fill="#E5C7C1"/>
<path d="M426.951 108.392C428.652 107.116 430.731 106.502 432.857 107.022C434.275 107.352 435.267 108.345 436.637 108.864C439 109.715 440.701 108.25 442.638 107.069C444.67 105.84 445.804 106.077 447.835 107.163C449.017 107.825 450.056 108.156 451.474 108.061C454.12 107.872 459.27 104.517 460.924 108.203C461.302 109.053 462.53 108.297 462.152 107.494C461.113 105.226 458.42 104.848 456.199 105.321C453.458 105.935 451.379 107.4 448.544 105.935C447.174 105.226 446.087 104.376 444.481 104.706C443.158 104.943 442.071 105.793 440.984 106.502C440.228 106.974 439.425 107.636 438.527 107.683C437.204 107.778 436.212 106.88 435.078 106.313C432.243 104.895 428.841 105.321 426.337 107.163C425.533 107.73 426.242 108.959 426.951 108.392Z" fill="#E5C7C1"/>
<path d="M104.612 140.569C107.683 138.632 111.179 139.482 114.251 141.041C116.471 142.175 118.503 144.349 120.913 144.963C125.874 146.239 126.63 139.057 130.694 137.828C135.419 136.411 138.773 142.601 143.215 139.293C145.719 137.45 147.751 136.316 150.964 136.505C153.941 136.694 156.776 137.687 159.516 138.726C160.367 139.057 160.745 137.687 159.894 137.356C155.405 135.655 149.924 133.859 145.294 136.08C144.113 136.647 143.309 137.498 142.27 138.206C140.333 139.529 139.01 138.773 137.167 137.734C135.182 136.6 133.245 135.844 130.93 136.316C128.851 136.742 127.197 137.97 126.016 139.671C125.307 140.663 124.787 141.939 123.89 142.837C121.905 144.68 119.921 142.979 118.22 141.797C114.062 138.962 108.581 136.364 103.808 139.34C103.147 139.86 103.856 141.089 104.612 140.569Z" fill="#E5C7C1"/>
<path d="M112.597 465.932C115.904 470.09 121.385 476.516 128.898 483.462C146.617 499.952 170.005 514.174 261.292 542.241C269.419 544.745 280.57 548.1 293.942 551.974C302.353 545.832 315.535 536.524 332.309 526.223C358.911 509.875 370.298 505.764 385.229 496.031C399.924 486.439 419.911 470.137 439.142 441.504C407.437 434.747 373.133 425.628 336.987 413.296C319.41 407.295 302.683 400.963 286.855 394.49C228.784 418.304 170.714 442.118 112.597 465.932Z" fill="white" stroke="#3F4B4D" stroke-width="3" stroke-miterlimit="10"/>
<path d="M261.009 484.549C263.608 479.966 267.482 476.516 272.302 474.343C273.152 473.965 272.396 472.736 271.593 473.114C266.584 475.335 262.521 479.021 259.78 483.793C259.308 484.643 260.537 485.352 261.009 484.549Z" fill="#3F4B4D"/>
<path d="M260.253 484.973C261.859 486.816 264.316 486.155 265.923 484.69C267.293 483.462 268.333 481.855 269.561 480.532C271.026 478.973 272.632 477.555 274.333 476.185C275.042 475.618 274.05 474.626 273.341 475.193C271.451 476.705 269.656 478.311 268.049 480.107C266.632 481.666 263.608 486.533 261.293 483.934C260.631 483.272 259.639 484.312 260.253 484.973Z" fill="#3F4B4D"/>
<path d="M272.113 474.248C272.68 474.721 273.294 475.24 273.861 475.713C274.144 475.949 274.57 475.996 274.853 475.713C275.09 475.477 275.137 474.957 274.853 474.721C274.286 474.248 273.672 473.728 273.105 473.256C272.822 473.02 272.396 472.972 272.113 473.256C271.877 473.492 271.829 474.012 272.113 474.248Z" fill="#3F4B4D"/>
<path d="M262.001 479.965C261.198 479.162 261.198 478.453 262.001 477.886C262.379 477.508 262.804 477.177 263.23 476.894C263.797 476.469 264.364 476.043 264.883 475.618C265.734 475.004 268.474 472.452 269.136 474.39C269.419 475.24 270.79 474.862 270.506 474.012C269.136 470.09 264.789 473.964 263.041 475.287C261.812 476.232 259.97 477.272 259.828 479.02C259.733 480.201 260.442 481.194 261.576 481.43C262.521 481.477 262.899 480.107 262.001 479.965Z" fill="#3F4B4D"/>
<path d="M264.978 485.683C268.096 488.565 269.42 492.629 271.924 495.936C273.956 498.629 276.696 500.756 279.815 502.079C286.76 505.055 294.698 503.496 300.321 498.488C300.982 497.873 299.99 496.881 299.329 497.496C293.564 502.599 285.201 503.685 278.492 499.811C275.42 498.063 273.2 495.511 271.404 492.44C269.798 489.652 268.427 486.817 266.018 484.643C265.309 484.076 264.316 485.069 264.978 485.683Z" fill="#3F4B4D"/>
<path d="M273.719 477.32C277.169 477.414 280.618 477.509 284.067 477.603C287.705 477.698 291.249 478.029 294.368 480.108C299.849 483.793 304.148 491.589 299.329 497.543C298.762 498.252 299.754 499.244 300.321 498.535C304.904 492.912 302.495 485.447 297.628 480.864C291.155 474.863 281.941 476.091 273.767 475.902C272.774 475.902 272.822 477.32 273.719 477.32Z" fill="#3F4B4D"/>
<path d="M269.042 480.816C272.255 482.517 275.42 484.312 278.444 486.297C281.704 488.423 282.744 492.345 284.256 495.747C284.634 496.597 285.863 495.841 285.485 495.038C284.162 492.108 283.169 488.092 280.523 486.013C277.31 483.462 273.389 481.477 269.75 479.587C268.947 479.162 268.238 480.39 269.042 480.816Z" fill="#3F4B4D"/>
<path d="M280.948 487.1C284.209 486.769 287.469 486.438 290.729 486.108C291.627 486.013 291.627 484.596 290.729 484.69C287.469 485.021 284.209 485.352 280.948 485.682C280.051 485.777 280.051 487.194 280.948 487.1Z" fill="#3F4B4D"/>
<path d="M281.09 487.809C283.783 488.612 286.382 489.699 288.839 491.022C289.642 491.447 290.351 490.218 289.548 489.793C286.996 488.376 284.303 487.242 281.468 486.438C280.618 486.202 280.24 487.572 281.09 487.809Z" fill="#3F4B4D"/>
<path d="M193.536 471.414C197.127 473.682 202.561 476.658 209.648 478.548C216.688 480.438 232.564 484.644 244.188 475.524C253.307 468.39 255.15 456.624 254.677 456.388C254.299 456.199 252.41 463.901 245.653 468.012C239.18 471.981 232.612 469.902 223.162 469.146C216.121 468.579 206.057 468.579 193.536 471.414Z" fill="#E5C7C1"/>
<path d="M361.463 463.617C365.526 460.593 369.542 457.569 373.606 454.498C374.315 453.978 373.606 452.702 372.897 453.269C368.834 456.293 364.817 459.317 360.754 462.388C359.998 462.908 360.707 464.137 361.463 463.617Z" fill="#3F4B4D"/>
<path d="M364.061 474.437C375.401 465.129 386.788 455.774 398.128 446.465C398.837 445.898 397.845 444.906 397.136 445.473C385.796 454.781 374.409 464.137 363.069 473.445C362.36 474.012 363.4 475.004 364.061 474.437Z" fill="#3F4B4D"/>
<path d="M387.497 466.546C390.899 462.908 394.538 459.601 398.507 456.577C399.215 456.01 398.507 454.781 397.798 455.348C393.734 458.419 390.002 461.821 386.505 465.554C385.844 466.216 386.836 467.208 387.497 466.546Z" fill="#3F4B4D"/>
<path d="M295.029 449.725C309.015 441.504 322.529 432.526 335.428 422.793C336.137 422.273 335.428 420.997 334.719 421.564C321.773 431.298 308.259 440.322 294.32 448.497C293.517 448.969 294.226 450.198 295.029 449.725Z" fill="#3F4B4D"/>
<path d="M288.698 445.568C294.368 442.544 299.565 438.716 304.101 434.133C304.762 433.472 303.723 432.48 303.109 433.141C298.62 437.63 293.564 441.363 287.989 444.339C287.186 444.765 287.894 445.993 288.698 445.568Z" fill="#3F4B4D"/>
<path d="M272.916 439.519C282.366 432.007 292.052 424.777 301.927 417.832C302.683 417.312 301.975 416.083 301.219 416.603C291.249 423.596 281.468 430.92 271.924 438.527C271.168 439.094 272.207 440.086 272.916 439.519Z" fill="#3F4B4D"/>
<path d="M189.803 326.688C176.337 330.515 164.761 335.003 155.311 339.209C143.451 344.501 126.205 352.297 107.635 367.417C100.075 373.559 94.4527 380.222 83.2545 393.499C79.0492 398.46 74.7495 403.847 74.3715 411.454C74.277 413.486 73.9935 419.439 77.7735 423.881C84.105 431.299 97.0987 428.984 103.477 427.897C110.234 426.716 115.054 424.495 117.085 423.597C145.483 410.745 140.569 415.376 164.288 403.658C182.905 394.491 192.213 389.861 196.985 385.136C201.427 380.694 219.571 362.645 213.239 345.209C208.467 332.263 193.111 327.632 189.803 326.688Z" fill="white"/>
<path opacity="0.22" d="M201.946 331.271C199.206 334.436 194.67 339.398 188.527 344.926C158.24 372.142 134.757 371.386 112.455 392.601C105.415 399.263 96.1065 410.462 89.1607 428.984C92.421 429.031 97.4767 428.889 103.525 427.897C116.093 425.818 124.834 421.282 129.607 418.872C162.729 402.24 170.336 405.075 190.606 389.955C199.915 383.009 204.64 379.418 207.711 372.425C215.176 355.368 204.97 336.515 201.946 331.271Z" fill="#969696"/>
<path d="M189.614 326.026C170.998 332.31 152.287 338.641 134.946 347.997C119.07 356.549 104.706 367.7 92.61 381.072C86.6565 387.64 80.514 394.822 76.5922 402.854C73.3792 409.375 71.1112 418.825 77.301 424.353C83.5852 429.976 93.0352 430.495 100.973 429.172C110.848 427.471 120.487 423.266 129.796 419.628C150.822 411.359 171.281 401.673 190.984 390.616C191.788 390.191 191.079 388.963 190.276 389.388C173.785 398.602 156.775 406.918 139.293 414.241C130.552 417.927 121.669 421.376 112.691 424.495C103.855 427.566 94.122 430.117 84.9082 427.046C62.2755 419.533 83.538 393.404 92.5155 383.293C103.903 370.488 117.322 359.62 132.205 351.163C150.397 340.862 170.242 334.105 189.992 327.443C190.843 327.112 190.465 325.742 189.614 326.026Z" fill="#3F4B4D"/>
<path d="M214.798 398.176C216.121 396.901 218.2 395.058 221.083 393.357C225.288 390.853 227.461 390.805 235.777 387.97C242.912 385.513 245.889 383.954 248.44 382.253C250.567 380.836 254.583 378.142 254.063 376.63C253.449 374.835 246.598 375.685 239.038 376.63C232.753 377.386 232.517 377.859 227.083 378.426C219.051 379.229 218.484 378.284 215.554 379.465C210.451 381.497 204.498 387.309 206.104 392.317C207.522 396.759 214.184 398.035 214.798 398.176Z" fill="#3F4B4D"/>
<path d="M196.985 328.672C193.158 330.656 189.898 333.066 189.898 333.066C184.039 337.366 180.211 342.043 177.943 345.209C178.274 347.146 178.558 349.131 178.888 351.068C167.548 356.549 158.476 361.558 152.287 365.101C135.135 374.929 125.165 382.773 105.226 398.46C98.7525 403.516 91.665 409.327 89.208 418.919C88.5937 421.376 87.1762 427.093 89.775 433.283C92.7517 440.418 98.9887 443.489 100.879 444.34C104.989 446.182 108.911 446.324 115.195 445.71C128.945 444.387 139.482 440.796 143.451 439.426C157.437 434.464 167.596 429.456 170.053 428.227C181.487 422.51 197.032 413.911 214.893 401.389C214.987 400.87 215.554 397.893 213.617 395.247C211.963 392.979 209.081 391.798 206.199 392.223C209.223 390.711 213.428 388.301 217.775 384.521C225.902 377.434 229.777 369.732 232.234 364.723C233.651 361.841 237.62 353.242 239.179 341.193C240.124 333.727 239.841 327.443 239.321 322.907C237.573 322.86 210.971 321.442 196.985 328.672Z" fill="white"/>
<path opacity="0.21" d="M229.115 331.931C224.012 344.925 217.822 353.572 213.853 358.439C189.898 387.97 155.311 394.018 115.101 427.754C110.423 431.676 105.651 435.976 106.643 437.913C108.958 442.496 142.364 430.117 160.083 422.699C183.566 412.871 201.71 402.381 213.57 394.868C211.538 393.546 209.459 392.223 207.427 390.947C210.64 389.435 215.224 386.883 219.76 382.678C225.76 377.15 228.69 371.621 231.43 366.235C234.643 359.951 239.085 351.162 239.321 339.208C239.416 334.2 238.754 330.089 238.187 327.396C235.21 328.86 232.186 330.372 229.115 331.931Z" fill="#9E9E9E"/>
<path d="M239.321 328.388C239.132 349.981 231.903 371.953 214.893 386.128C206.104 393.404 195.048 397.231 184.7 401.673C173.502 406.492 162.304 411.265 151.105 416.084C138.49 421.518 125.827 426.904 113.211 432.338C112.36 432.716 113.116 433.897 113.92 433.567C137.167 423.597 160.414 413.627 183.661 403.657C194.245 399.121 205.585 395.294 214.704 388.112C222.406 382.017 228.548 374.032 232.801 365.196C238.282 353.761 240.644 341.098 240.739 328.435C240.739 327.49 239.321 327.49 239.321 328.388Z" fill="#3F4B4D"/>
<path d="M177.235 345.256C177.235 347.383 177.518 349.32 178.18 351.304C178.274 351.021 178.416 350.785 178.51 350.501C161.689 358.77 145.152 367.747 129.654 378.379C122.188 383.482 114.959 389.01 108.108 394.916C101.682 400.492 94.689 406.492 90.531 414.052C87.0345 420.384 86.2312 427.66 89.3497 434.323C92.5627 441.221 98.9887 445.615 106.454 446.513C115.337 447.6 124.882 445.332 133.434 443.158C142.175 440.938 150.68 437.866 158.949 434.228C178.416 425.77 196.418 414.383 214.279 403.09C215.035 402.618 214.326 401.389 213.57 401.862C184.369 420.384 153.799 439.662 118.881 444.623C109.998 445.899 100.406 445.899 93.933 438.764C88.2157 432.433 87.318 423.691 91.0035 416.084C94.5945 408.713 101.162 402.949 107.21 397.562C113.872 391.609 120.96 386.128 128.284 381.025C144.349 369.779 161.595 360.376 179.172 351.73C179.455 351.588 179.597 351.21 179.503 350.926C178.888 349.036 178.605 347.194 178.605 345.256C178.652 344.359 177.235 344.359 177.235 345.256Z" fill="#3F4B4D"/>
<path d="M207.569 392.648C212.152 392.742 215.271 396.853 214.137 401.247C213.901 402.145 215.271 402.523 215.507 401.625C216.877 396.286 213.097 391.325 207.569 391.23C206.671 391.23 206.671 392.648 207.569 392.648Z" fill="#3F4B4D"/>
<path d="M215.743 397.988C218.531 395.956 220.941 394.019 224.248 392.932C227.556 391.845 230.863 390.664 234.124 389.341C240.408 386.837 246.598 384.002 252.598 380.883C253.402 380.458 252.693 379.229 251.89 379.655C245.464 383.009 238.896 386.033 232.139 388.632C228.879 389.861 225.571 390.9 222.311 392.081C219.571 393.074 217.35 395.058 215.035 396.759C214.326 397.279 215.035 398.507 215.743 397.988Z" fill="#3F4B4D"/>
<path d="M223.965 378.71C229.068 379.608 233.982 378.521 238.943 377.34C241.778 376.678 244.613 375.969 247.495 375.733C248.818 375.639 250.425 375.402 251.701 375.733C255.15 376.631 252.504 379.419 250.756 380.6C250 381.12 250.708 382.348 251.464 381.828C253.354 380.553 255.811 378.474 254.536 375.875C253.449 373.701 249.858 374.127 247.873 374.268C239.935 374.835 232.375 378.757 224.343 377.34C223.445 377.198 223.067 378.568 223.965 378.71Z" fill="#3F4B4D"/>
<path d="M258.363 225.43C257.229 226.564 255.622 228.359 254.205 230.863C252.173 234.407 250.945 238.754 251.701 253.213C252.268 263.891 253.543 272.302 254.536 278.066C255.386 282.886 256.237 286.807 256.851 289.548C262.474 314.118 273.058 343.271 276.979 353.855C279.909 361.793 283.972 372.519 289.123 385.229C286.855 387.214 283.783 390.285 281.137 394.774C279.72 397.136 277.641 400.68 278.539 401.625C279.295 402.381 282.177 401.578 291.816 394.726C297.344 396.9 301.597 399.121 304.479 400.822C308.637 403.231 312.181 405.736 317.756 406.492C319.315 406.728 320.638 406.728 321.536 406.728C320.686 405.027 319.174 402.428 316.528 399.924C313.362 396.947 309.771 395.813 309.865 395.577C309.96 395.388 312.889 396.711 316.858 397.939C320.355 399.026 324.182 399.262 331.884 399.735C332.971 399.782 334.577 399.877 335.286 398.932C336.089 397.798 335.191 395.86 334.861 395.057C332.498 389.954 323.899 386.788 320.78 385.702C322.009 386.269 325.127 387.403 329.096 386.788C332.734 386.221 335.239 384.473 336.278 383.575C334.199 383.15 332.026 382.725 329.805 382.394C318.748 380.646 308.542 380.457 299.47 381.118C298.1 377.622 296.163 371.999 294.604 364.864C292.903 357.21 293.281 355.225 291.391 343.933C289.879 334.861 288.934 329.521 286.618 322.812C284.445 316.622 281.988 311.803 280.098 308.542C273.199 277.877 270.506 263.844 269.514 257.04C268.805 252.126 267.907 248.677 266.159 241.731C265.403 238.754 264.6 235.872 262.852 232.375C261.34 229.304 259.639 226.989 258.363 225.43Z" fill="white"/>
<path opacity="0.11" d="M258.363 225.43C259.969 225.524 260.347 234.076 261.34 244.897C261.34 244.897 262.71 259.875 269.325 296.163C276.271 334.388 291.107 374.503 296.352 388.206C304.337 394.348 312.37 400.538 320.355 406.681C318.371 406.728 315.205 406.633 311.614 405.452C308.259 404.365 306.463 402.948 301.36 399.971C299.376 398.79 296.305 397.089 292.43 395.104C284.256 400.585 279.626 402.759 278.539 401.625C277.31 400.302 280.901 394.49 289.359 384.237C287.942 381.213 286.004 376.913 283.783 371.716C279.909 362.738 270.459 339.869 260.111 301.691C251.606 270.317 251.37 261.151 251.748 253.969C252.504 240.172 256.189 225.241 258.363 225.43Z" fill="#686868"/>
<path d="M257.843 225.902C260.584 228.123 261.954 231.383 263.182 234.596C264.411 237.857 265.356 241.211 266.207 244.613C267.955 251.795 269.278 259.072 270.79 266.301C273.814 281.043 276.838 295.738 279.862 310.48C280.051 311.378 281.421 311 281.232 310.102C278.066 294.793 274.9 279.437 271.782 264.128C270.27 256.804 268.947 249.386 267.057 242.156C265.545 236.392 263.797 228.832 258.883 224.957C258.174 224.343 257.134 225.335 257.843 225.902Z" fill="#3F4B4D"/>
<path d="M253.685 279.673C262.332 315.583 274.003 350.69 288.556 384.662C288.934 385.513 290.115 384.757 289.784 383.954C275.278 350.123 263.655 315.11 255.055 279.295C254.819 278.444 253.496 278.822 253.685 279.673Z" fill="#3F4B4D"/>
<path d="M280.145 309.724C292.525 331.412 290.493 357.541 298.147 380.788C298.431 381.639 299.801 381.261 299.518 380.41C291.816 357.021 293.848 330.845 281.374 309.015C280.901 308.212 279.673 308.921 280.145 309.724Z" fill="#3F4B4D"/>
<path d="M288.65 384.71C285.957 387.923 283.122 391.089 280.523 394.443C279.2 396.144 277.121 398.696 277.594 401.058C278.066 403.279 279.814 402.665 281.232 401.814C284.87 399.688 288.508 397.467 292.147 395.294C292.95 394.821 292.241 393.593 291.438 394.065C289.217 395.388 286.996 396.711 284.823 398.034C283.642 398.743 282.46 399.405 281.326 400.113C281.09 400.255 280.003 401.106 279.767 401.058C279.531 400.633 279.295 400.161 279.106 399.735C279.295 399.216 279.531 398.696 279.767 398.176C280.901 396.003 282.649 394.16 284.209 392.27C286.051 390.096 287.847 387.923 289.69 385.749C290.257 384.993 289.217 384.001 288.65 384.71Z" fill="#3F4B4D"/>
<path d="M299.234 381.497C305.518 381.686 311.803 381.922 318.04 382.253C321.111 382.442 324.135 382.631 327.206 382.82C330.23 383.056 333.254 383.15 336.137 384.237C336.987 384.568 337.365 383.198 336.514 382.867C333.963 381.875 331.317 381.686 328.624 381.497C325.411 381.26 322.198 381.071 318.985 380.882C312.417 380.504 305.849 380.221 299.234 380.079C298.336 380.079 298.336 381.497 299.234 381.497Z" fill="#3F4B4D"/>
<path d="M292.241 395.767C302.494 398.602 310.432 407.721 321.583 407.39C322.056 407.39 322.387 406.965 322.245 406.492C320.686 400.397 314.26 398.224 310.338 393.971C309.724 393.31 308.731 394.302 309.346 394.963C313.078 398.98 319.41 401.106 320.875 406.87C321.111 406.587 321.347 406.256 321.536 405.973C310.621 406.303 302.636 397.184 292.572 394.396C291.721 394.16 291.343 395.53 292.241 395.767Z" fill="#3F4B4D"/>
<path d="M309.676 395.293C314.685 397.372 319.93 398.932 325.269 399.83C327.584 400.208 329.994 400.538 332.356 400.349C333.727 400.255 335.475 400.113 336.278 398.79C338.074 395.813 333.774 392.931 331.884 391.466C327.962 388.49 323.568 386.269 318.89 384.804C318.04 384.521 317.662 385.891 318.512 386.174C322.056 387.308 325.411 388.82 328.529 390.852C330.041 391.844 331.506 392.931 332.923 394.112C333.538 394.679 334.388 395.294 334.813 396.05C335.995 398.129 334.057 398.837 332.404 398.932C325.033 399.546 316.811 396.664 310.054 393.876C309.204 393.592 308.873 394.963 309.676 395.293Z" fill="#3F4B4D"/>
<path d="M318.654 386.364C324.088 387.025 331.884 389.435 336.231 384.899C336.845 384.237 335.853 383.245 335.239 383.907C333.065 386.175 330.089 386.222 327.159 385.938C324.324 385.655 321.489 385.277 318.654 384.946C317.756 384.852 317.756 386.269 318.654 386.364Z" fill="#3F4B4D"/>
<path d="M312.748 390.38C316.008 392.034 319.552 392.837 323.095 393.735C327.253 394.774 331.081 396.192 334.577 398.649C335.333 399.169 336.042 397.94 335.286 397.42C332.12 395.2 328.718 393.735 324.985 392.743C321.064 391.703 317.095 390.994 313.457 389.152C312.653 388.726 311.945 389.955 312.748 390.38Z" fill="#3F4B4D"/>
<path d="M199.206 222.926C211.113 218.532 221.177 217.634 227.792 217.587C239.132 217.445 252.079 217.303 258.741 225.619C261.292 228.832 262.048 234.408 263.513 245.559C265.025 256.946 265.734 262.616 264.127 269.372C262.19 277.452 259.686 276.224 254.299 288.414C250.33 297.392 250.803 300.132 245.653 314.638C243.385 321.017 241.353 326.073 239.983 329.238C237.148 330.183 234.076 330.987 230.769 331.601C213.428 334.861 198.355 331.034 188.764 327.443C192.26 292.62 195.757 257.796 199.206 222.926Z" fill="#6EC0CC"/>
<path d="M202.372 222.265C200.34 223.115 197.41 224.627 194.528 227.32C192.118 229.541 190.276 231.998 188.527 235.258C184.275 243.102 183.094 250.709 182.621 253.686C179.408 274.712 178.463 283.264 178.463 283.264C176.479 301.597 175.817 308.779 176.006 318.371C176.101 323.947 176.479 328.152 177.613 333.066C178.983 338.878 181.015 343.366 184.842 350.501C190.323 360.849 195.001 368.125 198.166 373.181C201.946 379.182 207.286 387.923 213.523 398.838C214.657 402.004 215.885 405.311 217.161 408.808C226.091 433.047 221.602 418.541 222.784 422.085C223.209 423.408 224.107 426.29 226.753 427.897C227.414 428.322 228.454 428.936 229.068 428.653C230.296 428.038 230.107 423.455 224.579 407.012C224.437 406.54 226.894 413.202 232.753 418.447C234.785 420.242 236.77 421.471 238.282 422.227C239.085 425.959 239.841 429.834 240.55 433.85C241.447 439 242.203 444.009 242.818 448.828C242.44 450.104 241.967 452.089 242.109 454.546C242.203 456.01 242.298 457.948 243.479 460.074C244.093 461.161 245.605 463.901 247.968 464.137C249.244 464.279 250.33 463.523 252.504 462.106C255.386 460.216 255.953 459.034 257.371 459.082C258.127 459.082 259.213 459.46 260.489 461.161C260.442 457.9 259.544 456.766 258.741 456.247C257.418 455.443 256.237 456.483 253.165 456.058C251.984 455.916 250.047 455.632 248.771 454.357C246.928 452.514 247.354 449.395 247.401 448.592C247.779 444.623 246.314 434.228 240.455 410.509C240.928 412.162 242.534 413.202 244.141 412.966C245.842 412.729 247.165 411.17 247.023 409.375C244.046 406.587 241.069 403.799 238.045 401.011C237.667 398.176 237.289 395.294 236.864 392.365C235.352 382.206 233.462 372.52 231.383 363.306C230.107 363.684 228.832 364.062 227.556 364.393C228.406 370.488 229.257 376.583 230.107 382.678C226.942 382.3 223.776 381.875 220.61 381.497C219.334 379.324 217.728 376.394 216.027 372.85C214.704 370.11 212.011 364.487 209.601 357.258C206.53 347.95 204.687 342.469 204.545 335.098C204.451 331.837 204.687 327.16 202.324 321.537C201.427 319.458 200.482 317.851 199.773 316.812C200.812 310.622 201.71 305.33 202.372 301.078C206.86 272.775 204.545 280.807 208.183 253.969C208.845 248.961 209.506 244.567 208.561 238.613C207.522 231.478 204.592 225.808 202.372 222.265Z" fill="white"/>
<path opacity="0.17" d="M199.206 222.926C197.363 226.706 194.906 232.329 192.78 239.416C188.905 252.41 188.433 262.994 188.244 270.459C187.393 301.786 186.921 317.473 189.945 331.365C197.741 367.322 216.925 391.514 224.674 401.106C231.194 409.138 237.337 415.281 241.873 419.533C241.258 420.478 240.03 422.037 238.282 422.226C236.297 422.415 234.691 420.62 232.753 418.446C230.438 415.8 227.509 412.257 224.201 407.957C225.477 411.312 227.131 415.989 228.406 421.848C229.777 428.085 229.257 428.558 229.068 428.652C227.839 429.219 223.681 422.652 221.697 419.155C219.051 414.572 215.838 407.862 213.57 398.79C207.238 387.734 201.852 378.945 198.214 373.134C187.677 356.218 184.039 351.824 180.542 341.618C179.361 338.074 176.762 329.758 176.006 318.843C175.723 314.449 175.864 311.898 177.707 292.667C179.55 273.531 180.164 268.05 181.345 260.537C183.661 245.795 185.314 241.353 187.441 237.337C191.126 230.439 195.851 225.761 199.206 222.926Z" fill="#8E8E8E"/>
<path d="M202.183 221.556C191.835 225.667 186.354 235.778 183.613 246.031C180.259 258.505 178.841 271.641 177.613 284.493C176.337 297.723 174.4 311.378 175.581 324.655C176.715 337.46 182.574 348.233 189 359.101C196.891 372.425 204.781 385.702 212.625 399.027C213.097 399.83 214.326 399.121 213.853 398.318C207.238 387.12 200.623 375.969 194.008 364.771C187.677 354.092 180.4 343.414 177.896 331.081C175.439 318.796 177.14 305.992 178.18 293.612C179.266 280.618 180.589 267.577 183.046 254.725C185.456 242.393 189.661 228.029 202.513 222.926C203.411 222.595 203.033 221.225 202.183 221.556Z" fill="#3F4B4D"/>
<path d="M202.372 223.541C211.538 235.401 207.853 252.269 206.152 265.924C204.025 283.076 201.899 300.18 199.773 317.332C199.678 318.23 201.096 318.23 201.19 317.332C203.411 299.283 205.679 281.186 207.9 263.136C209.554 249.717 212.294 234.078 203.364 222.549C202.797 221.84 201.805 222.832 202.372 223.541Z" fill="#3F4B4D"/>
<path d="M196.229 314.686C201.096 318.088 202.23 324.325 203.128 329.759C204.167 335.854 205.207 341.902 206.577 347.903C209.27 359.763 213.098 371.386 219.571 381.781C220.043 382.537 221.272 381.828 220.799 381.072C213.806 369.874 209.932 357.164 207.239 344.312C205.963 338.217 205.159 332.074 203.884 325.979C202.891 321.159 201.143 316.387 196.938 313.458C196.182 312.938 195.473 314.166 196.229 314.686Z" fill="#3F4B4D"/>
<path d="M220.846 382.631C223.823 382.631 226.753 382.679 229.588 383.624C230.438 383.907 230.816 382.537 229.966 382.253C226.989 381.261 223.918 381.214 220.846 381.214C219.949 381.214 219.949 382.631 220.846 382.631Z" fill="#3F4B4D"/>
<path d="M230.533 390.049C230.344 394.018 233.037 396.948 235.636 399.594C239.132 403.185 242.818 406.634 246.598 409.942C247.259 410.556 248.299 409.564 247.59 408.949C244.471 406.209 241.447 403.421 238.518 400.492C235.683 397.657 231.714 394.444 231.95 390.049C231.997 389.152 230.58 389.152 230.533 390.049Z" fill="#3F4B4D"/>
<path d="M212.861 398.98C214.704 404.224 216.547 409.469 218.767 414.572C219.901 417.124 221.083 419.675 222.406 422.132C223.587 424.306 224.815 427.046 226.564 428.794C227.32 429.55 228.359 430.07 229.351 429.314C230.533 428.369 230.155 426.526 229.871 425.251C228.737 419.297 226.989 413.438 224.91 407.721C224.579 406.87 223.209 407.248 223.54 408.099C225.052 412.162 226.327 416.32 227.367 420.526C227.65 421.66 227.887 422.794 228.17 423.928C228.359 424.731 229.257 427.141 228.69 427.802C227.698 428.889 224.815 423.455 224.485 422.841C220.09 415.186 217.161 406.823 214.231 398.554C213.948 397.751 212.578 398.129 212.861 398.98Z" fill="#3F4B4D"/>
<path d="M224.154 407.957C226.658 411.737 229.162 415.753 232.375 419.014C234.265 420.951 238.093 424.069 241.022 422.699C244.093 421.329 241.967 417.596 240.786 415.753C237.762 411.076 234.691 406.398 231.667 401.673C231.194 400.917 229.966 401.626 230.438 402.382C232.47 405.5 234.502 408.619 236.533 411.737C237.478 413.155 238.376 414.619 239.321 416.037C240.313 417.549 243.054 421.471 239.179 421.376C236.155 421.329 233.462 418.163 231.714 416.037C229.399 413.202 227.414 410.178 225.382 407.107C224.863 406.492 223.634 407.201 224.154 407.957Z" fill="#3F4B4D"/>
<path d="M230.533 402.098C233.557 406.209 237.289 409.989 241.636 412.682C243.054 413.58 244.944 414.336 246.456 413.202C247.543 412.351 247.779 411.123 247.212 409.942C246.787 409.138 245.558 409.847 245.983 410.65C245.18 412.21 244.282 412.635 243.29 411.926C242.959 411.784 242.676 411.643 242.392 411.454C241.825 411.123 241.306 410.745 240.786 410.367C239.605 409.516 238.423 408.571 237.337 407.532C235.258 405.642 233.415 403.563 231.761 401.342C231.194 400.633 229.966 401.342 230.533 402.098Z" fill="#3F4B4D"/>
<path d="M226.611 404.461C229.777 411.123 234.265 416.982 239.935 421.707C240.644 422.274 241.636 421.282 240.928 420.715C235.352 416.037 230.911 410.32 227.792 403.752C227.461 402.949 226.233 403.657 226.611 404.461Z" fill="#3F4B4D"/>
<path d="M226.8 365.811C228.17 374.363 229.54 382.868 230.911 391.42C231.052 392.318 232.423 391.94 232.281 391.042C230.911 382.49 229.54 373.985 228.17 365.433C228.028 364.535 226.658 364.96 226.8 365.811Z" fill="#3F4B4D"/>
<path d="M228.17 365.81C228.784 364.865 230.58 363.258 231.714 364.723C231.95 365.054 231.95 366.141 231.997 366.566C232.234 368.22 232.517 369.921 232.753 371.574C233.226 374.74 233.746 377.953 234.218 381.119C235.21 387.498 236.203 393.876 237.195 400.255C237.337 401.153 238.707 400.775 238.565 399.877C237.195 390.9 235.777 381.969 234.407 372.992C234.076 370.724 233.698 368.456 233.368 366.141C233.226 365.196 233.273 363.731 232.47 363.069C230.674 361.605 227.887 363.542 226.942 365.054C226.469 365.857 227.698 366.566 228.17 365.81Z" fill="#3F4B4D"/>
<path d="M240.219 411.69C242.77 424.684 244.897 437.725 246.645 450.86C246.787 451.758 248.204 451.758 248.062 450.86C246.314 437.63 244.141 424.448 241.542 411.312C241.4 410.414 240.03 410.792 240.219 411.69Z" fill="#3F4B4D"/>
<path d="M237.762 422.416C239.463 431.251 240.928 440.135 242.156 449.065C242.298 449.962 243.668 449.584 243.526 448.687C242.298 439.756 240.833 430.873 239.132 422.038C238.943 421.14 237.573 421.518 237.762 422.416Z" fill="#3F4B4D"/>
<path d="M242.345 449.064C243.148 451.049 245.086 452.372 247.259 452.136C248.157 452.041 248.157 450.624 247.259 450.718C245.794 450.907 244.282 450.151 243.715 448.686C243.385 447.836 242.014 448.214 242.345 449.064Z" fill="#3F4B4D"/>
<path d="M242.44 448.686C240.644 453.411 241.07 459.932 245.086 463.476C246.598 464.846 248.535 465.271 250.425 464.468C252.74 463.523 256.945 457.239 259.45 460.735C259.969 461.491 261.198 460.782 260.678 460.026C258.127 456.388 254.347 459.554 252.032 461.633C250.283 463.192 248.204 464.279 246.078 462.483C244.897 461.491 244.093 459.932 243.574 458.514C242.487 455.396 242.629 452.136 243.81 449.064C244.141 448.214 242.77 447.836 242.44 448.686Z" fill="#3F4B4D"/>
<path d="M247.117 450.813C247.495 453.223 248.818 455.727 251.181 456.672C254.205 457.853 261.151 455.113 259.875 460.972C259.686 461.869 261.056 462.247 261.245 461.35C261.812 458.845 260.867 456.199 258.174 455.585C256.237 455.113 254.299 456.01 252.362 455.585C250 455.018 248.866 452.703 248.488 450.482C248.299 449.537 246.976 449.962 247.117 450.813Z" fill="#3F4B4D"/>
<path d="M221.224 223.54C221.933 225.241 222.831 226.517 224.059 227.415C225.949 228.88 228.123 229.163 229.588 229.163C231.147 227.368 232.706 225.572 234.265 223.777C235.399 224.863 238.376 227.462 242.629 227.604C244.519 227.651 246.456 227.226 249.244 225.761C256.52 221.934 260.914 215.744 263.041 212.389C267.01 205.916 268.38 200.152 269.136 196.655C270.317 191.269 272.207 182.149 268.569 171.896C267.246 168.211 266.632 166.368 265.025 164.809C255.906 155.926 224.107 162.541 214.94 182.764C215.035 182.811 209.506 195.049 221.224 223.54Z" fill="white"/>
<path opacity="0.18" d="M260.064 169.77C260.773 172.652 249.197 174.164 240.077 187.158C233.651 196.372 232.659 205.302 232.47 207.287C231.809 214.469 233.179 220.328 234.313 223.824C232.139 222.501 229.966 221.131 227.84 219.808C225.713 221.273 223.634 222.69 221.508 224.155C218.767 220.989 212.389 212.72 211.208 200.483C210.83 196.419 209.837 186.402 215.555 178.181C227.462 161.076 258.93 165.187 260.064 169.77Z" fill="#8E8E8E"/>
<path d="M226.564 188.481C231.572 187.347 235.589 185.787 238.376 184.512C244.093 181.913 248.062 179.031 251.842 176.29C255.292 173.786 258.08 171.471 260.064 169.723C262.379 170.762 266.821 173.124 268.475 177.802C268.9 179.078 269.136 180.401 268.994 184.795C268.805 189.709 268.711 193.159 267.766 197.6C265.829 207.097 261.529 214.515 258.93 218.484C262.19 216.972 267.151 214.09 271.215 208.751C276.602 201.711 277.452 194.434 278.113 187.772C279.247 176.29 280.334 165.517 273.483 157.957C266.49 150.208 255.056 150.114 245.653 150.066C240.408 150.019 233.793 149.972 226.469 152.949C214.184 158.005 213.948 165.895 196.749 184.181C184.133 197.553 180.259 197.553 177.046 205.821C173.88 213.901 171.518 229.541 181.298 237.999C191.079 246.409 207.144 242.724 216.074 235.022C218.153 233.226 225.382 226.47 225.855 215.413C226.28 205.538 221.083 198.687 219.665 196.938C215.413 191.93 215.129 186.449 217.35 184.464C218.815 183.141 222.028 182.811 224.249 184.464C226.091 185.882 226.469 187.961 226.564 188.481Z" fill="#92ADB3"/>
<path d="M225.382 215.98C227.839 218.815 230.627 221.367 233.651 223.588C236.155 225.43 239.51 228.029 242.723 228.407C245.983 228.785 249.858 226.564 252.504 224.911C255.575 223.021 258.268 220.564 260.536 217.776C265.309 211.728 267.435 204.121 268.663 196.608C270.034 188.292 270.223 179.787 267.813 171.66C267.577 170.809 266.206 171.14 266.443 172.038C268.663 179.503 268.663 187.3 267.529 194.907C266.49 201.947 264.789 209.129 260.773 215.083C257.276 220.327 250.897 225.856 244.471 226.848C240.975 227.368 237.148 224.296 234.454 222.359C231.525 220.233 228.879 217.729 226.469 214.988C225.76 214.279 224.768 215.272 225.382 215.98Z" fill="#3F4B4D"/>
<path d="M255.67 192.072C254.819 195.427 253.969 198.829 253.118 202.184C252.693 203.79 252.315 205.397 251.89 207.003C251.606 208.043 251.37 211.208 250.425 211.87C250.756 212.012 251.134 212.153 251.465 212.295C250.709 210.405 249.858 208.61 248.724 206.861C248.252 206.105 247.023 206.814 247.495 207.57C248.535 209.177 249.385 210.878 250.094 212.673C250.236 213.051 250.708 213.382 251.134 213.098C252.22 212.342 252.268 211.303 252.598 210.027C253.071 208.137 253.543 206.2 254.016 204.31C255.008 200.341 256.001 196.372 256.993 192.403C257.229 191.6 255.906 191.222 255.67 192.072Z" fill="#3F4B4D"/>
<path d="M238.376 207.758C238.896 211.916 242.534 215.129 246.787 214.893C247.684 214.846 247.684 213.428 246.787 213.476C243.385 213.665 240.219 211.16 239.794 207.758C239.652 206.861 238.235 206.861 238.376 207.758Z" fill="#3F4B4D"/>
<path d="M249.048 194.477C249.81 192.421 249.753 190.505 248.921 190.197C248.089 189.889 246.797 191.305 246.035 193.36C245.274 195.416 245.331 197.332 246.163 197.64C246.995 197.949 248.286 196.532 249.048 194.477Z" fill="#3F4B4D"/>
<path d="M262.692 196.601C263.453 194.545 263.396 192.629 262.564 192.321C261.732 192.013 260.44 193.429 259.679 195.484C258.917 197.54 258.974 199.456 259.806 199.764C260.638 200.073 261.93 198.656 262.692 196.601Z" fill="#3F4B4D"/>
<path d="M246.645 183.425C248.11 181.771 250.472 182.055 251.464 184.039C251.89 184.843 253.071 184.134 252.693 183.331C251.323 180.59 247.685 180.118 245.653 182.433C245.039 183.094 246.031 184.087 246.645 183.425Z" fill="#3F4B4D"/>
<path d="M260.725 185.173C262.048 183.803 264.931 182.905 265.781 185.362C266.065 186.213 267.435 185.835 267.152 184.984C265.97 181.535 261.907 181.96 259.733 184.181C259.119 184.795 260.111 185.835 260.725 185.173Z" fill="#3F4B4D"/>
<path d="M221.083 196.655C217.681 195.38 216.358 190.135 217.445 186.969C218.012 185.315 219.665 183.756 221.508 183.756C224.107 183.756 225.524 186.497 225.902 188.717C226.044 189.615 227.414 189.237 227.272 188.339C226.422 183.378 220.799 179.976 217.114 184.654C214.042 188.623 215.98 196.277 220.705 198.026C221.555 198.309 221.933 196.939 221.083 196.655Z" fill="#3F4B4D"/>
<path d="M242.109 197.884C242.062 197.884 242.014 197.884 241.967 197.884C241.589 197.884 241.258 198.215 241.258 198.593C241.258 198.971 241.589 199.301 241.967 199.301C242.014 199.301 242.062 199.301 242.109 199.301C242.487 199.301 242.818 198.971 242.818 198.593C242.818 198.215 242.487 197.884 242.109 197.884Z" fill="#3F4B4D"/>
<path d="M245.417 200.624C246.314 200.624 246.314 199.206 245.417 199.206C244.519 199.206 244.519 200.624 245.417 200.624Z" fill="#3F4B4D"/>
<path d="M242.44 202.939C243.337 202.939 243.337 201.521 242.44 201.521C241.542 201.521 241.542 202.939 242.44 202.939Z" fill="#3F4B4D"/>
<path d="M258.457 203.412C259.355 203.412 259.355 201.994 258.457 201.994C257.56 201.994 257.56 203.412 258.457 203.412Z" fill="#3F4B4D"/>
<path d="M262.615 203.081C263.513 203.081 263.513 201.663 262.615 201.663C261.67 201.663 261.67 203.081 262.615 203.081Z" fill="#3F4B4D"/>
<path d="M259.119 207.05C260.017 207.05 260.017 205.633 259.119 205.633C258.221 205.633 258.221 207.05 259.119 207.05Z" fill="#3F4B4D"/>
<path d="M233.793 223.304C232.234 225.1 230.674 226.895 229.115 228.691C228.501 229.399 229.54 230.392 230.107 229.683C231.667 227.887 233.226 226.092 234.785 224.296C235.399 223.635 234.407 222.643 233.793 223.304Z" fill="#3F4B4D"/>
<path d="M220.61 223.918C222.028 227.273 225.099 229.73 228.69 230.391C229.588 230.58 229.966 229.21 229.068 229.021C225.76 228.407 223.162 226.28 221.839 223.209C221.508 222.359 220.279 223.067 220.61 223.918Z" fill="#3F4B4D"/>
<path d="M536.996 411.074C539.406 412.539 542.146 413.956 545.123 415.327C551.927 418.398 558.259 420.052 563.503 420.949C564.448 422.65 565.819 425.107 567.425 428.037C571.772 435.975 575.127 442.259 576.025 443.866C583.254 457.426 593.366 478.405 594.878 481.571C593.696 482.185 591.712 482.941 589.302 482.658C586.467 482.327 584.577 480.626 583.065 479.161C575.647 472.263 573.473 469.381 573.473 469.381C568.465 462.766 563.598 456.859 553.817 445.141C551.313 442.165 549.281 439.802 548.053 438.385C542.761 437.912 537.469 437.44 532.224 436.92C533.831 428.32 535.437 419.674 536.996 411.074Z" fill="#3F4B4D"/>
<path d="M573.662 349.932C563.456 350.31 555.377 350.31 552.022 350.263C547.58 350.216 541.201 350.121 513.182 348.657C499.81 347.948 497.495 347.806 491.164 347.617C480.532 347.286 470.752 347.286 459.175 349.554C451.615 351.019 447.883 352.531 444.481 355.224C442.922 356.453 437.866 360.611 436.259 367.698C436.023 368.832 435.456 371.62 436.354 377.148C437.771 386.079 441.362 392.93 443.819 396.993C447.316 402.758 451.852 408.192 459.365 414.665C463.664 418.35 473.445 426.336 493.668 436.164C503.449 440.936 516.726 446.653 533.169 451.662C532.791 449.299 532.366 445.897 532.224 441.834C531.893 432.525 533.263 425.438 534.492 418.965C535.437 414.192 536.902 407.908 539.359 400.679C536.004 398.789 532.697 396.852 529.342 394.962C538.934 396.663 547.297 397.419 553.912 397.702C568.465 398.411 578.907 397.277 591.287 395.907C601.115 394.82 606.123 394.253 608.769 392.646C622.566 384.236 627.055 358.059 617.888 349.507C612.88 344.735 606.973 348.657 573.662 349.932Z" fill="white"/>
<path opacity="0.13" d="M534.256 420.43C528.633 417.878 520.695 413.767 511.954 407.53C492.959 393.922 476.091 374.125 478.973 370.392C480.533 368.407 487.006 372.093 497.07 375.826C522.443 385.181 544.32 384.898 559.629 384.661C574.04 384.472 595.87 382.488 621.432 373.463C620.865 376.818 619.258 383.291 613.872 388.347C610.423 391.607 606.737 392.977 604.233 393.781C587.696 399.214 568.087 398.6 562.228 398.364C553.25 397.986 541.674 397.277 528.255 395.812C532.224 397.135 536.193 398.458 540.162 399.781C538.225 406.633 536.24 413.531 534.256 420.43Z" fill="#898989"/>
<path d="M568.134 349.082C547.628 350.122 527.263 348.704 506.804 347.523C496.55 346.956 486.297 346.531 476.044 346.956C467.161 347.334 457.853 348.09 449.631 351.586C442.827 354.469 437.063 359.524 435.645 367.037C434.18 374.881 436.448 383.386 439.661 390.568C446.843 406.538 460.829 417.925 475.477 426.856C493.385 437.723 512.71 446.89 533.027 452.323C533.925 452.56 534.303 451.189 533.405 450.953C515.97 446.323 499.48 438.81 483.793 430.021C468.815 421.658 453.931 411.736 444.67 396.946C440.323 390.048 437.252 382.11 436.732 373.888C436.448 369.352 437.063 364.722 439.661 360.895C441.835 357.682 445.142 355.319 448.592 353.618C456.577 349.696 465.98 348.846 474.721 348.421C484.171 347.948 493.668 348.232 503.071 348.704C524.806 349.838 546.352 351.539 568.134 350.452C569.032 350.452 569.079 349.035 568.134 349.082Z" fill="#3F4B4D"/>
<path d="M478.69 371.007C498.015 383.008 518.569 392.883 539.973 400.443C540.824 400.727 541.201 399.357 540.351 399.073C519.041 391.513 498.582 381.685 479.398 369.778C478.595 369.306 477.886 370.534 478.69 371.007Z" fill="#3F4B4D"/>
<path d="M539.642 399.309C533.5 415.799 531.09 433.47 532.508 451C532.602 451.898 534.02 451.898 533.925 451C532.46 433.565 534.87 416.082 541.013 399.687C541.343 398.836 539.973 398.458 539.642 399.309Z" fill="#3F4B4D"/>
<path d="M536.524 411.547C539.453 414.429 544.462 415.894 548.289 417.217C553.109 418.918 558.07 420.193 563.126 421.044C564.023 421.186 564.401 419.815 563.503 419.674C559.015 418.918 554.573 417.878 550.273 416.413C547.911 415.61 545.549 414.712 543.281 413.72C541.296 412.87 539.075 412.066 537.563 410.507C536.854 409.893 535.862 410.885 536.524 411.547Z" fill="#3F4B4D"/>
<path d="M562.936 421.28C573.804 440.841 584.293 460.639 594.405 480.626C594.83 481.429 596.059 480.72 595.633 479.917C585.522 459.93 574.985 440.18 564.165 420.571C563.74 419.768 562.511 420.477 562.936 421.28Z" fill="#3F4B4D"/>
<path d="M532.886 436.684C536.666 437.204 540.493 437.676 544.273 438.196C545.879 438.432 547.439 438.527 548.714 439.708C549.376 440.322 549.943 441.125 550.463 441.834C551.455 443.157 552.494 444.48 553.487 445.803C557.786 451.52 562.086 457.19 566.669 462.719C571.3 468.247 576.167 473.539 581.6 478.264C585.239 481.43 590.672 486.202 595.444 482.138C596.153 481.524 595.114 480.532 594.452 481.146C590.909 484.17 586.656 480.674 583.868 478.358C581.222 476.138 578.718 473.775 576.308 471.271C571.536 466.404 567.189 461.207 562.984 455.867C558.826 450.575 554.951 444.953 550.652 439.755C548.903 437.629 546.966 437.156 544.32 436.826C540.54 436.306 536.713 435.833 532.933 435.314C531.988 435.172 531.988 436.589 532.886 436.684Z" fill="#3F4B4D"/>
<path d="M530.381 396.238C556.132 399.923 582.356 399.12 607.824 393.781C608.722 393.592 608.344 392.221 607.446 392.41C582.262 397.702 556.227 398.506 530.759 394.867C529.862 394.726 529.483 396.096 530.381 396.238Z" fill="#3F4B4D"/>
<path d="M518.805 195.662C518.994 192.922 519.136 189.425 519.041 185.409C518.947 180.637 518.663 181.251 518.238 173.785C517.813 166.367 517.907 163.39 516.064 162.493C515.214 162.067 514.08 162.209 513.324 162.682C512.804 163.012 512.096 163.721 511.434 169.013C511.056 172.084 511.245 172.462 510.725 173.077C509.402 174.683 507.371 173.407 504.866 175.108C503.402 176.101 503.874 176.668 501.795 178.747C499.622 180.92 498.96 180.448 497.543 182.149C497.306 182.432 494.991 185.267 495.511 188.716C495.605 189.378 495.889 191.41 497.164 191.929C498.393 192.449 499.433 191.126 500.283 191.599C501.228 192.071 500.85 193.961 500.708 197.552C500.566 201.568 500.472 203.695 501.323 205.774C502.079 207.664 503.402 209.034 504.583 209.932C504.866 211.538 505.244 213.995 505.575 217.019C506.662 227.509 505.622 232.659 505.575 239.841C505.575 251.464 508.315 260.489 510.111 266.395C512.568 274.475 515.639 280.854 517.954 285.201C520.695 285.39 524.711 285.343 529.294 284.02C534.397 282.508 537.516 280.192 543.8 275.326C555.329 266.443 561.141 261.907 563.503 259.497C572.906 249.905 574.277 244.66 574.702 242.203C575.033 240.313 576.167 234.076 572.812 231.525C570.024 229.399 565.63 230.911 563.787 231.525C560.243 232.706 558.4 234.596 555.235 237.242C549.281 242.203 548.998 241.258 543.328 245.794C539.737 248.677 534.87 253.071 529.767 259.355C529.436 257.607 528.869 254.866 528.113 251.512C526.648 244.944 525.467 240.88 524.806 238.187C522.679 229.966 521.876 223.256 520.27 209.884C519.797 206.199 519.278 201.379 518.805 195.662Z" fill="white"/>
<path opacity="0.18" d="M515.545 162.02C515.875 165.705 515.97 170.572 515.025 176.1C513.796 183.424 511.34 189.141 509.308 192.968C508.977 193.819 508.174 195.992 508.835 198.686C509.828 202.749 513.277 204.592 513.844 204.875C515.356 212.813 516.868 220.704 518.38 228.642C520.978 242.486 523.53 256.378 525.987 270.222C530.381 266.348 534.823 262.473 539.312 258.551C549.754 249.527 560.149 240.738 570.449 232.186C568.229 231.808 566.008 231.383 563.787 231.005C562.086 232.091 559.723 233.603 556.888 235.541C551.502 239.226 545.643 243.195 539.312 249.101C536.76 251.464 533.405 254.771 529.814 259.071C529.389 256.331 528.633 252.314 527.452 247.4C525.893 241.116 525.278 240.36 524.144 235.73C522.349 228.453 523.625 228.973 521.546 216.452C519.325 202.985 519.183 202.182 519.183 202.182C518.852 200.292 518.616 199.016 518.474 197.174C518.002 191.456 518.947 187.157 519.183 185.975C519.797 182.101 519.703 175.108 515.545 162.02Z" fill="#A5A4A4"/>
<path d="M566.906 228.595C553.061 236.722 540.351 246.597 529.2 258.174C528.586 258.835 529.578 259.827 530.192 259.166C541.249 247.684 553.865 237.903 567.614 229.824C568.418 229.398 567.709 228.17 566.906 228.595Z" fill="#3F4B4D"/>
<path d="M529.625 263.041C530.901 258.788 530.287 254.536 529.153 250.33C527.83 245.369 526.318 240.455 525.184 235.447C522.821 225.288 521.309 214.987 520.601 204.592C520.553 203.695 519.136 203.695 519.183 204.592C519.845 214.184 521.215 223.729 523.247 233.179C524.286 237.951 525.514 242.676 526.885 247.354C528.349 252.362 529.909 257.512 528.302 262.71C528.019 263.513 529.389 263.891 529.625 263.041Z" fill="#3F4B4D"/>
<path d="M520.601 203.883C519.797 200.009 517.86 190.937 512.001 192.213C510.064 192.638 508.174 194.433 508.316 196.56C508.505 199.489 511.434 198.544 512.993 200.103C513.655 200.765 514.647 199.725 513.986 199.111C513.182 198.308 512.379 198.308 511.434 197.883C507.796 196.323 511.765 192.307 514.6 194.008C517.624 195.804 518.569 201.096 519.23 204.261C519.419 205.159 520.79 204.781 520.601 203.883Z" fill="#3F4B4D"/>
<path d="M519.372 197.93C520.27 186.873 519.75 175.675 517.529 164.76C517.293 163.532 517.057 161.925 515.734 161.358C514.505 160.839 513.23 161.595 512.568 162.587C511.529 164.193 511.528 166.698 511.339 168.54C511.056 171.517 511.056 174.541 511.292 177.518C511.339 178.416 512.757 178.416 512.71 177.518C512.568 175.439 512.474 173.313 512.568 171.234C512.663 169.296 512.473 166.272 513.324 164.571C513.371 164.382 513.418 164.146 513.466 163.957C515.072 162.965 515.875 163.059 515.97 164.241C516.348 164.855 516.348 166.131 516.49 166.887C516.915 169.155 517.246 171.47 517.529 173.785C518.474 181.818 518.616 189.897 517.954 197.93C517.86 198.828 519.277 198.828 519.372 197.93Z" fill="#3F4B4D"/>
<path d="M511.339 172.698C510.253 170.336 507.323 173.454 506.614 174.541C504.724 177.376 504.677 180.967 505.858 184.086C506.567 185.834 508.221 188.196 510.3 186.826C513.041 185.078 512.71 179.361 512.379 176.667C512.285 175.77 510.867 175.77 510.962 176.667C511.198 178.605 511.198 180.495 510.82 182.432C510.678 183.093 510.631 184.038 510.206 184.605C509.072 186.212 507.701 184.936 507.182 183.66C506.426 181.818 506.142 179.739 506.662 177.801C506.898 176.904 507.276 176.053 507.796 175.297C508.032 174.966 509.828 172.887 510.064 173.454C510.489 174.258 511.717 173.549 511.339 172.698Z" fill="#3F4B4D"/>
<path d="M507.418 173.785C502.315 174.022 500.094 179.03 500.756 183.566C501.039 185.456 501.7 187.393 503.779 187.866C505.811 188.338 507.418 186.874 507.843 184.984C508.032 184.086 506.662 183.708 506.473 184.606C505.528 188.716 502.504 185.551 502.173 183.566C501.984 182.338 501.937 181.109 502.22 179.881C502.787 177.329 504.725 175.297 507.418 175.203C508.363 175.156 508.363 173.738 507.418 173.785Z" fill="#3F4B4D"/>
<path d="M501.606 178.085C498.393 179.078 495.416 182.385 496.219 185.976C496.975 189.473 501.322 189.898 503.071 186.968C503.543 186.165 502.315 185.456 501.842 186.26C500.945 187.724 498.865 188.102 497.873 186.449C497.306 185.504 497.495 184.181 497.826 183.236C498.488 181.346 500.094 180.023 501.984 179.456C502.835 179.172 502.504 177.802 501.606 178.085Z" fill="#3F4B4D"/>
<path d="M496.361 183.802C494.802 185.929 493.81 190.134 496.172 192.166C497.07 192.922 498.299 192.969 499.338 192.402C500.708 191.646 501.275 190.087 501.701 188.669C501.984 187.819 500.614 187.441 500.33 188.291C500.047 189.189 499.811 190.087 499.102 190.748C497.921 191.882 496.692 191.173 496.314 189.756C495.842 187.913 496.456 186.023 497.543 184.558C498.11 183.755 496.881 183.046 496.361 183.802Z" fill="#3F4B4D"/>
<path d="M499.007 191.22C501.748 197.174 496.881 206.954 504.725 210.262C505.575 210.593 505.953 209.222 505.103 208.892C500.992 207.143 501.181 202.135 501.37 198.402C501.464 195.614 501.417 193.016 500.236 190.464C499.858 189.661 498.629 190.37 499.007 191.22Z" fill="#3F4B4D"/>
<path d="M503.874 210.121C505.481 216.594 504.63 223.304 504.583 229.919C504.536 236.297 504.914 242.676 505.764 248.96C507.418 261.151 510.82 273.058 515.734 284.303C516.112 285.154 517.34 284.398 516.962 283.595C511.812 271.782 508.363 259.214 506.851 246.362C506.142 240.314 505.859 234.218 506 228.17C506.142 221.981 506.756 215.838 505.244 209.743C505.055 208.845 503.685 209.223 503.874 210.121Z" fill="#3F4B4D"/>
<path d="M516.679 285.673C530.098 288.697 541.91 277.876 551.597 270.269C557.314 265.78 562.889 261.15 568.276 256.283C573.048 251.936 577.537 247.258 580.702 241.588C581.128 240.785 579.947 240.076 579.474 240.88C576.497 246.219 572.339 250.66 567.851 254.724C562.984 259.165 557.881 263.418 552.731 267.576C547.533 271.734 542.288 275.986 536.666 279.53C530.807 283.263 524.05 285.909 517.057 284.302C516.159 284.113 515.781 285.484 516.679 285.673Z" fill="#3F4B4D"/>
<path d="M519.608 130.835C519.939 130.127 520.27 129.04 520.128 127.811C519.845 125.638 518.143 124.315 516.915 122.992C514.978 120.96 514.316 118.928 512.71 115.101C511.859 113.069 509.071 106.407 512.001 99.8393C514.174 94.9726 518.38 92.7518 519.23 92.3266C520.506 91.6651 525.514 89.2081 530.381 91.3816C534.397 93.2243 535.909 97.1461 537.185 100.548C537.61 101.682 539.737 107.447 538.083 114.392C537.658 116.188 537.091 118.692 535.295 121.291C534.019 123.134 533.027 123.748 532.035 125.638C530.806 127.906 530.57 130.174 530.523 131.639C531.421 131.639 532.318 131.686 533.216 131.686C533.122 132.962 532.98 134.19 532.885 135.466C530.854 134.993 530.098 135.23 529.814 135.608C529.342 136.316 530.428 137.45 529.956 138.443C529.814 138.726 529.389 139.34 526.837 139.718C524.475 140.049 520.884 140.569 519.844 138.868C519.277 137.923 519.986 137.072 519.277 136.127C518.616 135.23 517.34 135.088 516.348 135.088C515.45 132.584 515.592 131.733 515.97 131.497C516.301 131.261 516.773 131.544 517.766 131.45C518.569 131.402 519.183 131.119 519.608 130.835Z" fill="white"/>
<path d="M525.751 130.504C525.656 125.401 525.515 120.346 525.42 115.243C525.42 114.345 524.003 114.345 524.003 115.243C524.097 120.346 524.239 125.401 524.333 130.504C524.333 131.402 525.751 131.402 525.751 130.504Z" fill="#3F4B4D"/>
<path d="M518.522 109.478C520.27 111.557 522.16 113.588 524.097 115.526C524.38 115.809 524.853 115.809 525.089 115.526C526.46 114.061 527.83 112.596 529.2 111.131C529.956 110.328 531.232 109.383 531.657 108.296C531.846 107.824 531.374 107.446 530.996 107.399C530.948 107.399 530.948 107.399 530.948 107.399C530.665 107.351 530.334 107.635 530.287 107.918V107.966C530.098 108.863 531.468 109.241 531.657 108.344V108.296C531.421 108.485 531.185 108.627 530.996 108.816H531.043C530.807 108.533 530.57 108.202 530.381 107.918C530.003 108.911 528.113 110.328 527.357 111.131C526.318 112.265 525.278 113.399 524.192 114.486C524.522 114.486 524.853 114.486 525.184 114.486C523.247 112.549 521.404 110.517 519.608 108.438C518.947 107.777 517.907 108.769 518.522 109.478Z" fill="#3F4B4D"/>
<path d="M525.231 114.439C525.42 110.848 525.515 107.257 525.609 103.666C525.609 102.769 524.192 102.769 524.192 103.666C524.097 107.257 524.003 110.848 523.814 114.439C523.766 115.337 525.184 115.337 525.231 114.439Z" fill="#3F4B4D"/>
<path d="M489.982 94.9717C494.329 96.1057 498.393 98.799 502.362 100.831C503.165 101.256 503.874 100.027 503.071 99.6022C498.96 97.476 494.849 94.7355 490.361 93.6015C489.51 93.3652 489.132 94.7355 489.982 94.9717Z" fill="#3F4B4D"/>
<path d="M511.765 91.8067C509.875 89.586 508.032 87.4125 506.142 85.1917C505.528 84.483 504.535 85.5225 505.15 86.184C507.04 88.4047 508.883 90.5782 510.773 92.799C511.387 93.5077 512.379 92.4682 511.765 91.8067Z" fill="#3F4B4D"/>
<path d="M528.019 84.8607C528.302 80.2774 528.917 75.7414 529.814 71.2527C530.003 70.3549 528.633 69.9769 528.444 70.8747C527.546 75.5052 526.932 80.1357 526.601 84.8607C526.507 85.7584 527.924 85.7584 528.019 84.8607Z" fill="#3F4B4D"/>
<path d="M544.414 93.3184C547.533 90.5307 550.746 87.8374 553.959 85.2387C554.668 84.6717 553.676 83.6794 552.967 84.2464C549.754 86.8924 546.541 89.5857 543.422 92.3262C542.761 92.9404 543.753 93.9327 544.414 93.3184Z" fill="#3F4B4D"/>
<path d="M550.51 107.21C554.384 105.84 558.212 104.423 562.039 102.911C562.889 102.58 562.511 101.21 561.661 101.54C557.833 103.052 554.006 104.47 550.132 105.84C549.281 106.124 549.612 107.494 550.51 107.21Z" fill="#3F4B4D"/>
<path d="M494.991 116.849C497.401 116.045 499.858 115.242 502.268 114.439C503.118 114.155 502.74 112.785 501.889 113.069C499.48 113.872 497.023 114.675 494.613 115.478C493.715 115.762 494.093 117.132 494.991 116.849Z" fill="#3F4B4D"/>
<path d="M515.356 131.922C516.206 133.103 515.025 134.709 516.064 135.938C516.726 136.741 517.766 136.883 518.711 136.93C523.341 137.166 528.208 136.458 532.886 136.269C533.783 136.221 533.783 134.804 532.886 134.851C529.106 135.04 525.326 135.229 521.546 135.418C519.797 135.513 517.34 136.221 516.962 133.859C516.773 132.772 517.293 132.252 516.584 131.26C516.065 130.457 514.836 131.166 515.356 131.922Z" fill="#3F4B4D"/>
<path d="M517.104 132.158C522.49 132.252 527.83 132.347 533.216 132.441C532.98 132.205 532.744 131.969 532.507 131.732C532.602 132.725 532.602 133.481 532.413 134.52C532.224 135.418 533.594 135.796 533.783 134.898C534.019 133.811 534.067 132.819 533.925 131.732C533.878 131.354 533.641 131.024 533.216 131.024C527.83 130.929 522.49 130.835 517.104 130.74C516.206 130.74 516.206 132.158 517.104 132.158Z" fill="#3F4B4D"/>
<path d="M519.041 136.08C518.285 137.119 518.474 138.489 519.325 139.434C520.648 140.852 522.963 140.616 524.711 140.568C526.365 140.521 528.633 140.663 530.003 139.482C530.995 138.631 531.232 137.214 530.523 136.127C530.003 135.371 528.775 136.08 529.294 136.836C530.806 139.104 525.42 139.104 524.711 139.151C523.625 139.198 518.474 139.34 520.27 136.788C520.79 136.08 519.561 135.371 519.041 136.08Z" fill="#3F4B4D"/>
<path d="M520.27 131.024C521.12 127.149 518.285 124.078 516.443 120.96C514.175 117.132 512.143 112.974 511.623 108.486C511.151 104.564 511.907 100.311 514.269 97.0512C517.057 93.2239 521.924 91.7119 526.507 91.6647C535.91 91.5229 537.705 103.099 537.658 110.376C537.658 115.431 536.004 119.259 532.933 123.18C530.854 125.826 529.153 128.661 529.862 132.111C530.051 133.008 531.421 132.63 531.232 131.733C530.287 127.197 534.398 124.173 536.524 120.676C538.225 117.936 538.934 114.723 539.075 111.51C539.312 105.792 538.461 98.4214 534.728 93.8382C530.854 89.0187 523.719 89.5857 518.569 91.9009C512.852 94.4052 510.064 100.359 510.064 106.407C510.064 110.045 511.151 113.636 512.663 116.943C513.56 118.928 514.647 120.865 515.828 122.755C517.293 125.118 519.514 127.716 518.899 130.693C518.71 131.544 520.081 131.922 520.27 131.024Z" fill="#3F4B4D"/>
<path d="M564.118 229.398C569.93 225.382 582.876 217.586 601.067 216.263C624.976 214.467 642.411 224.957 647.987 228.642C648.648 235.257 649.404 245.369 649.168 257.748C648.695 280.712 645.199 291.248 643.97 311.519C643.356 321.725 643.167 336.561 645.577 354.847C637.544 357.54 623.7 361.037 606.454 359.714C591.145 358.532 579.238 354.044 571.914 350.594C571.536 343.696 570.827 333.254 569.315 320.591C567.52 305.66 565.677 295.832 564.732 290.303C562.558 276.884 560.905 256.85 564.118 229.398Z" fill="#6EC0CC"/>
<path d="M542.005 423.69C538.414 425.108 535.437 426.1 533.358 426.762C524.381 429.597 520.695 429.691 516.537 433.093C515.592 433.849 514.316 435.078 511.859 438.669C508.174 444.15 505.67 449.442 501.984 459.128C498.582 468.105 495.889 475.287 493.384 485.588C492.203 490.407 491.4 494.518 490.88 497.589C492.959 496.644 496.267 494.991 499.858 492.25C509.828 484.69 512.426 476.327 522.727 461.207C524.853 458.088 528.113 453.458 532.555 448.024C534.87 446.37 538.792 444.008 544.084 442.732C547.628 441.929 550.699 441.834 553.014 441.929C552.636 440.322 552.211 438.716 551.833 437.109C548.573 432.621 545.312 428.179 542.005 423.69Z" fill="#3F4B4D"/>
<path d="M534.539 414.901C535.154 415.232 536.099 415.705 537.138 416.413C541.627 419.532 543.658 423.595 545.123 426.383C551.785 439.141 553.109 438.101 557.314 448.118C559.062 452.276 560.243 455.82 560.999 458.277C563.929 457.143 568.229 455.395 573.379 452.985C585.38 447.362 594.027 441.881 620.676 422.839C642.978 406.869 624.598 419.532 658.949 393.592C660.177 392.694 668.729 386.221 676.714 375.306C682.006 368.124 683.613 363.682 684.086 359.477C684.416 356.784 685.267 349.885 680.825 344.168C677.896 340.388 674.068 338.876 672.462 338.309C668.54 336.844 663.201 336.277 653.987 339.16C644.584 342.136 638.017 346.578 626.11 355.461C616.896 362.359 611.273 366.848 606.501 370.534C590.908 382.677 577.773 392.93 560.905 402.38C554.762 405.735 545.879 410.365 534.539 414.901Z" fill="white"/>
<path opacity="0.18" d="M681.014 344.357C678.935 349.177 675.533 356.312 670.336 364.391C651.01 394.537 624.834 409.562 608.344 418.776C596.201 425.58 577.726 434.321 553.487 440.275C554.762 442.637 556.038 445.236 557.267 448.118C558.826 451.709 560.007 455.159 560.952 458.277C566.386 456.056 574.182 452.654 583.159 447.882C596.153 440.936 600.169 437.251 629.37 416.225C629.37 416.225 646.9 403.656 667.643 385.654C668.824 384.614 675.439 378.803 680.494 369.305C683.755 363.163 684.227 359.525 684.322 357.304C684.605 351.35 682.337 346.673 681.014 344.357Z" fill="#969696"/>
<path d="M535.815 415.28C556.7 405.83 576.403 394.017 594.688 380.22C603.76 373.416 612.549 366.234 621.668 359.525C630.457 353.051 639.576 346.578 649.451 341.806C658.807 337.317 672.32 334.86 679.88 344.027C687.44 353.193 682.621 365.809 676.573 374.267C670.147 383.291 661.736 390.615 653.089 397.372C643.876 404.601 634.426 411.594 625.023 418.634C604.989 433.707 584.435 448.638 560.81 457.568C559.96 457.899 560.338 459.269 561.188 458.939C583.065 450.67 602.39 437.298 621.054 423.407C630.977 415.988 640.899 408.523 650.727 400.963C659.563 394.206 668.304 387.071 675.25 378.33C681.439 370.581 686.968 360.753 684.511 350.453C682.195 340.861 673.171 335.947 663.721 336.325C652.617 336.75 642.364 343.601 633.386 349.508C623.653 355.934 614.439 363.116 605.225 370.298C594.311 378.803 583.301 387.119 571.536 394.49C559.818 401.861 547.628 408.381 535.012 414.051C534.256 414.429 534.965 415.658 535.815 415.28Z" fill="#3F4B4D"/>
<path d="M534.208 415.516C538.13 417.169 540.682 421.375 543.092 424.729C545.454 427.99 547.628 431.344 549.659 434.746C553.912 441.928 557.456 449.488 560.291 457.332C560.621 458.182 561.991 457.804 561.661 456.954C558.684 448.732 554.951 440.794 550.463 433.282C548.195 429.502 545.738 425.816 543.092 422.272C540.824 419.248 538.555 415.752 534.964 414.24C534.067 413.956 533.358 415.138 534.208 415.516Z" fill="#3F4B4D"/>
<path d="M541.816 422.982C537.516 424.494 533.264 426.006 528.964 427.565C525.089 428.935 520.884 430.069 517.199 431.912C514.127 433.424 512.426 436.117 510.82 439.047C508.741 442.78 506.851 446.56 505.008 450.387C498.015 465.318 493.054 481.147 490.172 497.353C490.077 497.826 490.502 498.44 491.022 498.204C497.401 495.983 502.267 491.353 506.378 486.155C511.387 479.824 515.828 473.02 520.223 466.263C524.239 460.12 527.735 452.938 533.405 448.072C536.24 445.662 539.501 444.339 543.139 443.583C546.494 442.874 549.801 442.307 552.636 440.228C553.392 439.708 552.683 438.48 551.927 439C548.903 441.173 545.265 441.598 541.721 442.449C538.697 443.158 535.957 444.339 533.5 446.229C528.255 450.245 524.947 456.246 521.498 461.727C517.057 468.72 512.426 475.666 507.512 482.375C503.071 488.423 497.968 494.329 490.691 496.834C490.975 497.117 491.258 497.401 491.542 497.684C494.33 482.139 498.96 466.972 505.528 452.608C507.134 449.111 508.835 445.709 510.631 442.307C512.473 438.811 514.222 434.889 517.907 433.046C521.782 431.156 526.176 429.975 530.192 428.557C534.161 427.14 538.178 425.722 542.147 424.305C543.044 424.069 542.713 422.698 541.816 422.982Z" fill="#3F4B4D"/>
<path d="M507.89 285.059C513.938 315.535 520.034 346.011 526.082 376.487C550.037 377.763 573.946 379.039 597.902 380.315C593.129 348.468 588.404 316.622 583.632 284.822C558.4 284.917 533.169 284.964 507.89 285.059Z" fill="white" stroke="#3F4B4D" stroke-width="3" stroke-miterlimit="10"/>
<path opacity="0.22" d="M562.039 284.87C563.504 293.469 564.638 302.777 565.252 312.794C566.811 338.026 564.543 360.281 561.188 378.377C573.426 379.039 585.664 379.7 597.949 380.315C593.177 348.468 588.452 316.622 583.679 284.822C576.45 284.87 569.221 284.87 562.039 284.87Z" fill="#898989"/>
<path d="M633.575 230.863C631.733 232.659 631.354 235.068 631.118 239.037C630.598 249.149 632.016 256.898 632.016 256.898C633.717 266.017 634.189 275.325 635.371 284.492C636.741 294.981 637.355 300.321 634.662 304.998C632.441 308.873 628.803 311.613 627.716 312.417C623.795 315.299 620.156 316.433 617.038 317.283C611.368 318.89 603.477 320.969 593.507 322.906C590.861 319.41 588.073 317.331 586.231 316.197C583.632 314.59 579.427 311.897 576.875 313.503C575.694 314.259 574.891 316.008 575.269 317.189C575.789 318.748 578.009 318.512 579.332 320.402C580.183 321.63 580.183 323.142 580.088 324.087C578.245 324.465 575.458 324.938 572.009 325.174C565.488 325.599 563.693 324.749 558.212 325.174C552.731 325.599 545.69 327.159 545.643 328.86C545.643 330.088 549.329 331.033 550.368 331.317C553.25 332.073 554.762 331.695 558.731 331.931C561.897 332.12 565.583 332.64 565.583 333.018C565.583 333.868 547.202 332.592 546.257 336.987C545.974 338.262 547.202 339.538 548.053 340.436C548.998 341.475 551.077 343.224 560.291 344.121C562.181 344.31 564.779 344.499 567.851 344.499C565.11 345.87 562.417 347.24 559.676 348.61C559.676 348.941 559.676 349.413 559.96 349.886C561.519 352.626 569.362 350.831 573.001 350.028C577.726 348.941 584.577 346.862 592.562 342.326C599.697 342.042 605.556 341.475 609.619 341.003C626.629 338.971 635.324 335.711 640.663 333.301C646.522 330.655 649.451 328.434 651.625 325.41C652.286 324.465 653.94 321.961 655.736 314.307C657.531 306.605 657.862 300.51 657.956 298.62C658.145 294.934 658.287 288.65 657.2 274.002C655.547 252.078 654.743 260.016 653.468 245.511C653.326 243.81 652.9 238.659 649.546 233.793C648.553 232.328 647.278 230.532 644.915 229.398C641.277 227.745 636.316 228.123 633.575 230.863Z" fill="white"/>
<path opacity="0.24" d="M642.6 228.689C643.545 232.044 644.821 236.958 645.955 242.959C646.664 246.739 648.695 258.551 647.987 289.122C647.514 308.4 646.522 311.046 644.963 313.598C640.757 320.402 633.906 323.331 620.251 329.237C608.911 334.104 601.398 337.364 590.483 339.065C585.475 339.869 577.773 340.625 567.898 344.594C566.433 345.161 558.779 348.279 559.109 349.744C559.393 350.878 564.401 350.642 568.796 350.405C573.899 350.122 576.545 349.98 579.947 348.988C582.687 348.185 587.459 346.342 592.373 341.948C600.028 341.995 606.407 341.475 611.132 340.908C618.692 340.01 627.244 338.971 637.261 334.813C643.639 332.167 648.128 330.23 651.625 325.457C652.57 324.182 654.365 321.347 656.161 312.322C657.531 305.471 658.098 298.714 658.098 290.303C658.098 286.051 657.484 278.822 656.303 264.363C655.31 252.598 656.255 265.686 652.995 243.148C652.664 240.833 652.145 237.194 649.451 233.792C647.278 230.957 644.49 229.445 642.6 228.689Z" fill="#898989"/>
<path d="M632.725 233.792C634.52 228.217 641.466 227.744 645.624 230.816C650.302 234.218 651.767 240.124 652.664 245.51C654.602 257.228 656.208 269.088 657.011 280.901C657.814 292.902 657.531 305.14 654.365 316.811C652.806 322.575 650.443 327.158 645.199 330.277C640.474 333.065 635.229 335.049 629.984 336.608C617.794 340.199 605.036 341.097 592.373 341.239C591.475 341.239 591.475 342.656 592.373 342.656C604.989 342.467 617.794 341.57 629.984 338.073C635.796 336.419 641.797 334.199 646.9 330.891C651.672 327.82 653.987 323.378 655.499 318.039C659.138 305.14 659.326 291.532 658.24 278.255C657.72 271.64 656.87 265.072 655.972 258.504C655.074 251.984 654.649 245.085 652.617 238.801C650.963 233.792 647.419 228.737 641.938 227.65C637.497 226.752 632.772 229.115 631.354 233.462C631.071 234.265 632.441 234.643 632.725 233.792Z" fill="#3F4B4D"/>
<path d="M631.78 231.902C629.464 239.132 630.315 247.022 631.071 254.441C631.874 262.237 633.103 269.939 634.001 277.735C634.473 281.609 634.851 285.484 635.04 289.406C635.276 293.422 635.56 297.722 634.898 301.738C633.575 309.298 626.44 312.794 620.014 315.44C611.698 318.842 602.91 321.063 593.98 322.15C593.082 322.244 593.082 323.662 593.98 323.567C601.87 322.622 609.667 320.827 617.132 318.086C623.038 315.913 629.89 313.361 633.764 308.069C638.017 302.258 636.788 293.422 636.268 286.712C635.654 278.16 634.284 269.702 633.244 261.197C632.063 251.936 630.173 241.4 633.103 232.28C633.386 231.43 632.016 231.052 631.78 231.902Z" fill="#3F4B4D"/>
<path d="M594.027 322.481C589.68 317.803 584.294 312.275 577.301 312.842C575.411 312.984 573.237 313.976 573.899 316.244C574.229 317.378 575.174 318.087 576.119 318.701C578.104 319.977 579.521 321.3 580.136 323.662C580.372 324.56 581.742 324.182 581.506 323.284C581.033 321.536 580.183 319.93 578.765 318.748C578.151 318.229 576.072 317.378 575.836 316.764C576.025 315.961 576.261 315.157 576.45 314.354C576.875 314.307 577.253 314.26 577.679 314.212C578.387 314.165 579.143 314.26 579.852 314.354C585.38 315.252 589.397 319.552 593.035 323.473C593.649 324.135 594.641 323.143 594.027 322.481Z" fill="#3F4B4D"/>
<path d="M579.946 323.425C574.087 325.504 567.567 324.039 561.472 324.276C558.684 324.37 555.896 324.654 553.108 325.079C550.935 325.41 547.769 325.457 545.974 326.969C543.186 329.284 546.682 331.647 548.998 331.93C555.187 332.781 561.614 332.639 567.851 332.97C568.748 333.017 568.748 331.599 567.851 331.552C563.267 331.316 558.637 331.08 554.053 330.843C552.825 330.796 551.597 330.749 550.368 330.654C549.754 330.607 544.698 330.182 547.108 327.914C547.769 327.3 549.47 327.205 550.321 327.016C551.36 326.827 552.4 326.638 553.439 326.449C558.164 325.74 562.984 325.504 567.756 325.693C571.961 325.882 576.166 326.213 580.23 324.795C581.175 324.512 580.797 323.142 579.946 323.425Z" fill="#3F4B4D"/>
<path d="M567.567 332.214C562.842 332.498 557.786 332.309 553.156 333.395C551.029 333.915 548.95 334.766 547.013 335.805C546.115 336.278 544.792 336.845 545.029 338.073C545.501 340.908 552.211 340.861 554.242 340.908C559.345 340.955 564.354 340.01 569.457 340.388C570.355 340.436 570.355 339.018 569.457 338.971C565.913 338.735 562.417 339.065 558.873 339.302C555.613 339.538 550.888 340.152 547.864 338.593C545.832 337.553 546.919 337.412 548.053 336.845C548.951 336.372 549.848 335.947 550.793 335.616C552.541 334.955 554.337 334.529 556.18 334.34C559.912 333.962 563.74 333.868 567.472 333.632C568.465 333.584 568.465 332.167 567.567 332.214Z" fill="#3F4B4D"/>
<path d="M547.722 341.05C553.864 344.216 560.669 345.539 567.52 344.783C568.418 344.688 568.418 343.271 567.52 343.365C560.905 344.074 554.337 342.893 548.431 339.822C547.627 339.444 546.919 340.625 547.722 341.05Z" fill="#3F4B4D"/>
<path d="M567.709 343.885C564.165 344.688 560.243 345.87 558.495 349.366C558.353 349.697 558.401 350.169 558.731 350.358C561.236 351.492 563.787 351.351 566.48 351.256C569.977 351.067 573.52 350.878 577.017 350.311C582.971 349.366 588.688 347.192 593.082 342.94C593.743 342.326 592.751 341.286 592.09 341.948C588.121 345.822 582.923 347.807 577.537 348.799C574.466 349.366 571.394 349.602 568.323 349.744C565.441 349.886 562.228 350.358 559.487 349.13C559.582 349.461 559.676 349.791 559.724 350.122C561.283 346.956 564.874 346.011 568.087 345.302C568.937 345.019 568.559 343.649 567.709 343.885Z" fill="#3F4B4D"/>
<path d="M565.583 168.305C564.165 171.66 563.976 174.967 563.693 178.983C563.551 181.015 563.267 187.394 565.394 195.426C566.717 200.435 568.134 205.869 572.528 211.302C576.355 216.027 580.75 218.673 583.538 220.044C585.475 219.477 587.554 218.815 589.774 217.917C591.948 217.067 593.933 216.122 595.728 215.224C595.823 216.972 596.153 220.091 597.949 223.446C599.461 226.328 601.398 228.218 602.627 229.257C604.044 228.643 605.651 227.84 607.352 226.611C611.368 223.729 613.589 220.185 614.77 217.965C614.108 215.224 613.494 212.106 613.116 208.656C612.455 202.514 612.644 197.08 613.116 192.639C614.156 192.639 615.809 192.497 617.51 191.646C621.338 189.709 622.613 185.693 623.18 183.803C624.551 179.361 623.795 175.581 623.275 173.172C622.802 171.045 621.196 163.627 614.817 158.099C606.832 151.248 596.862 152.098 592.562 152.429C583.396 153.232 570.024 157.768 565.583 168.305Z" fill="white"/>
<path opacity="0.29" d="M605.887 160.744C606.501 163.626 607.068 167.501 607.163 172.037C607.163 173.36 607.257 181.062 604.847 189.803C600.831 204.261 591.901 214.326 587.696 218.673C590.578 217.586 594.405 215.838 598.421 212.861C603.383 209.175 606.548 205.065 608.486 202.23C609.147 209.412 609.809 216.546 610.47 223.728C611.888 222.122 613.305 220.515 614.723 218.909C613.872 214.656 613.116 209.601 612.974 203.836C612.833 199.489 613.069 195.52 613.447 192.024C614.156 192.213 615.431 192.402 616.896 191.929C617.274 191.835 618.692 191.362 620.345 189.472C622.991 186.495 623.558 182.999 623.794 181.534C624.031 179.975 624.22 177.66 623.558 174.116C622.519 168.399 621.149 160.933 615.857 158.949C611.935 157.578 607.871 159.563 605.887 160.744Z" fill="#898989"/>
<path d="M563.787 175.061C562.417 171.943 561.046 167.548 562.086 162.776C563.645 155.736 569.41 152.05 575.269 147.136C580.75 142.6 588.026 135.607 595.444 125.071C594.736 129.087 593.98 133.056 593.271 137.072C596.295 134.379 599.65 131.591 603.288 128.803C605.651 127.008 608.013 125.354 610.281 123.795C609.619 124.693 607.966 127.197 607.871 130.788C607.777 134.757 609.572 137.497 610.186 138.395C610.848 137.497 611.935 136.174 613.305 134.521C615.242 132.253 615.809 131.78 616.801 130.363C618.833 127.48 619.117 125.59 619.495 125.638C620.109 125.732 620.345 129.985 619.211 146.947C621.432 144.443 623.653 141.892 625.826 139.387C626.204 144.916 626.629 150.444 627.007 155.972C627.48 158.618 627.858 162.493 627.291 167.029C626.629 172.084 625.07 176.006 623.794 178.605C622.802 177.707 621.337 176.668 619.447 176.573C617.179 176.479 616.423 177.754 614.959 177.66C611.793 177.424 611.32 171.139 607.399 166.178C603.571 161.311 598.043 159.752 594.547 158.76C591.287 157.862 581.317 155.074 572.717 161.075C566.197 165.611 564.307 172.746 563.787 175.061Z" fill="#92ADB3"/>
<path d="M564.968 167.926C562.606 172.509 562.889 177.801 563.078 182.81C563.314 188.433 564.07 194.103 565.771 199.489C568.606 208.419 574.324 216.594 582.971 220.61C583.774 220.988 584.53 219.759 583.679 219.381C575.363 215.507 569.835 207.711 567.142 199.111C565.583 194.244 564.874 189.141 564.59 184.086C564.307 178.983 563.787 173.265 566.197 168.588C566.622 167.832 565.393 167.123 564.968 167.926Z" fill="#3F4B4D"/>
<path d="M583.727 220.704C597.665 217.066 609.1 206.435 613.777 192.874C614.061 192.024 612.691 191.646 612.407 192.496C607.871 205.632 596.767 215.885 583.348 219.334C582.451 219.57 582.829 220.941 583.727 220.704Z" fill="#3F4B4D"/>
<path d="M612.785 192.969C616.093 192.922 619.164 192.496 621.054 189.52C622.802 186.779 625.117 182.621 624.739 179.266C624.456 176.715 621.857 175.392 619.542 175.297C616.801 175.203 614.297 176.668 612.927 178.983C612.454 179.786 613.683 180.495 614.156 179.692C615.29 177.802 617.321 176.62 619.542 176.715C620.392 176.762 621.432 176.998 622.141 177.518C624.078 178.983 623.228 181.298 622.661 183.046C621.999 184.984 621.007 187.063 619.826 188.811C618.125 191.315 615.526 191.504 612.785 191.551C611.84 191.551 611.84 192.969 612.785 192.969Z" fill="#3F4B4D"/>
<path d="M612.643 192.024C612.076 200.765 611.651 209.601 614.061 218.153C614.297 219.051 615.668 218.673 615.431 217.775C613.069 209.365 613.541 200.671 614.061 192.024C614.108 191.126 612.691 191.126 612.643 192.024Z" fill="#3F4B4D"/>
<path d="M595.019 215.413C595.445 218.673 596.342 221.839 597.76 224.816C598.516 226.469 599.792 230.108 602.012 230.108C604.422 230.108 607.115 227.792 608.816 226.28C611.321 223.965 613.494 221.272 615.762 218.673C616.376 218.012 615.384 216.972 614.77 217.681C613.116 219.571 611.462 221.508 609.714 223.398C607.966 225.241 605.698 227.698 603.146 228.359C601.54 228.785 601.067 227.887 600.311 226.611C599.697 225.572 599.13 224.485 598.658 223.398C597.476 220.752 596.767 217.917 596.389 215.035C596.248 214.137 594.878 214.515 595.019 215.413Z" fill="#3F4B4D"/>
<path d="M578.529 165.847C577.82 175.297 577.584 184.794 577.915 194.244C577.915 194.906 578.907 195.284 579.238 194.622C580.561 191.835 581.884 189.047 583.207 186.259C583.585 185.456 582.356 184.7 581.978 185.55C580.655 188.338 579.332 191.126 578.009 193.914C578.435 194.055 578.907 194.15 579.332 194.292C579.001 184.794 579.191 175.344 579.947 165.894C580.041 164.949 578.624 164.949 578.529 165.847Z" fill="#3F4B4D"/>
<path d="M582.876 202.324C581.742 201.615 581.08 200.103 581.742 198.828C582.214 197.977 583.16 197.457 583.963 196.938C584.813 196.371 585.617 195.851 586.278 195.095C587.081 194.197 587.506 193.063 588.073 192.024C589.16 189.945 591.381 187.251 593.791 189.519C596.673 192.26 594.122 198.45 591.759 200.812C589.349 203.175 585.664 203.694 582.687 202.23C581.884 201.852 581.128 203.033 581.978 203.458C585.758 205.301 590.483 204.592 593.271 201.285C596.011 198.024 598.516 190.984 594.169 187.96C592.515 186.826 590.625 187.015 589.066 188.244C586.987 189.945 586.656 192.874 584.766 194.67C583.112 196.229 580.514 196.843 580.136 199.395C579.852 201.143 580.75 202.655 582.167 203.6C582.923 204.025 583.632 202.797 582.876 202.324Z" fill="#3F4B4D"/>
<path d="M572.481 178.227C573.055 178.227 573.521 176.725 573.521 174.872C573.521 173.02 573.055 171.518 572.481 171.518C571.907 171.518 571.442 173.02 571.442 174.872C571.442 176.725 571.907 178.227 572.481 178.227Z" fill="#3F4B4D"/>
<path d="M589.349 176.053C589.923 176.053 590.389 174.551 590.389 172.699C590.389 170.846 589.923 169.344 589.349 169.344C588.775 169.344 588.31 170.846 588.31 172.699C588.31 174.551 588.775 176.053 589.349 176.053Z" fill="#3F4B4D"/>
</svg>
