<svg width="500" height="375" viewBox="0 0 500 375" fill="none" xmlns="http://www.w3.org/2000/svg">
<path d="M255.375 317.969C252.969 314.125 251.188 309.969 250.094 305.594C249.563 303.438 249.031 301.156 249 298.938C249 297.844 249.125 296.438 250.094 295.719C250.938 295.125 252.781 295.156 252.875 296.531C253.188 296.531 253.5 296.531 253.813 296.531C253.719 295.719 253.156 287.844 254.375 288.281C254.75 288.406 255 288.031 254.938 287.719C254.031 281.719 253.938 275.594 254.688 269.563C255.063 266.563 255.656 263.594 256.438 260.688C256.969 258.688 258.031 253.125 261.094 253.969C263.688 254.656 263.531 259.406 263.75 261.406C264.094 264.594 264.406 267.781 264.688 270.938C265.25 277.219 265.688 283.469 266.031 289.75C266.438 296.969 266.688 304.188 266.813 311.406C266.813 312 267.75 312 267.75 311.406C267.469 296.563 266.656 281.719 265.219 266.938C264.906 263.656 264.813 260.25 264.125 257.031C263.781 255.375 262.969 253.313 261.094 252.969C258.938 252.531 257.531 254.563 256.813 256.281C255.563 259.25 254.875 262.594 254.281 265.75C252.938 273.094 252.844 280.594 253.969 287.969C254.156 287.781 254.344 287.594 254.531 287.406C251.344 286.313 252.656 295.313 252.781 296.563C252.844 297.156 253.75 297.188 253.719 296.563C253.625 294.938 251.938 294.156 250.438 294.531C248.094 295.094 247.844 297.938 248.031 299.906C248.625 306.469 250.969 312.906 254.469 318.469C254.875 318.938 255.688 318.469 255.375 317.969Z" fill="#92ADB3"/>
<path d="M266.969 286.156C267.125 285.031 267.344 283.937 267.625 282.812C267.781 282.281 267.937 281.719 268.125 281.187C268.219 280.937 269.062 278.625 269.687 279.781C269.906 280.219 270.531 280 270.562 279.531C270.781 275.125 271.906 270.844 274 266.937C274.437 266.094 275.625 263.531 276.687 265.187C277.187 266 277.156 267.062 277.187 267.969C277.25 270.312 277.281 272.656 277.281 275C277.281 284.406 276.812 293.781 275.844 303.125C275.781 303.656 276.625 303.75 276.75 303.25C276.969 302.531 279.25 297.812 280.406 300.25C280.875 301.25 280.375 303.25 280.281 304.312C280.031 307.437 279.687 310.562 279.219 313.687C279.125 314.281 280.031 314.531 280.125 313.937C280.5 311.531 280.781 309.125 281.031 306.687C281.156 305.312 281.281 303.906 281.375 302.5C281.437 301.625 281.562 300.656 281.281 299.812C280.906 298.687 279.875 298.25 278.812 298.812C277.281 299.625 276.344 301.406 275.875 302.969C276.187 303 276.5 303.062 276.781 303.094C277.969 291.406 278.406 279.656 278.125 267.937C278.094 266.625 278.062 264.562 276.687 263.812C275.312 263.062 274.312 264.437 273.719 265.469C271.219 269.719 269.906 274.562 269.656 279.469C269.937 279.375 270.25 279.312 270.531 279.219C270 278.219 268.75 278.281 268.062 279.094C267.437 279.844 267.187 281 266.937 281.906C266.562 283.187 266.312 284.469 266.125 285.781C265.969 286.5 266.875 286.75 266.969 286.156Z" fill="#92ADB3"/>
<path d="M82.0625 365.062C77.625 361.5 73.75 357.25 70.6562 352.469C69.1562 350.156 67.875 347.75 66.75 345.25C65.75 343 63.75 339.094 66.0625 337.031C66.2187 336.875 66.2188 336.625 66.125 336.469C65.5 335.281 60.3125 325.5 62.5312 325.031C62.8437 324.969 62.9375 324.594 62.8125 324.344C59.9687 318.812 57.0937 313.125 55.875 306.937C55.2812 304 54.875 300.5 55.6562 297.562C55.875 296.656 55.8437 296.781 56.8437 296.469C57.8437 296.156 57.8437 296.156 58.5937 296.875C59.1875 297.469 59.6562 298.219 60.0937 298.937C60.9687 300.312 61.7812 301.719 62.5625 303.156C65.625 308.812 68.25 314.687 71 320.469C73.9062 326.562 76.8437 332.625 79.75 338.719C83.0312 345.562 86.3125 352.375 89.5938 359.219C89.8438 359.75 90.6562 359.281 90.4062 358.75C83.75 344.906 77.125 331.031 70.4687 317.187C67.3437 310.656 64.5 303.781 60.4062 297.75C59.4062 296.281 57.2812 293.875 55.4687 295.75C54.8125 296.437 54.6562 297.406 54.5312 298.312C54.3125 300.062 54.2812 301.812 54.4062 303.562C55 311.156 58.5312 318.156 61.9687 324.844C62.0625 324.625 62.1562 324.375 62.25 324.156C60.3437 324.562 60.9687 326.969 61.4062 328.25C62.4687 331.25 63.75 334.156 65.2812 336.969C65.3125 336.781 65.3438 336.594 65.3438 336.406C63.5312 338.031 63.9062 340.594 64.5937 342.656C65.625 345.625 67.0937 348.531 68.6875 351.219C72 356.781 76.2812 361.687 81.3125 365.75C81.875 366.094 82.5312 365.437 82.0625 365.062Z" fill="#92ADB3"/>
<path d="M78.2813 332.5C77.2188 330.781 76.4375 328.969 75.9688 327C75.75 326 75.625 325 75.5625 323.969C75.5313 323.531 75.5313 323.094 75.5625 322.625C75.5625 322.438 75.5938 322.281 75.5938 322.094C75.5 321.344 75.8438 321 76.6563 321.031C76.9375 321.563 77.7188 321.094 77.4688 320.563C74.875 315.063 73.3438 309.094 73.0313 303.031C72.9063 300.625 72.4063 296.625 74.1875 294.688C76.3125 292.344 79.125 299.969 79.6563 301.313C84.0625 312.5 88.0312 323.875 91.5312 335.406C93.5312 341.969 95.375 348.594 97.0625 355.25C97.2188 355.844 98.125 355.594 97.9688 355C94.5 341.406 90.4062 327.969 85.7187 314.75C84.5625 311.469 83.3438 308.219 82.0938 304.969C80.9688 302.031 80 298.938 78.375 296.219C77.5938 294.906 75.9688 292.125 74.125 293.406C72.1875 294.75 72.0625 297.813 72.0313 299.906C71.9063 307.219 73.5625 314.438 76.6563 321.063C76.9375 320.906 77.1875 320.75 77.4688 320.594C77.0938 319.875 76.3125 319.656 75.5938 320.063C74.5625 320.656 74.625 322.188 74.5938 323.188C74.5625 326.656 75.5938 330.063 77.4375 333C77.7813 333.5 78.5938 333.031 78.2813 332.5Z" fill="#92ADB3"/>
<path d="M416.656 322.625C414.188 318.812 412.188 314.719 410.75 310.437C410.063 308.375 409.469 306.25 409.031 304.094C408.563 301.812 408.313 299.469 409.469 297.344C409.219 297.375 408.969 297.406 408.719 297.437C410.813 299.281 412.281 301.5 413.125 304.156C413.313 304.719 414.188 304.5 414.031 303.906C410.688 291.469 409.063 278.344 412.25 265.687C411.938 265.687 411.656 265.687 411.344 265.687C412.656 270.125 413.656 274.656 414.344 279.25C414.656 279.156 414.938 279.094 415.25 279C414.25 273.656 414.031 268.219 414.625 262.812C415.156 258.125 415.906 252.312 419.656 249C419.438 249 419.219 249 419 249C420.031 250.312 419.969 252 420 253.594C420.031 255 420.031 256.406 420 257.844C419.969 260.875 419.906 263.906 419.844 266.937C419.688 272.906 419.438 278.875 419.344 284.812C419.125 296.594 419.469 308.437 421.844 320.031C421.969 320.625 422.875 320.375 422.75 319.781C420.25 307.469 420.063 294.875 420.344 282.375C420.469 276.219 420.719 270.031 420.875 263.875C420.938 260.844 420.969 257.812 420.969 254.781C420.969 252.562 421.156 250.187 419.688 248.344C419.531 248.125 419.188 248.187 419.031 248.344C415.344 251.594 414.469 257.031 413.875 261.656C413.094 267.5 413.313 273.437 414.375 279.25C414.5 279.844 415.375 279.594 415.281 279C414.594 274.406 413.594 269.875 412.281 265.437C412.156 265 411.5 264.969 411.375 265.437C408.156 278.25 409.781 291.562 413.156 304.156C413.469 304.062 413.75 304 414.063 303.906C413.188 301.125 411.625 298.719 409.438 296.781C409.219 296.594 408.844 296.594 408.688 296.875C406.563 300.719 408.313 305.781 409.531 309.656C411.031 314.406 413.156 318.937 415.875 323.125C416.156 323.594 416.969 323.125 416.656 322.625Z" fill="#92ADB3"/>
<path d="M420.625 300.938C420.438 295.657 421.188 290.469 422.906 285.5C422.719 285.594 422.531 285.719 422.344 285.813C422.656 286.188 422.969 286.563 423.281 286.938C423.375 287.469 424.188 287.313 424.188 286.813C424.438 281.375 425.438 276 427.188 270.844C428.063 268.25 429.125 265.719 430.375 263.25C431.562 260.907 432.844 258.469 435.156 257.032C434.938 256.844 434.688 256.688 434.469 256.5C431.219 274.594 428.719 292.782 426.969 311.094C427.281 311.094 427.594 311.094 427.906 311.094C427.906 307.407 429.094 303.938 431.406 301.063C431.125 300.938 430.875 300.844 430.594 300.719C430.563 304.782 430.187 308.844 429.437 312.844C429.312 313.438 430.125 313.657 430.344 313.094C431.094 311.094 432.625 309.594 434.625 308.875C434.438 308.688 434.25 308.5 434.063 308.313C433.281 312.219 432.5 316.157 431.688 320.063C431.563 320.657 432.469 320.907 432.594 320.313C433.375 316.407 434.156 312.469 434.969 308.563C435.031 308.25 434.75 307.844 434.406 308C432.063 308.875 430.344 310.563 429.469 312.875C429.781 312.969 430.062 313.032 430.375 313.125C431.156 309.032 431.563 304.907 431.594 300.75C431.594 300.375 431.063 300.094 430.781 300.407C428.313 303.469 426.969 307.157 427 311.094C427 311.719 427.875 311.688 427.938 311.094C429.656 292.875 432.156 274.75 435.406 256.75C435.469 256.375 435.094 256 434.719 256.219C432.688 257.5 431.375 259.469 430.25 261.563C428.875 264.125 427.688 266.813 426.719 269.563C424.719 275.125 423.625 280.938 423.344 286.844C423.656 286.813 423.969 286.75 424.25 286.719C424.063 285.782 423.563 285.25 422.656 284.938C422.406 284.844 422.156 285.032 422.094 285.25C420.375 290.313 419.594 295.594 419.781 300.938C419.688 301.532 420.625 301.532 420.625 300.938Z" fill="#92ADB3"/>
<path d="M365.219 157.906C365.594 154 370.563 155.719 372.594 156.875C374.375 157.875 376.219 159.063 378.344 158.969C382.094 158.844 384.406 155.281 387.906 154.5C391.938 153.594 394.438 158.406 398.438 157.969C400.25 157.75 401.75 156.563 403.312 155.688C405.688 154.344 407.563 154.594 409.781 156.125C411.406 157.219 412.906 158.344 414.969 158.25C416.438 158.156 417.719 157.469 418.063 156C418.219 155.406 417.313 155.156 417.156 155.75C416.531 158.281 413.094 157.25 411.625 156.281C410.031 155.25 408.438 153.844 406.438 153.781C402.219 153.656 399.844 158.656 395.375 156.375C393.687 155.5 392.25 154.188 390.406 153.656C388.875 153.25 387.344 153.563 385.938 154.25C384.25 155.063 382.813 156.281 381.188 157.156C378.625 158.5 376.406 157.969 373.969 156.594C372.031 155.5 369.844 154.063 367.469 154.563C365.75 154.906 364.438 156.156 364.25 157.906C364.219 158.5 365.156 158.5 365.219 157.906Z" fill="#A9DFE7"/>
<path d="M396.344 170.062C397.656 167.687 400.813 166.562 403.219 167.937C404.875 168.875 406.219 170.875 408.313 170.875C410.75 170.875 411.906 168.187 414.031 167.437C417.094 166.375 418.906 168.312 421.219 169.844C422.719 170.844 424.344 171 425.875 169.969C427.656 168.781 428.844 166.312 431.219 166.187C434.813 166 440 172.187 443.312 167.906C443.688 167.437 443.031 166.781 442.656 167.25C439.875 170.844 434.687 165.312 431.469 165.25C429.969 165.219 428.781 165.969 427.719 166.969C426.5 168.125 425.25 169.969 423.344 169.75C421.437 169.531 420.187 167.594 418.5 166.812C417.031 166.125 415.281 166.031 413.75 166.562C411.906 167.187 411 168.937 409.313 169.687C407.219 170.656 405.594 168.406 404 167.375C401.125 165.469 397.094 166.625 395.469 169.625C395.25 170.125 396.063 170.594 396.344 170.062Z" fill="#92ADB3"/>
<path d="M28.3125 163.281C28.3438 161.531 30.3125 161.656 31.3125 162.188C31.9375 162.531 32.4688 163.031 33 163.5C33.7188 164.125 34.4375 164.781 35.3125 165.125C36.7813 165.688 38.1563 165.281 39.375 164.375C40.8125 163.313 41.9688 161.563 43.75 161.063C45.9375 160.438 47.75 162.375 49.4375 163.406C50.8125 164.25 52.2812 164.781 53.875 164.156C56.0312 163.313 57.0312 160.875 59.2188 160.063C60.4062 159.625 61.2188 159.813 62.0312 160.844C62.3438 161.219 62.5312 161.625 62.9062 161.969C63.4062 162.438 64.0625 162.688 64.75 162.781C66.25 162.969 67.7188 162.281 68.4688 160.969C68.7813 160.438 67.9688 159.969 67.6563 160.5C66.9688 161.719 65.3438 162.25 64.0625 161.625C63.0312 161.094 62.75 159.813 61.75 159.25C60.2188 158.375 58.3438 159.25 57.125 160.281C55.0313 162.031 53.4688 164.594 50.4063 162.938C48.8125 162.063 47.4688 160.625 45.6875 160.188C44.1562 159.813 42.75 160.375 41.5625 161.313C40.0625 162.469 38.5938 164.719 36.4688 164.5C34.0313 164.25 32.9063 161.25 30.4375 160.938C28.9063 160.719 27.4063 161.719 27.375 163.313C27.3438 163.875 28.2813 163.875 28.3125 163.281Z" fill="#92ADB3"/>
<path d="M52.5938 156.094C53.125 154.344 54.5937 153.157 56.375 152.813C57.25 152.625 58.1875 152.657 59.0312 152.969C60.0312 153.344 60.5625 154.094 61.3438 154.75C63.5313 156.625 65.7188 155.032 67.6875 153.657C68.9688 152.75 70.5312 151.625 72 152.875C72.9062 153.657 73.375 155 74.5938 155.407C75.9375 155.813 76.75 154.75 77.5625 153.907C79.5938 151.75 82.25 153.219 84.2813 154.594C84.7813 154.938 85.25 154.125 84.75 153.782C83.2188 152.75 81.3125 151.594 79.375 151.813C78.6563 151.907 78.0313 152.157 77.5 152.625C76.5938 153.375 75.75 155.25 74.3125 154.094C73.1563 153.188 72.75 151.657 71.125 151.375C69.8125 151.157 68.5938 151.938 67.5313 152.625C66.3125 153.438 64.6562 155.032 63.0312 154.625C61.9688 154.344 61.375 153.219 60.5 152.625C59.9063 152.219 59.2188 151.938 58.4688 151.813C55.5938 151.313 52.5313 152.969 51.7188 155.813C51.5 156.407 52.4063 156.657 52.5938 156.094Z" fill="#A9DFE7"/>
<path d="M236.094 37.375C235.781 35.9063 237.5 35.3125 238.531 35.5625C239.281 35.7188 239.969 36.2813 240.531 36.75C241.406 37.5 242.219 38.375 243.219 38.9688C244.969 40 246.625 39.6563 248.219 38.5625C249.094 37.9688 249.937 37.1875 250.937 36.8438C252.25 36.375 253.437 36.8125 254.594 37.4688C256.125 38.3438 257.531 39.625 259.344 39.9063C261.188 40.1875 262.656 39.1563 263.969 37.9688C265.875 36.25 267.531 34.9375 270.219 35.8438C273.656 37 276.937 40.125 280.562 37.625C281.562 36.9375 282.406 35.9063 283.563 35.5C285.281 34.9063 285.875 36.5625 287.062 37.375C288.812 38.625 291.125 38.375 292.781 37.0938C293.25 36.7188 292.594 36.0625 292.125 36.4375C290.719 37.5313 288.688 37.5625 287.313 36.375C286.563 35.7188 286.094 34.875 285.125 34.5313C283.281 33.9063 281.75 35.5938 280.438 36.5938C276.188 39.75 272.594 34.4063 268.219 34.5313C266.187 34.5938 264.781 36 263.375 37.2813C262.469 38.0938 261.438 38.9688 260.125 39C258.875 39 257.781 38.3125 256.781 37.6875C255.219 36.6875 253.562 35.4375 251.625 35.7188C249.469 36 248.219 38.0938 246.156 38.625C243 39.4375 241.344 34.9375 238.375 34.5938C236.594 34.375 234.844 35.8125 235.25 37.6563C235.312 38.2188 236.219 37.9688 236.094 37.375Z" fill="#A9DFE7"/>
<path d="M270.125 45.9065C271.344 43.469 274.219 43.1252 276.594 43.9377C278.469 44.5627 280.219 46.344 282.219 46.5315C283.906 46.6565 284.937 45.4065 286.125 44.4377C288.344 42.6252 290.781 42.969 293.156 44.219C294.5 44.9377 296.031 45.8752 297.625 45.6565C299.344 45.4065 300.031 43.9377 301.375 43.094C303.031 42.0627 304.844 44.0315 306.625 44.1252C308.25 44.219 309.781 43.5315 310.875 42.3752C311.281 41.9377 310.625 41.2815 310.219 41.719C309.312 42.6565 308.156 43.219 306.844 43.219C305.531 43.1877 304.75 42.469 303.594 42.0002C302.437 41.5315 301.437 41.8127 300.5 42.594C299.719 43.219 299.094 44.1252 298.156 44.5315C296.812 45.094 295.5 44.4065 294.312 43.7815C292.75 42.969 291.219 42.1252 289.375 42.219C287.719 42.3127 286.344 43.0315 285.125 44.094C283.844 45.219 282.719 46.0315 280.969 45.1565C279.937 44.6565 279 43.969 277.938 43.5002C274.969 42.1877 270.969 42.1877 269.344 45.469C269.063 45.969 269.844 46.4377 270.125 45.9065Z" fill="#92ADB3"/>
<path d="M56.3125 226.938C57.75 225.781 59.8125 224.313 61.5938 225.719C62.3438 226.313 62.8125 227.219 63.625 227.75C64.7813 228.531 66.0313 228.344 67.0625 227.469C68.4063 226.344 69.5625 223.656 71.6875 224.375C73.3438 224.906 74.3125 226.75 75.8125 227.563C79.25 229.438 80.75 225.281 83.0625 223.75C85.4375 222.188 86.5625 225.5 88.125 226.594C89.3125 227.406 90.9375 227.625 91.8125 226.344C92.1562 225.844 91.3438 225.375 91 225.875C89.5 228.063 86.5625 223.063 85.2188 222.563C83.9375 222.094 82.7188 222.719 81.7813 223.594C80.625 224.688 79.6563 226.594 78 227.031C76.0313 227.531 74.5625 225.25 73.1875 224.219C72.1563 223.438 70.9375 223.063 69.7188 223.594C68.25 224.25 67.5625 225.844 66.3438 226.813C64.2188 228.5 63.0313 225.281 61.3438 224.469C59.2813 223.5 57.125 225 55.5938 226.25C55.1875 226.656 55.8438 227.313 56.3125 226.938Z" fill="#92ADB3"/>
<path d="M261.75 213.844C261.969 211.969 264.281 212.219 265.438 212.844C266.281 213.281 266.969 213.937 267.75 214.469C269.031 215.344 270.562 216 272.125 215.437C273.937 214.75 275 213.062 276.938 212.531C279.375 211.844 281.344 212.687 283.531 213.656C284.812 214.219 286.25 214.719 287.625 214.125C289.125 213.5 290.031 211.5 291.875 212C294.281 212.656 295.625 215.531 298.375 215.156C298.969 215.094 298.969 214.156 298.375 214.219C295.406 214.594 293.844 210.5 290.812 211C288.937 211.281 288.125 213.531 286.125 213.469C283.969 213.406 282.125 211.687 279.969 211.375C278.094 211.125 276.156 211.531 274.562 212.562C273.719 213.094 273.063 213.906 272.188 214.344C270.469 215.25 268.937 214.187 267.594 213.187C266.25 212.219 264.781 211.062 263 211.469C261.781 211.75 260.938 212.594 260.781 213.844C260.75 214.437 261.687 214.437 261.75 213.844Z" fill="#92ADB3"/>
<path d="M392.156 71.8441C392.219 70.5004 393.875 70.1879 394.969 70.3441C396.094 70.5004 397.094 71.2191 398.125 71.6566C399.688 72.3441 401.063 72.3441 402.594 71.5941C403.719 71.0629 404.719 70.4066 405.969 70.2191C407.375 70.0316 408.688 70.3441 409.938 71.0629C411.438 71.9379 412.75 73.0316 414.563 73.1254C417.719 73.3129 420.406 70.9066 423.094 69.5629C425.188 68.5004 427.125 68.2191 429.219 69.4066C430.813 70.2816 432.375 71.5629 434.313 71.3441C436.5 71.0941 437.094 68.6566 439.156 68.0629C441.563 67.3754 444.25 68.4691 446.406 69.4379C446.938 69.6879 447.438 68.8754 446.875 68.6254C443.813 67.2504 439.375 65.6566 436.625 68.5004C435.531 69.6254 434.781 70.7504 432.969 70.2816C431.5 69.9066 430.344 68.8441 429 68.2191C427.469 67.5004 425.875 67.5004 424.281 68.0316C420.938 69.1566 417.563 72.9691 413.781 72.0629C411.5 71.5004 409.969 69.5316 407.5 69.2504C406.594 69.1566 405.656 69.2191 404.781 69.5004C403.563 69.8754 402.563 70.7191 401.375 71.0629C398.75 71.8129 396.844 69.2191 394.281 69.3129C392.75 69.3754 391.281 70.1566 391.188 71.7816C391.188 72.4691 392.125 72.4691 392.156 71.8441Z" fill="#92ADB3"/>
<path d="M76.0313 200.625C77.9988 200.625 79.5938 199.03 79.5938 197.062C79.5938 195.095 77.9988 193.5 76.0313 193.5C74.0637 193.5 72.4688 195.095 72.4688 197.062C72.4688 199.03 74.0637 200.625 76.0313 200.625Z" fill="#E5C7C1"/>
<path d="M268.188 83.875C270.517 83.875 272.406 81.9862 272.406 79.6562C272.406 77.3263 270.517 75.4375 268.188 75.4375C265.858 75.4375 263.969 77.3263 263.969 79.6562C263.969 81.9862 265.858 83.875 268.188 83.875Z" fill="#E5C7C1"/>
<path d="M399.969 205.031C401.177 205.031 402.156 204.052 402.156 202.844C402.156 201.636 401.177 200.656 399.969 200.656C398.761 200.656 397.781 201.636 397.781 202.844C397.781 204.052 398.761 205.031 399.969 205.031Z" fill="#E5C7C1"/>
<path d="M431.406 42.6875C433.581 42.6875 435.344 40.9246 435.344 38.75C435.344 36.5754 433.581 34.8125 431.406 34.8125C429.232 34.8125 427.469 36.5754 427.469 38.75C427.469 40.9246 429.232 42.6875 431.406 42.6875Z" fill="#E5C7C1"/>
<path d="M61.1562 58.5312C62.8994 58.5312 64.3125 57.1181 64.3125 55.375C64.3125 53.6318 62.8994 52.2188 61.1562 52.2188C59.4131 52.2188 58 53.6318 58 55.375C58 57.1181 59.4131 58.5312 61.1562 58.5312Z" fill="#E5C7C1"/>
<path d="M70.6875 71.5625C72.1545 71.5625 73.3438 70.3733 73.3438 68.9062C73.3438 67.4392 72.1545 66.25 70.6875 66.25C69.2205 66.25 68.0312 67.4392 68.0312 68.9062C68.0312 70.3733 69.2205 71.5625 70.6875 71.5625Z" fill="#A9DFE7"/>
<path d="M67.5 211.406C69.2604 211.406 70.6875 209.979 70.6875 208.219C70.6875 206.458 69.2604 205.031 67.5 205.031C65.7396 205.031 64.3125 206.458 64.3125 208.219C64.3125 209.979 65.7396 211.406 67.5 211.406Z" fill="#A9DFE7"/>
<path d="M412.938 50.5937C414.197 50.5937 415.219 49.5724 415.219 48.3125C415.219 47.0526 414.197 46.0312 412.938 46.0312C411.678 46.0312 410.656 47.0526 410.656 48.3125C410.656 49.5724 411.678 50.5937 412.938 50.5937Z" fill="#A9DFE7"/>
<path d="M255.812 192.25C257.383 192.25 258.656 190.977 258.656 189.406C258.656 187.836 257.383 186.562 255.812 186.562C254.242 186.562 252.969 187.836 252.969 189.406C252.969 190.977 254.242 192.25 255.812 192.25Z" fill="#A9DFE7"/>
<path d="M391.25 218.406C392.665 218.406 393.812 217.259 393.812 215.844C393.812 214.429 392.665 213.281 391.25 213.281C389.835 213.281 388.688 214.429 388.688 215.844C388.688 217.259 389.835 218.406 391.25 218.406Z" fill="#A9DFE7"/>
<path d="M385.656 133.906C386.656 132.937 387.781 131.906 389.156 131.531C390.875 131.062 391.563 132.187 392.938 132.844C394.188 133.437 395.375 133 396.5 132.375C397.25 131.937 398 131.375 398.844 131.156C400.188 130.812 400.813 131.781 401.688 132.531C402.75 133.437 403.938 133.562 405.281 133.125C406.844 132.625 408.625 131.094 410.344 131.625C411.969 132.125 412.531 134.156 414.437 134.25C416.062 134.312 417.375 133.031 418.625 132.219C421.344 130.469 423.875 131.812 426.312 133.406C426.812 133.75 427.281 132.937 426.781 132.594C425.031 131.406 422.969 130.125 420.75 130.375C418.719 130.594 417.438 132.219 415.656 133C413.188 134.094 412.344 130.906 410.156 130.594C408.5 130.375 406.969 131.437 405.5 132.031C404.188 132.562 403.187 132.562 402.094 131.594C401.531 131.094 401.094 130.531 400.344 130.25C398.844 129.719 397.469 130.75 396.219 131.469C394.906 132.219 394.031 132.437 392.688 131.562C391.938 131.062 391.375 130.594 390.438 130.5C388.313 130.281 386.469 131.906 385.062 133.281C384.562 133.656 385.219 134.344 385.656 133.906Z" fill="#C7D6D9"/>
<path d="M40.5 272.75C41.6875 271.313 43.1875 271.406 44.625 272.313C45.4063 272.781 46.0313 273.188 46.9688 273.125C48.625 273 49.875 271.656 51.25 270.906C52.7188 270.094 53.6875 270.406 54.9063 271.531C55.5625 272.156 56.1875 272.781 57.0938 273C58.6562 273.344 60 272.313 61.1875 271.438C62.0313 270.813 62.9063 270.063 63.9375 269.844C65.1875 269.563 66.25 270.219 67.2813 270.781C68.9375 271.656 70.5 272.188 72.2188 271.125C73.0313 270.625 73.6875 269.906 74.4688 269.375C75.75 268.531 76.9062 268.719 78.2812 269.125C79.9062 269.594 81.5312 270.188 82.9375 268.969C83.4062 268.563 82.7187 267.906 82.2812 268.313C80.5625 269.75 77.6875 267.531 75.6563 267.875C73.6563 268.219 72.6562 270.281 70.7813 270.781C68.5313 271.344 66.75 268.813 64.5 268.875C62.75 268.906 61.4063 270.188 60.0938 271.125C59.125 271.813 57.9688 272.563 56.75 271.938C55.875 271.469 55.3438 270.563 54.5313 270.031C53.0313 269.063 51.5313 269.656 50.1563 270.531C49.4375 271 48.7813 271.531 48 271.906C46.4688 272.625 45.6875 271.719 44.375 271.094C42.7813 270.313 40.9375 270.813 39.8438 272.156C39.4688 272.563 40.125 273.219 40.5 272.75Z" fill="#C7D6D9"/>
<path d="M236 22.5939C236.938 24.0939 238.5 25.0314 240.25 25.1564C242.563 25.3127 243.531 23.8752 245.438 22.9689C247.75 21.8752 249.531 24.6877 251.938 24.3439C253.688 24.0939 255.031 22.7502 256.469 21.8127C257.5 21.1252 258.625 20.6252 259.875 20.9689C260.906 21.2189 261.781 21.8752 262.688 22.3752C264.188 23.2189 265.75 23.6564 267.25 22.5939C268.25 21.9064 268.906 20.6564 270.156 20.3439C271.938 19.8752 273.594 21.3127 275.031 22.1252C276.688 23.0939 278.719 23.7814 280.438 22.5939C280.938 22.2502 280.469 21.4377 279.969 21.7814C277.563 23.4689 274.906 20.6564 272.75 19.7814C271.063 19.0939 269.531 19.2502 268.188 20.4689C267.156 21.3752 266.406 22.5314 264.844 22.2814C263.844 22.1252 262.938 21.4377 262.094 20.9377C260.719 20.1564 259.281 19.6252 257.719 20.1252C256.125 20.6564 254.938 21.8752 253.531 22.7189C252.594 23.2814 251.594 23.6564 250.531 23.3127C249.563 23.0314 248.813 22.3127 247.875 21.9689C245.875 21.2502 244.688 22.5002 243.094 23.5002C240.969 24.8127 238.219 24.2502 236.844 22.1252C236.469 21.5939 235.656 22.0627 236 22.5939Z" fill="#E5C7C1"/>
<path d="M320.125 102.125C318.438 102.031 317.031 102.906 312.938 107C308.813 111.125 306.844 113.625 303.781 117.062C302.687 118.312 303.531 117.312 292.313 128.312C291.313 129.312 289.5 131.062 286.625 132.281C285.719 132.656 283.625 133.5 281.094 133.468C279.531 133.437 276.875 133.062 272.344 129.781C271.031 128.812 268.094 126.562 261.5 118.218C260.188 116.562 257.656 113.312 254.781 109.437C252.812 106.75 250.156 104.531 248.5 101.625C247.844 100.5 246.75 98.3746 244.906 98.0621C244.719 98.0308 243.719 97.9058 243.188 98.4683C242.5 99.2183 242.875 100.875 243.563 101.906C244.25 102.968 245 103.031 245.406 104.125C245.656 104.75 245.625 105.343 245.562 105.718C242.687 104.062 240.188 102.843 238.344 101.968C234.875 100.343 232.937 99.7184 231.125 99.2809C226.562 98.1871 224.906 98.8746 224.062 99.4683C223.844 99.6246 222.594 100.468 222.719 101.343C222.875 102.437 225.094 102.937 226.781 103.343C229.531 104 231.344 103.843 231.375 104.125C231.406 104.468 228.438 104.75 224.5 106.406C222.906 107.093 221.313 107.906 220.156 109.562C220 109.812 218.844 111.406 219.312 111.968C219.656 112.406 220.906 112.156 222.375 111.375C222.25 111.562 221.531 112.718 222 113.5C222.5 114.375 224.125 114.187 225 114.093C226.594 113.906 227.531 113.375 228.438 113C229.656 112.5 231.563 112.031 234.344 112.406C231.906 113.406 230.062 114.5 228.781 115.343C226.031 117.156 225.656 118 225.656 118.687C225.656 119.375 226.031 120.312 226.75 120.562C228.25 121.093 229.406 118.093 232.281 117.875C233.156 117.812 234.031 118.125 235.719 118.75C237.875 119.562 239.125 120.375 240 120.843C241.594 121.687 244.094 122.468 248.031 122C252.406 127.062 256.406 130.937 259.312 133.625C266.156 139.875 269.687 143.031 275.5 144.968C280.312 146.562 284.312 146.531 286.75 146.5C295.875 146.375 302.5 143 305.562 141.375C309.188 139.468 315.813 136 320.75 128.5C322.875 125.281 323.969 121.875 326.156 115.062C326.781 113.093 327.219 111.531 326.906 109.593C326.281 106.093 323.406 102.312 320.125 102.125Z" fill="white"/>
<path opacity="0.15" d="M225.937 119.812C225.625 119.125 227.156 117.781 227.406 117.594C229.594 115.687 232.344 115.344 233.594 115.219C236.781 114.906 240.906 114.5 245.406 115.969C254.25 118.812 254.281 125.406 264 132.937C267.062 135.312 275.437 141.812 286.281 141.5C293.656 141.281 298.875 138.031 304.438 134.562C309.688 131.281 318.5 124.75 326.125 112.719C326.125 114.031 326.062 115.875 325.594 118.031C324.375 123.938 321.375 127.844 319.5 130.219C313.031 138.406 304.844 141.844 301.625 143.156C298.125 144.594 293.281 146.531 286.719 146.5C275.687 146.437 267.75 140.812 265.562 139.219C263.094 137.406 259.719 133.906 252.906 126.906C250.562 124.5 248.687 122.5 247.437 121.156C246.844 121.531 245.875 122.062 244.656 122.156C242.25 122.344 241.188 120.75 237.25 119.25C234.75 118.312 233.531 117.844 232.219 118.219C230.594 118.719 229.969 120 227.812 120.219C227.531 120.219 226.219 120.344 225.937 119.812Z" fill="#5E7073"/>
<path d="M319.875 101.719C313.562 104.687 309.031 110.094 304.625 115.312C299.656 121.187 294.062 127.344 287.375 131.312C279.094 136.219 271.719 129.156 266.437 123.312C260.906 117.187 256.344 110.344 251.125 104C249.719 102.25 248.219 100.562 246.656 98.9686C245.812 98.1248 244.687 96.9686 243.375 97.6873C242.469 98.1873 242.094 99.4373 242.281 100.406C242.687 102.5 245.406 103.75 245.031 106.031C244.937 106.625 245.844 106.875 245.937 106.281C246.156 104.969 245.688 103.937 244.906 102.875C244.438 102.25 243.844 101.687 243.5 100.969C243.063 100.031 242.781 97.7498 245.25 98.8748C245.656 99.0623 246.094 99.7186 246.406 100.031C249.219 102.969 251.75 106.187 254.219 109.437C258.844 115.594 263.438 121.781 268.875 127.25C273.531 131.969 280.094 135.969 286.719 132.75C289.812 131.25 292.594 128.781 295.156 126.531C298.094 123.969 300.812 121.187 303.375 118.25C308.437 112.406 313.187 105.906 320.375 102.531C320.906 102.281 320.437 101.469 319.875 101.719Z" fill="#3F4B4D"/>
<path d="M235.406 105.844C233.437 104.313 231.219 103.344 228.719 103.063C227.375 102.906 225.906 103 224.625 102.438C223.812 102.063 223.656 102 223.625 101.031C223.594 100.063 223.656 100.125 224.469 99.8438C225.375 99.5313 226.313 99.4063 227.25 99.375C230.469 99.25 233.656 100.344 236.562 101.656C239.594 103 242.469 104.656 245.219 106.469C245.719 106.813 246.188 106 245.688 105.656C242.281 103.406 238.687 101.406 234.875 99.9375C231.531 98.6563 227.719 97.8438 224.219 98.9375C223.375 99.2188 222.375 99.625 222.219 100.625C222 101.875 223.219 102.844 224.219 103.281C225.562 103.875 227.063 103.813 228.5 103.969C230.813 104.188 232.938 105.063 234.75 106.469C235.219 106.875 235.875 106.219 235.406 105.844Z" fill="#3F4B4D"/>
<path d="M231.25 103.719C228.5 104.156 225.844 105.062 223.437 106.5C221.75 107.5 218.656 109.281 218.781 111.594C218.906 114.406 221.781 112.437 223.031 111.844C226.156 110.312 229.562 109.437 233.031 109.187C233.625 109.156 233.625 108.219 233.031 108.25C231 108.406 228.969 108.719 227 109.312C225.937 109.625 224.937 110 223.906 110.437C223.031 110.812 222 111.656 221.094 111.844C220.469 112.312 220.156 111.844 220.125 110.437C220.344 110.125 220.625 109.812 220.906 109.562C221.375 109.125 221.906 108.719 222.406 108.344C223.25 107.75 224.125 107.219 225.031 106.75C227.062 105.719 229.25 105.031 231.5 104.687C232.094 104.531 231.844 103.625 231.25 103.719Z" fill="#3F4B4D"/>
<path d="M223.219 110.594C222.156 111.594 220.156 115.094 222.969 115.219C223.625 115.25 224.281 114.875 224.875 114.625C225.719 114.281 226.594 113.969 227.469 113.719C228.438 113.437 229.438 113.219 230.438 113.031C231.313 112.875 233.312 112.344 234.125 112.906C234.625 113.25 235.094 112.437 234.594 112.094C233.187 111.094 230.063 112.094 228.563 112.437C227.313 112.719 226.094 113.125 224.875 113.594C224.344 113.812 222.562 114.875 222.562 113.156C222.562 112.5 223.438 111.625 223.875 111.219C224.344 110.844 223.687 110.187 223.219 110.594Z" fill="#3F4B4D"/>
<path d="M234.375 112.25C231.625 113.25 228.656 114.344 226.625 116.531C225.656 117.562 223.531 121.094 226.469 121.062C227.938 121.031 229.344 119.875 230.625 119.25C232.906 118.187 235.125 118.844 237.25 119.906C240.563 121.562 243.375 122.906 247.187 122.312C247.781 122.219 247.531 121.312 246.938 121.406C243.312 121.969 240.625 120.5 237.469 118.969C235.438 117.969 233.187 117.281 230.937 118.094C229.875 118.5 228.937 119.156 227.906 119.625C227.5 119.844 227.063 119.969 226.625 120.094C225.969 119.562 225.844 119.031 226.281 118.5C226.469 117.906 227.156 117.312 227.594 116.875C229.531 115 232.156 114.031 234.625 113.156C235.187 112.969 234.937 112.063 234.375 112.25Z" fill="#3F4B4D"/>
<path d="M247.313 121.906C252.469 127.688 257.906 133.281 263.75 138.312C268.844 142.719 274.469 145.875 281.219 146.719C294.25 148.312 308.625 142.531 317.563 133.094C322.625 127.75 326.031 120.969 326.875 113.625C326.938 113.031 326 113.031 325.938 113.625C324.438 126.844 314.5 137.062 302.687 142.219C296.625 144.875 289.969 146.406 283.312 146C276.219 145.563 270.188 142.594 264.813 138.031C258.781 132.906 253.219 127.156 247.938 121.25C247.594 120.781 246.906 121.469 247.313 121.906Z" fill="#3F4B4D"/>
<path d="M143.438 127.375C142.125 128.094 140.344 129.281 138.594 131.094C131.063 139 132.75 150.562 133.031 152.469C133.531 155.906 135 165.938 143.719 170.844C149.25 173.969 154.938 173.438 157.281 173.094C156.812 169.813 156.219 166.438 155.5 162.938C152.594 149.188 148.156 137.281 143.438 127.375Z" fill="#3F4B4D"/>
<path fill-rule="evenodd" clip-rule="evenodd" d="M143.647 126.726L143.861 127.173C148.593 137.108 153.044 149.05 155.959 162.841L155.959 162.843C156.68 166.351 157.275 169.736 157.745 173.027L157.811 173.49L157.349 173.558C154.973 173.906 149.157 174.455 143.488 171.252C134.559 166.226 133.068 155.979 132.569 152.548L132.568 152.537C132.567 152.537 132.567 152.537 132.567 152.537C132.425 151.57 131.926 148.155 132.417 143.976C132.909 139.798 134.395 134.822 138.254 130.77L138.257 130.768L138.257 130.768C140.045 128.915 141.867 127.701 143.212 126.964L143.647 126.726ZM138.932 131.418C135.261 135.273 133.826 140.03 133.348 144.086C132.871 148.141 133.356 151.46 133.495 152.4L133.495 152.401C133.998 155.857 135.451 165.654 143.949 170.435L143.949 170.436C149.011 173.295 154.217 173.019 156.75 172.694C156.294 169.57 155.724 166.359 155.041 163.033C152.188 149.534 147.854 137.817 143.23 128.031C142.005 128.746 140.457 129.839 138.932 131.418Z" fill="#3F4B4D"/>
<path d="M253.75 156.438C264.451 156.438 273.125 147.763 273.125 137.062C273.125 126.362 264.451 117.688 253.75 117.688C243.049 117.688 234.375 126.362 234.375 137.062C234.375 147.763 243.049 156.438 253.75 156.438Z" fill="white"/>
<path fill-rule="evenodd" clip-rule="evenodd" d="M253.75 118.156C243.308 118.156 234.844 126.621 234.844 137.062C234.844 147.504 243.308 155.969 253.75 155.969C264.192 155.969 272.656 147.504 272.656 137.062C272.656 126.621 264.192 118.156 253.75 118.156ZM233.906 137.062C233.906 126.103 242.791 117.219 253.75 117.219C264.709 117.219 273.594 126.103 273.594 137.062C273.594 148.022 264.709 156.906 253.75 156.906C242.791 156.906 233.906 148.022 233.906 137.062Z" fill="#3F4B4D"/>
<path d="M198.125 105.75C207.531 105.75 215.156 97.4953 215.156 87.3125C215.156 77.1297 207.531 68.875 198.125 68.875C188.719 68.875 181.094 77.1297 181.094 87.3125C181.094 97.4953 188.719 105.75 198.125 105.75Z" fill="white"/>
<path fill-rule="evenodd" clip-rule="evenodd" d="M198.125 69.3438C189.012 69.3438 181.562 77.3529 181.562 87.3125C181.562 97.2721 189.012 105.281 198.125 105.281C207.238 105.281 214.688 97.2721 214.688 87.3125C214.688 77.3529 207.238 69.3438 198.125 69.3438ZM180.625 87.3125C180.625 76.9066 188.426 68.4062 198.125 68.4062C207.824 68.4062 215.625 76.9066 215.625 87.3125C215.625 97.7184 207.824 106.219 198.125 106.219C188.426 106.219 180.625 97.7184 180.625 87.3125Z" fill="#3F4B4D"/>
<path d="M157.271 173.107C165.342 171.24 169.455 159.217 166.457 146.253C163.459 133.288 154.486 124.291 146.414 126.158C138.343 128.024 134.23 140.047 137.228 153.012C140.226 165.976 149.2 174.973 157.271 173.107Z" fill="white"/>
<path fill-rule="evenodd" clip-rule="evenodd" d="M138.114 135.575C136.484 140.339 136.202 146.495 137.685 152.906C139.167 159.317 142.123 164.725 145.679 168.29C149.24 171.861 153.345 173.533 157.165 172.65C160.986 171.767 163.939 168.462 165.571 163.69C167.201 158.925 167.483 152.769 166 146.358C164.518 139.948 161.562 134.54 158.006 130.975C154.445 127.404 150.34 125.731 146.52 126.614C142.699 127.498 139.746 130.803 138.114 135.575ZM137.227 135.271C138.919 130.324 142.058 126.684 146.309 125.701C150.559 124.718 154.978 126.61 158.67 130.312C162.368 134.02 165.398 139.593 166.914 146.147C168.429 152.701 168.153 159.038 166.459 163.993C164.766 168.94 161.627 172.58 157.376 173.563C153.126 174.546 148.708 172.654 145.015 168.952C141.317 165.244 138.287 159.671 136.771 153.117C135.256 146.563 135.532 140.226 137.227 135.271Z" fill="#3F4B4D"/>
<path d="M195.656 97.5939C195.656 95.2189 195.656 92.8752 195.656 90.5002C195.656 87.094 195.656 83.719 195.656 80.3127C195.656 79.344 195.656 78.344 195.656 77.3752C195.5 77.5315 195.344 77.6877 195.188 77.844C196.531 77.7502 197.906 77.8752 199.219 78.1565C201.469 78.6565 203.719 79.8127 204.5 82.1252C204.969 83.5002 204.938 85.094 204.438 86.469C204 87.594 203.156 88.469 202.125 89.0627C200.469 90.0315 198.5 90.344 196.625 90.344C195.031 90.344 193.469 90.344 191.875 90.344C191.781 90.344 191.688 90.344 191.594 90.344C191 90.344 191 91.2815 191.594 91.2815C193.188 91.2815 194.781 91.2502 196.375 91.2815C198.313 91.3127 200.375 91.0002 202.125 90.1252C203.281 89.5627 204.281 88.6877 204.938 87.5627C205.719 86.1565 205.875 84.4689 205.625 82.9064C205.188 80.1252 203 78.344 200.438 77.5315C198.813 77.0315 196.969 76.8127 195.281 76.9065C195.25 76.9065 195.219 76.9065 195.188 76.9065C194.938 76.9377 194.719 77.094 194.719 77.3752C194.719 79.7502 194.719 82.0939 194.719 84.4689C194.719 87.8752 194.719 91.2502 194.719 94.6565C194.719 95.6252 194.719 96.6252 194.719 97.5939C194.719 98.2189 195.656 98.2189 195.656 97.5939Z" fill="#3F4B4D"/>
<path d="M154.25 161.781C153.313 159.156 152.375 156.562 151.438 153.937C150.063 150.094 148.656 146.25 147.281 142.406C146.906 141.344 146.531 140.281 146.125 139.219C146.063 139.406 145.969 139.563 145.906 139.75C146 139.688 146.125 139.656 146.219 139.594C146.281 139.563 146.344 139.531 146.375 139.531C146.406 139.531 146.5 139.469 146.438 139.5C146.375 139.531 146.5 139.469 146.531 139.469C146.687 139.406 146.875 139.344 147.031 139.281C148 138.938 149 138.656 150.031 138.531C151.219 138.375 152.469 138.406 153.594 138.75C154.906 139.156 156.031 140.031 156.812 141.187C158.562 143.812 159.031 147.469 157.219 150.187C156.563 151.156 155.688 151.969 154.719 152.594C154.281 152.875 153.844 153.125 153.406 153.375C153.219 153.469 153.031 153.562 152.844 153.656C152.75 153.688 152.687 153.719 152.594 153.75C152.5 153.781 152.563 153.781 152.563 153.781C152.531 153.781 152.5 153.812 152.437 153.812C150.969 154.406 149.469 154.906 147.969 155.437C147.875 155.469 147.781 155.5 147.688 155.531C147.125 155.75 147.375 156.656 147.937 156.437C149.437 155.906 150.937 155.375 152.437 154.812C154.406 154.062 156.281 152.875 157.594 151.219C158.5 150.062 159.094 148.687 159.25 147.187C159.469 145.312 158.969 143.375 158.188 141.719C157.5 140.281 156.375 139 154.937 138.281C153.719 137.656 152.344 137.437 150.969 137.5C149.125 137.562 147.125 138.031 145.5 138.906C145.469 138.937 145.437 138.937 145.406 138.937C145.25 139.031 145.125 139.281 145.188 139.469C146.125 142.094 147.063 144.687 148 147.312C149.375 151.156 150.781 155 152.156 158.844C152.531 159.906 152.906 160.969 153.313 162.031C153.563 162.594 154.469 162.375 154.25 161.781Z" fill="#3F4B4D"/>
<rect x="125" y="192" width="52" height="52" rx="3" fill="white"/>
<rect x="185" y="223" width="52" height="52" rx="3" fill="white"/>
<path d="M174.375 192.312H127.937C126.469 192.312 125.312 193.5 125.312 194.937V204.625H177V194.937C177 193.5 175.812 192.312 174.375 192.312Z" fill="#E5C7C1"/>
<path fill-rule="evenodd" clip-rule="evenodd" d="M127.781 192.812C126.696 192.812 125.812 193.696 125.812 194.781V241.562C125.812 242.647 126.696 243.531 127.781 243.531H174.562C175.647 243.531 176.531 242.647 176.531 241.562V194.781C176.531 193.696 175.647 192.812 174.562 192.812H127.781ZM124.875 194.781C124.875 193.179 126.179 191.875 127.781 191.875H174.562C176.165 191.875 177.469 193.179 177.469 194.781V241.562C177.469 243.165 176.165 244.469 174.562 244.469H127.781C126.179 244.469 124.875 243.165 124.875 241.562V194.781Z" fill="#3F4B4D"/>
<path fill-rule="evenodd" clip-rule="evenodd" d="M135.406 187.688C135.406 187.429 135.616 187.219 135.875 187.219C138.696 187.219 140.969 189.491 140.969 192.313C140.969 195.134 138.696 197.406 135.875 197.406C135.616 197.406 135.406 197.196 135.406 196.938C135.406 196.679 135.616 196.469 135.875 196.469C138.179 196.469 140.031 194.616 140.031 192.313C140.031 190.009 138.179 188.156 135.875 188.156C135.616 188.156 135.406 187.946 135.406 187.688Z" fill="#3F4B4D"/>
<path fill-rule="evenodd" clip-rule="evenodd" d="M144.062 187.688C144.062 187.429 144.272 187.219 144.531 187.219C147.353 187.219 149.625 189.491 149.625 192.313C149.625 195.134 147.353 197.406 144.531 197.406C144.272 197.406 144.062 197.196 144.062 196.938C144.062 196.679 144.272 196.469 144.531 196.469C146.835 196.469 148.687 194.616 148.687 192.313C148.687 190.009 146.835 188.156 144.531 188.156C144.272 188.156 144.062 187.946 144.062 187.688Z" fill="#3F4B4D"/>
<path fill-rule="evenodd" clip-rule="evenodd" d="M152.719 187.688C152.719 187.429 152.929 187.219 153.188 187.219C156.009 187.219 158.281 189.491 158.281 192.313C158.281 195.134 156.009 197.406 153.188 197.406C152.929 197.406 152.719 197.196 152.719 196.938C152.719 196.679 152.929 196.469 153.188 196.469C155.491 196.469 157.344 194.616 157.344 192.313C157.344 190.009 155.491 188.156 153.188 188.156C152.929 188.156 152.719 187.946 152.719 187.688Z" fill="#3F4B4D"/>
<path fill-rule="evenodd" clip-rule="evenodd" d="M161.344 187.688C161.344 187.429 161.554 187.219 161.812 187.219C164.634 187.219 166.906 189.491 166.906 192.313C166.906 195.134 164.634 197.406 161.812 197.406C161.554 197.406 161.344 197.196 161.344 196.938C161.344 196.679 161.554 196.469 161.812 196.469C164.116 196.469 165.969 194.616 165.969 192.313C165.969 190.009 164.116 188.156 161.812 188.156C161.554 188.156 161.344 187.946 161.344 187.688Z" fill="#3F4B4D"/>
<path fill-rule="evenodd" clip-rule="evenodd" d="M156.846 156.714C156.935 156.957 156.811 157.226 156.568 157.315L149.068 160.065C148.825 160.154 148.555 160.03 148.466 159.786C148.377 159.543 148.502 159.274 148.745 159.185L156.245 156.435C156.488 156.346 156.757 156.471 156.846 156.714Z" fill="#3F4B4D"/>
<path fill-rule="evenodd" clip-rule="evenodd" d="M191.125 93.7188C191.125 93.4599 191.335 93.25 191.594 93.25H199.094C199.353 93.25 199.562 93.4599 199.562 93.7188C199.562 93.9776 199.353 94.1875 199.094 94.1875H191.594C191.335 94.1875 191.125 93.9776 191.125 93.7188Z" fill="#3F4B4D"/>
<path d="M251.688 147.188C251.688 144.813 251.688 142.469 251.688 140.094C251.688 136.688 251.688 133.313 251.688 129.906C251.688 128.938 251.688 127.938 251.688 126.969C251.531 127.125 251.375 127.281 251.219 127.438C252.562 127.344 253.937 127.469 255.25 127.75C257.5 128.25 259.75 129.406 260.531 131.719C261 133.094 260.969 134.688 260.469 136.063C260.031 137.188 259.187 138.063 258.156 138.656C256.5 139.625 254.531 139.938 252.656 139.938C251.062 139.938 249.5 139.938 247.906 139.938C247.812 139.938 247.719 139.938 247.625 139.938C247.031 139.938 247.031 140.875 247.625 140.875C249.219 140.875 250.812 140.844 252.406 140.875C254.344 140.906 256.406 140.594 258.156 139.719C259.312 139.156 260.312 138.281 260.969 137.156C261.75 135.75 261.906 134.063 261.656 132.5C261.219 129.719 259.031 127.938 256.469 127.125C254.844 126.625 253 126.406 251.312 126.5C251.281 126.5 251.25 126.5 251.219 126.5C250.969 126.531 250.75 126.688 250.75 126.969C250.75 129.344 250.75 131.688 250.75 134.063C250.75 137.469 250.75 140.844 250.75 144.25C250.75 145.219 250.75 146.219 250.75 147.188C250.75 147.781 251.688 147.781 251.688 147.188Z" fill="#3F4B4D"/>
<path fill-rule="evenodd" clip-rule="evenodd" d="M247.188 143.312C247.188 143.054 247.397 142.844 247.656 142.844H255.125C255.384 142.844 255.594 143.054 255.594 143.312C255.594 143.571 255.384 143.781 255.125 143.781H247.656C247.397 143.781 247.188 143.571 247.188 143.312Z" fill="#3F4B4D"/>
<path fill-rule="evenodd" clip-rule="evenodd" d="M144.75 212.5C144.75 212.272 144.469 212.151 144.307 212.292L139.932 216.073C139.736 216.243 139.44 216.221 139.27 216.025C139.101 215.829 139.123 215.533 139.318 215.364L143.693 211.583C143.693 211.583 143.693 211.583 143.693 211.583C144.469 210.911 145.688 211.478 145.688 212.5V234.969C145.688 235.228 145.478 235.437 145.219 235.437C144.96 235.437 144.75 235.228 144.75 234.969V212.5Z" fill="#3F4B4D"/>
<path fill-rule="evenodd" clip-rule="evenodd" d="M151.754 210.956C152.003 211.027 152.147 211.286 152.076 211.535L152.076 211.535L152.076 211.535L152.075 211.536L152.074 211.542C152.072 211.547 152.07 211.556 152.067 211.568C152.06 211.591 152.051 211.627 152.039 211.675C152.015 211.77 151.98 211.911 151.941 212.092C151.863 212.454 151.765 212.974 151.688 213.598C151.533 214.85 151.465 216.502 151.795 218.142C152.125 219.779 152.846 221.379 154.249 222.572C155.65 223.763 157.784 224.594 161.031 224.594C161.29 224.594 161.5 224.804 161.5 225.063C161.5 225.322 161.29 225.531 161.031 225.531C157.622 225.531 155.253 224.656 153.642 223.286C152.033 221.918 151.234 220.104 150.876 218.327C150.519 216.553 150.596 214.791 150.757 213.483C150.839 212.826 150.942 212.279 151.025 211.894C151.067 211.702 151.103 211.549 151.13 211.445C151.143 211.392 151.154 211.351 151.162 211.323C151.165 211.309 151.168 211.298 151.171 211.291L151.173 211.282L151.174 211.279L151.174 211.278C151.174 211.278 151.174 211.277 151.625 211.406L151.174 211.277C151.246 211.029 151.505 210.884 151.754 210.956Z" fill="#3F4B4D"/>
<path fill-rule="evenodd" clip-rule="evenodd" d="M161 210.938C161.259 210.938 161.469 211.147 161.469 211.406V234.969C161.469 235.228 161.259 235.438 161 235.438C160.741 235.438 160.531 235.228 160.531 234.969V211.406C160.531 211.147 160.741 210.938 161 210.938Z" fill="#3F4B4D"/>
<path d="M233.937 223.031H187.531C186.062 223.031 184.906 224.219 184.906 225.656V235.344H236.562V225.656C236.562 224.219 235.375 223.031 233.937 223.031Z" fill="#A9DFE7"/>
<path fill-rule="evenodd" clip-rule="evenodd" d="M187.344 223.5C186.259 223.5 185.375 224.384 185.375 225.469V272.281C185.375 273.366 186.259 274.25 187.344 274.25H234.125C235.206 274.25 236.094 273.37 236.094 272.25V225.469C236.094 224.384 235.21 223.5 234.125 223.5H187.344ZM184.438 225.469C184.438 223.866 185.741 222.562 187.344 222.562H234.125C235.728 222.562 237.031 223.866 237.031 225.469V272.25C237.031 273.88 235.732 275.187 234.125 275.187H187.344C185.741 275.187 184.438 273.884 184.438 272.281V225.469Z" fill="#3F4B4D"/>
<path fill-rule="evenodd" clip-rule="evenodd" d="M194.969 218.406C194.969 218.147 195.179 217.938 195.438 217.938C198.259 217.938 200.531 220.21 200.531 223.031C200.531 225.853 198.259 228.125 195.438 228.125C195.179 228.125 194.969 227.915 194.969 227.656C194.969 227.397 195.179 227.187 195.438 227.187C197.741 227.187 199.594 225.335 199.594 223.031C199.594 220.728 197.741 218.875 195.438 218.875C195.179 218.875 194.969 218.665 194.969 218.406Z" fill="#3F4B4D"/>
<path fill-rule="evenodd" clip-rule="evenodd" d="M203.625 218.406C203.625 218.147 203.835 217.938 204.094 217.938C206.915 217.938 209.188 220.21 209.188 223.031C209.188 225.853 206.915 228.125 204.094 228.125C203.835 228.125 203.625 227.915 203.625 227.656C203.625 227.397 203.835 227.187 204.094 227.187C206.397 227.187 208.25 225.335 208.25 223.031C208.25 220.728 206.397 218.875 204.094 218.875C203.835 218.875 203.625 218.665 203.625 218.406Z" fill="#3F4B4D"/>
<path fill-rule="evenodd" clip-rule="evenodd" d="M212.281 218.406C212.281 218.147 212.491 217.938 212.75 217.938C215.571 217.938 217.844 220.21 217.844 223.031C217.844 225.853 215.571 228.125 212.75 228.125C212.491 228.125 212.281 227.915 212.281 227.656C212.281 227.397 212.491 227.187 212.75 227.187C215.054 227.187 216.906 225.335 216.906 223.031C216.906 220.728 215.054 218.875 212.75 218.875C212.491 218.875 212.281 218.665 212.281 218.406Z" fill="#3F4B4D"/>
<path fill-rule="evenodd" clip-rule="evenodd" d="M220.938 218.406C220.938 218.147 221.147 217.938 221.406 217.938C224.228 217.938 226.5 220.21 226.5 223.031C226.5 225.853 224.228 228.125 221.406 228.125C221.147 228.125 220.938 227.915 220.938 227.656C220.938 227.397 221.147 227.187 221.406 227.187C223.71 227.187 225.562 225.335 225.562 223.031C225.562 220.728 223.71 218.875 221.406 218.875C221.147 218.875 220.938 218.665 220.938 218.406Z" fill="#3F4B4D"/>
<path fill-rule="evenodd" clip-rule="evenodd" d="M206.519 241.918C205.959 241.516 205.243 241.281 204.344 241.281C202.684 241.281 201.527 241.7 200.713 242.295C199.897 242.891 199.389 243.691 199.075 244.511C198.76 245.334 198.645 246.165 198.611 246.797C198.594 247.111 198.597 247.372 198.605 247.553C198.608 247.643 198.613 247.713 198.617 247.759C198.618 247.783 198.62 247.8 198.621 247.811L198.622 247.822L198.622 247.823L198.622 247.824C198.65 248.081 198.465 248.312 198.208 248.341C197.95 248.369 197.719 248.184 197.69 247.927L198.156 247.875C197.69 247.927 197.69 247.926 197.69 247.926L197.69 247.925L197.69 247.923L197.689 247.918L197.688 247.899C197.686 247.883 197.684 247.861 197.682 247.832C197.677 247.775 197.672 247.693 197.668 247.59C197.66 247.385 197.656 247.094 197.675 246.746C197.712 246.053 197.838 245.119 198.199 244.176C198.561 243.231 199.164 242.265 200.161 241.537C201.16 240.808 202.519 240.344 204.344 240.344C205.414 240.344 206.327 240.626 207.066 241.157C207.803 241.686 208.338 242.442 208.688 243.344C209.383 245.135 209.37 247.544 208.753 250.132C207.516 255.318 203.801 261.448 197.881 265.299L197.878 265.301C197.859 265.313 197.855 265.323 197.853 265.328C197.85 265.337 197.849 265.352 197.853 265.368C197.858 265.385 197.866 265.394 197.871 265.398C197.873 265.4 197.875 265.401 197.879 265.403C197.883 265.404 197.891 265.406 197.906 265.406H209.469C209.728 265.406 209.937 265.616 209.937 265.875C209.937 266.134 209.728 266.344 209.469 266.344H197.906C196.886 266.344 196.559 265.036 197.37 264.513C203.074 260.802 206.656 254.885 207.841 249.915C208.435 247.424 208.414 245.228 207.814 243.683C207.517 242.917 207.082 242.322 206.519 241.918Z" fill="#3F4B4D"/>
<path fill-rule="evenodd" clip-rule="evenodd" d="M215.223 242.48C216.447 241.024 218.062 240.344 219.594 240.344C220.864 240.344 222.613 240.482 224.042 241.617C225.49 242.769 226.5 244.855 226.5 248.5C226.5 250.372 225.911 252.415 225.056 254.406C224.198 256.402 223.058 258.375 221.924 260.115C220.789 261.857 219.656 263.372 218.806 264.452C218.381 264.992 218.026 265.424 217.778 265.721C217.653 265.87 217.555 265.985 217.488 266.063C217.454 266.103 217.429 266.132 217.411 266.153L217.391 266.176L217.384 266.184L217.384 266.184C217.384 266.184 217.383 266.184 217.031 265.875L217.383 266.184C217.213 266.379 216.916 266.398 216.722 266.227C216.527 266.056 216.508 265.76 216.679 265.566L216.68 265.564L216.685 265.559L216.703 265.538C216.72 265.519 216.744 265.491 216.777 265.453C216.841 265.377 216.937 265.265 217.058 265.12C217.302 264.829 217.65 264.404 218.069 263.872C218.907 262.808 220.023 261.315 221.139 259.603C221.443 259.136 221.748 258.652 222.046 258.157C221.795 258.102 221.449 258.019 221.039 257.899C220.181 257.647 219.033 257.234 217.879 256.584C215.574 255.286 213.188 253.001 213.188 249.156C213.188 246.136 214 243.934 215.223 242.48ZM222.547 257.303C222.486 257.291 222.395 257.274 222.279 257.249C222.045 257.198 221.708 257.118 221.303 256.999C220.491 256.761 219.413 256.372 218.339 255.767C216.192 254.558 214.125 252.53 214.125 249.156C214.125 246.302 214.891 244.331 215.941 243.083C216.99 241.835 218.344 241.281 219.594 241.281C220.824 241.281 222.293 241.425 223.458 242.351C224.603 243.262 225.562 245.02 225.562 248.5C225.562 250.191 225.026 252.1 224.194 254.036C223.72 255.139 223.154 256.241 222.547 257.303Z" fill="#3F4B4D"/>
<path d="M323.906 326.594C324.031 330.562 324.188 334.563 324.313 338.531C321.219 339.25 317.406 340.406 313.25 342.406C308.844 344.5 305.187 345.062 304.375 347.781C304.187 348.438 304.187 349 304.219 349.375C305.719 349.344 307.937 349.25 310.594 348.875C314.969 348.25 318.031 347.219 320.344 346.5C323.656 345.469 328.375 344.156 334.5 343.031C334.375 341.875 334.25 340.719 334.156 339.562C333.719 334.594 333.531 329.844 333.5 325.281C330.312 325.75 327.094 326.156 323.906 326.594Z" fill="#3F4B4D"/>
<path d="M306.344 181.25C306.281 182.594 306.219 184.531 306.125 186.875C305.969 191.062 305.438 206.625 305.688 224.937C306.25 266.562 310.594 301.719 311.75 310.75C312.531 316.937 313.281 322 313.75 325.219C315.031 325.875 316.469 326.437 318.062 326.812C327.687 329.219 336.312 323.906 339.094 322.031C338.375 317.469 337.344 310.781 336.312 302.687C334.062 285.281 331.188 262.406 331.344 234.375C331.406 222.5 332.031 206.406 334.406 187.312C335.219 185.156 338.875 174.969 334.875 171.156C330.719 167.219 318.875 170.406 306.344 181.25Z" fill="white"/>
<path opacity="0.17" d="M325.844 193.531C325.469 197.094 324.906 203.125 324.469 210.594C323.781 222.031 322.063 258.344 329.313 307.062C330.031 311.938 331.031 318.219 332.406 325.563C334.625 324.375 336.875 323.188 339.094 322.031C335.281 300 333.469 281.313 332.531 267.156C331.719 254.938 331.531 245.156 331.437 239.688C331.094 222.156 331.531 207.25 332.062 195.844C330 195.094 327.937 194.312 325.844 193.531Z" fill="#5E7073"/>
<path d="M305.875 181.25C304.25 218.906 305.375 256.656 309.344 294.125C310.438 304.562 311.781 314.969 313.312 325.344C313.406 325.937 314.312 325.688 314.219 325.094C308.75 287.969 306.031 250.438 306.094 212.875C306.125 202.344 306.375 191.781 306.812 181.25C306.844 180.656 305.906 180.656 305.875 181.25Z" fill="#3F4B4D"/>
<path d="M313.656 325.812C322.156 329.468 332.219 328.125 339.437 322.343C339.906 321.968 339.25 321.312 338.781 321.687C331.906 327.187 322.219 328.5 314.125 325C313.563 324.781 313.094 325.593 313.656 325.812Z" fill="#3F4B4D"/>
<path d="M331.406 198.125C329.969 230.438 331.094 262.844 334.875 294.969C335.937 303.969 337.187 312.906 338.656 321.844C338.75 322.438 339.656 322.187 339.562 321.594C334.344 289.719 331.719 257.438 331.719 225.125C331.719 216.125 331.937 207.125 332.344 198.125C332.375 197.5 331.437 197.5 331.406 198.125Z" fill="#3F4B4D"/>
<path d="M323.344 327.812C323.5 331.375 323.656 334.969 323.844 338.531C323.969 338.375 324.063 338.219 324.188 338.094C319.406 339.219 314.812 340.938 310.5 343.281C309.344 343.906 301.188 347.906 303.875 349.688C305.5 350.781 307.937 350 309.625 349.594C312.406 348.906 315.187 348.25 317.969 347.562C323.531 346.219 329.063 344.844 334.625 343.5C334.813 343.469 335 343.25 334.969 343.063C334.344 337.156 334 331.25 333.969 325.312C333.969 324.719 333.031 324.719 333.031 325.312C333.062 331.25 333.375 337.188 334.031 343.063C334.156 342.906 334.25 342.75 334.375 342.625C329.906 343.719 325.437 344.813 321 345.906C316.594 346.969 312.187 348.25 307.75 349.125C307.187 349.25 306.594 349.313 306.031 349.313C305.625 349.313 305.25 349.281 304.875 349.156C304.312 348.719 304.25 348.406 304.781 348.156C305.219 347.469 306.625 346.813 307.313 346.375C308.969 345.281 310.687 344.281 312.437 343.406C316.25 341.469 320.313 340.031 324.469 339.062C324.656 339.031 324.813 338.812 324.813 338.625C324.656 335.062 324.5 331.469 324.313 327.906C324.25 327.219 323.312 327.219 323.344 327.812Z" fill="#3F4B4D"/>
<path d="M385.313 322.531C386.594 324.406 387.875 326.312 389.156 328.187C388.469 329.594 387.313 331.812 385.719 334.437C383.031 338.781 381.469 340.312 379.156 344.094C378.094 345.844 376.625 348.5 375.219 352.031C376.188 351.719 377.625 351.156 379.219 350.219C382.375 348.344 383.625 346.406 386.406 343.531C390.219 339.563 390.719 340.25 394.063 336.781C395.719 335.062 398.063 332.313 400.406 328.375C399.969 327.156 399.469 325.906 398.938 324.656C397.625 321.625 396.219 318.875 394.813 316.469C391.656 318.469 388.5 320.5 385.313 322.531Z" fill="#3F4B4D"/>
<path d="M319.937 181.312C318.531 183 315.969 186.094 316.75 189.438C317.219 191.469 318.719 192.781 319.687 193.5C320.75 193.875 322.281 194.563 323.656 195.906C324.875 197.125 325.687 198.562 327.469 204.219C328.594 207.812 329.094 209.656 329.344 210.844C331.125 219.062 341.094 249.688 345.031 260.531C353.406 283.688 366.75 306.656 378.031 323.937C380.094 323.812 382.594 323.438 385.312 322.5C392.75 319.906 397.062 314.625 398.906 312.062C397.344 308.75 395.094 303.938 392.469 298.094C380.656 271.562 373.562 250.688 368.344 235.219C358.281 205.438 353.156 185.906 352.031 181.469C350.719 176.375 349.719 172.125 349 169.125C345.75 169.688 326.906 172.938 319.937 181.312Z" fill="white"/>
<path opacity="0.15" d="M342.844 174.937C344 179.687 345.75 186.75 348.063 195.25C351.063 206.281 359.313 235.781 373.844 273.656C378.406 285.5 384.594 300.875 392.562 318.594C394.687 316.531 396.844 314.469 398.969 312.406C396.906 307.656 393.969 300.75 390.5 292.406C382.594 273.313 376.344 258.25 369.625 239C363 220 358.531 204.469 353.125 185.625C350.625 176.937 348.656 169.688 347.25 164.5C345.812 168 344.344 171.469 342.844 174.937Z" fill="#5E7073"/>
<path d="M349.656 174.313C358.906 210.031 370.437 245.156 384.187 279.375C388.031 288.969 392.094 298.531 396.281 308C396.531 308.563 397.344 308.063 397.094 307.531C382.156 273.844 369.375 239.219 358.844 203.875C355.906 194 353.125 184.063 350.563 174.063C350.406 173.5 349.5 173.75 349.656 174.313Z" fill="#3F4B4D"/>
<path d="M319.562 193.937C323.562 194.719 325.25 199 326.344 202.469C327.813 207.125 329.156 211.812 330.563 216.469C333.469 226.125 336.344 235.781 339.313 245.437C344.844 263.344 352.719 280.25 361.719 296.625C366.812 305.937 372.219 315.062 377.625 324.187C377.938 324.719 378.75 324.25 378.438 323.719C368.625 307.125 358.781 290.5 350.781 272.969C342.375 254.531 337.125 234.969 331.281 215.625C329.719 210.5 328.438 205.187 326.531 200.187C325.313 197.031 323.406 193.719 319.813 193.031C319.219 192.937 318.969 193.844 319.562 193.937Z" fill="#3F4B4D"/>
<path d="M378.375 324.656C386.625 323.594 394.188 319.344 399.312 312.781C399.688 312.313 399.031 311.656 398.656 312.125C393.719 318.5 386.406 322.719 378.375 323.75C377.781 323.781 377.781 324.719 378.375 324.656Z" fill="#3F4B4D"/>
<path d="M396.219 308C397.094 309.375 397.844 310.844 398.5 312.344C398.75 312.906 399.562 312.406 399.312 311.875C398.656 310.375 397.906 308.937 397.031 307.531C396.719 307.031 395.906 307.5 396.219 308Z" fill="#3F4B4D"/>
<path d="M384.906 322.75C385.844 324 386.781 325.219 387.719 326.469C388.469 327.437 388.875 327.781 388.344 329.25C388.125 329.875 387.656 330.469 387.313 331.062C385.906 333.437 384.312 335.719 382.719 337.969C379.656 342.375 376.594 346.812 374.75 351.906C374.625 352.219 374.937 352.469 375.187 352.5C377.687 352.687 379.562 350.531 381.25 349C383.531 346.906 385.781 344.812 387.969 342.625C392.375 338.281 396.594 333.781 400.625 329.125C401.031 328.656 400.344 328 399.969 328.469C396.313 332.687 392.5 336.812 388.531 340.75C386.625 342.656 384.687 344.531 382.719 346.375C381.719 347.281 380.75 348.219 379.719 349.125C378.406 350.312 377.062 351.75 375.187 351.594C375.344 351.781 375.5 352 375.625 352.187C377.719 346.344 381.5 341.406 384.969 336.344C386.469 334.156 388.406 331.75 389.344 329.219C389.75 328.125 389.469 327.406 388.812 326.469C387.812 325.062 386.719 323.687 385.656 322.281C385.375 321.812 384.562 322.281 384.906 322.75Z" fill="#3F4B4D"/>
<path d="M394.406 316.688C396.594 320.469 398.469 324.406 399.969 328.5C400.187 329.062 401.094 328.813 400.875 328.25C399.344 324.063 397.469 320.063 395.219 316.219C394.906 315.688 394.094 316.188 394.406 316.688Z" fill="#3F4B4D"/>
<path d="M319.937 100.75C314.687 104.594 312.562 109.469 310.375 114.406C307.031 121.938 306.562 128.188 305.781 139.563C305.625 142 305.375 145.688 305.438 163.344C305.469 170.688 305.5 176.781 305.531 181C308.25 182 311.312 182.875 314.719 183.375C331.437 185.844 345.156 178.188 350.906 174.469C350.031 169.5 349.156 164.5 348.281 159.531C348.562 151.75 349.531 145.563 350.344 141.406C351.812 134.031 353.281 130.531 354.844 121.219C356.656 110.25 355.875 107.469 354.844 105.469C352.219 100.313 346.906 98.3126 344.344 97.3439C336.406 94.3126 326.875 95.6564 319.937 100.75Z" fill="#6EC0CC"/>
<path d="M354.406 107.094C352.375 107.813 351.125 109.313 349.969 111.063C347.094 115.406 345.969 119.531 345.531 121.156C343.344 129.063 342.281 133.031 340.438 136.781C338.938 139.875 336.656 144.469 331.844 148.219C329.031 150.438 326.562 151.375 321.625 153.281C317.719 154.781 313.687 156.313 308.219 156.719C304.406 157 301.219 156.656 299.031 156.281C294.375 155.156 291.219 153.438 289.094 151.969C287.406 150.781 285.187 148.938 282.906 149.531C282.594 149.625 281.469 149.938 281.25 150.719C280.969 151.781 282.406 153.063 283.906 154.406C284.687 155.094 285.375 155.625 285.844 155.938C282.906 157.281 280.469 158.563 278.656 159.531C272.531 162.844 270.063 164.875 269.125 165.688C268.469 166.219 266.719 166.781 266.437 168.188C266.312 168.813 266.469 169.656 266.969 169.938C267.5 170.25 268.156 169.781 269.969 168.906C271 168.406 271.875 168.063 272.469 167.813C273.469 168.281 274.625 168.75 275.906 169.125C278.969 170 281.687 170.094 283.687 170C282.5 170.969 281.469 171.719 280.781 172.219C278.844 173.625 277.906 174.094 277.812 175.031C277.75 175.625 278 176.313 278.5 176.625C279.438 177.219 281 176.313 281.906 175.781C284.375 174.375 287.187 173.625 289.719 172.281C291.812 171.156 294.844 169.563 298.75 167.719C305.625 166.75 310.781 166.031 313.406 165.656C316.844 165.188 324.563 164.094 334 162C337.594 161.188 340.5 160.469 343.781 158.469C344.5 158.031 347.531 156.156 350.531 152.625C353.406 149.25 354.75 146.156 356.375 142.313C358.188 138.094 359.031 134.75 359.875 131.594C361.219 126.469 361.656 123 361.781 121.938C362.094 119.438 362.375 115.969 361.594 111.875C361.031 108.906 360.344 107.906 359.437 107.313C357.469 105.969 354.875 106.906 354.406 107.094Z" fill="white"/>
<path opacity="0.14" d="M359.437 107.312C359.094 110.594 358.469 115.188 357.281 120.594C355.594 128.344 354.187 134.625 351.094 140.156C344.375 152.031 331.656 156.719 326.812 158.5C321.344 160.531 313.312 161.969 297.281 164.844C297.281 164.844 295.969 165.094 283.687 170C283.031 170.25 280.406 171.344 278.781 173.937C278.531 174.344 277.562 175.844 278.062 176.437C278.625 177.125 280.812 176.281 281.937 175.812C286.937 173.75 293.844 170.312 298.781 167.75C304.219 166.969 308.656 166.375 311.656 165.969C328.062 163.812 332.812 163.562 339.562 160.469C342.437 159.156 345.656 157.656 348.937 154.469C352.937 150.625 354.562 146.688 356.969 140.906C359.562 134.656 360.375 130.094 361.562 123.469C362.281 119.375 362.562 116.5 361.75 113.094C361.187 110.531 360.219 108.594 359.437 107.312Z" fill="#5E7073"/>
<path d="M286.344 155.375C285.531 154.906 284.75 154.437 284 153.875C283.594 153.562 283.188 153.25 282.813 152.906C282.063 152.219 282.094 152.406 282.219 151.25C282.25 150.906 282.281 150.562 282.344 150.25C282.969 149.937 283.625 149.906 284.281 150.125C284.719 150.25 285.156 150.469 285.594 150.656C286.5 151.094 287.375 151.562 288.25 152.031C291.219 153.625 294.188 155.344 297.438 156.344C304.281 158.406 311.531 157.062 318.188 154.969C324.375 153 330.75 150.656 335.25 145.781C339.281 141.437 341.625 135.844 343.406 130.25C345.281 124.406 346.187 117.969 349.437 112.687C351.062 110 354.844 105.531 358.469 107.281C361.75 108.875 361.625 114.687 361.594 117.719C361.531 124.969 359.5 132.281 357.125 139.094C355.063 144.969 352.25 150.844 347.625 155.094C341.656 160.594 333.469 161.719 325.812 163.094C316.844 164.687 307.875 166.219 298.813 167.25C298.219 167.312 298.219 168.25 298.813 168.187C307.344 167.187 315.812 165.781 324.25 164.312C331.656 163 339.781 162.156 346.031 157.594C351.25 153.812 354.562 148.125 356.937 142.25C359.75 135.25 361.938 127.594 362.469 120.031C362.781 115.437 362.656 103.344 354.813 106.437C348.75 108.812 346.375 116.5 344.781 122.187C342.969 128.781 341.219 135.531 337.5 141.344C335.5 144.437 332.969 147.125 329.813 149.062C326.344 151.219 322.375 152.625 318.5 153.875C314 155.344 309.313 156.469 304.531 156.437C299.625 156.406 295.375 154.781 291.094 152.5C289.25 151.5 287.437 150.406 285.5 149.594C284.187 149.031 282.594 148.656 281.406 149.719C278.625 152.219 284.125 155.25 285.812 156.187C286.375 156.5 286.844 155.687 286.344 155.375Z" fill="#3F4B4D"/>
<path d="M285.594 155.531C281.781 157.25 278.094 159.187 274.563 161.406C272.781 162.5 271.063 163.687 269.375 164.906C268.281 165.687 266.594 166.594 266.031 167.906C265.719 168.625 265.813 169.594 266.469 170.125C267.563 170.969 269 169.906 269.969 169.406C273.813 167.375 277.719 165.469 281.688 163.75C282.25 163.5 281.75 162.687 281.219 162.937C278.25 164.25 275.281 165.625 272.375 167.094C271.031 167.781 269.531 168.969 268.063 169.312C267.344 169.5 266.844 169.312 266.906 168.531C266.938 168 267.219 167.719 267.625 167.375C268.313 166.75 269.094 166.25 269.844 165.687C274.906 162 280.344 158.875 286.063 156.312C286.625 156.094 286.156 155.281 285.594 155.531Z" fill="#3F4B4D"/>
<path d="M272.344 168.25C276.187 169 280.031 168.531 283.563 166.844C284.094 166.594 283.625 165.781 283.094 166.031C279.781 167.594 276.187 168.031 272.594 167.344C272 167.25 271.75 168.125 272.344 168.25Z" fill="#3F4B4D"/>
<path d="M274.438 168.75C277.094 170.531 280.25 171.062 283.375 170.312C283.969 170.156 283.719 169.25 283.125 169.406C280.25 170.125 277.375 169.594 274.906 167.937C274.406 167.625 273.938 168.437 274.438 168.75Z" fill="#3F4B4D"/>
<path d="M283.469 169.562C282.187 170.468 280.969 171.437 279.75 172.437C278.906 173.156 277.625 173.937 277.313 175.062C277.125 175.781 277.312 176.5 277.969 176.875C278.875 177.406 280.219 176.812 281.094 176.531C287.469 174.468 293.375 170.875 299.312 167.781C299.844 167.5 299.375 166.687 298.844 166.968C294.562 169.218 290.312 171.562 285.937 173.593C284.781 174.125 283.625 174.625 282.437 175.062C281.594 175.375 280.062 176.156 279.156 176.093C276.937 175.906 280.156 173.281 280.625 172.906C281.687 172.031 282.812 171.187 283.937 170.343C284.406 170.031 283.937 169.218 283.469 169.562Z" fill="#3F4B4D"/>
<path d="M325.625 53.1876C323.094 54.3751 321.344 56.5626 319.75 58.5313C318.937 59.5313 316.656 62.5001 315.187 67.0313C314.75 68.4063 312.5 75.5938 314.937 83.8751C316.187 88.0938 318 90.3126 318.406 90.8126C320.062 92.8126 321.875 94.0001 323.094 94.6876C323.844 94.7501 324.719 94.7501 325.625 94.6876C327.312 94.5626 328.75 94.2501 329.906 93.9063C330.344 94.9688 330.937 96.1563 331.719 97.4376C332.812 99.2188 333.969 100.594 335 101.656C336.562 100.844 338.625 99.5938 340.844 97.7188C342.625 96.1876 346.438 92.8751 349 87.1251C349.875 85.1563 352.062 79.5626 351.188 72.3126C350.938 70.3438 350.562 67.2188 348.75 63.9063C344.187 55.6563 332.812 49.8438 325.625 53.1876Z" fill="white"/>
<path opacity="0.12" d="M334.969 61.4688C335.781 63.25 336.844 66.2188 337 70.0313C337.156 74.2813 336.094 77.4375 335.5 79.125C332.531 87.5938 325.906 92.7188 323.062 94.6875C324.188 94.8125 325.688 94.875 327.438 94.625C329.75 94.2813 331.562 93.4688 332.719 92.8438C333.687 94.75 334.656 96.6563 335.625 98.5313C335.594 99.4375 335.687 100.563 335.969 101.781C336.625 104.625 338.062 106.594 339 107.656C338.906 105.938 338.875 103.469 339.312 100.563C339.562 98.9375 340.437 93.75 343.781 87.8125C346.25 83.4063 347.281 83.5313 349.062 79.4063C351.062 74.7813 350.969 71.8438 350.906 70.9688C350.844 69.6875 350.656 66.8125 348.969 64.5625C346.437 61.0625 340.812 59.9063 334.969 61.4688Z" fill="#5E7073"/>
<path d="M314.563 69.0937C314.625 68.8125 315.531 65.2812 317.063 62.5312C319.938 57.4687 325.344 54.8437 327.125 54.0312C327.625 56.125 329.031 60.6562 333.031 64.875C337.219 69.2812 341.906 70.875 344 71.4375C344.375 71.125 345.531 70.2187 346.875 70.4687C348.813 70.8437 349.656 73.4062 349.688 75.0937C349.688 75.625 349.656 77.2812 348.375 78.7187C346.656 80.625 344.25 80.4687 343.938 80.4375C342.375 82.1562 340.25 84.875 338.563 88.625C336.688 92.8125 334.5 97.7187 336.375 103.062C337.906 107.375 342 111.719 347.313 112.406C355.031 113.406 361.75 106.25 363.313 100.062C364.125 96.8437 362.969 96.0937 360.938 84.9375C359.406 76.5 359.906 76.0625 358.469 69.375C356.594 60.6562 355.594 56.25 352.688 53.375C348.719 49.5 343.531 49.0312 338.094 48.5625C331.688 48 323.313 47.25 317.5 53.0625C314.125 56.4375 311.906 61.75 312.344 67.125C312.563 69.625 313.281 71.625 313.906 72.9375C313.969 72 314.156 70.6562 314.563 69.0937Z" fill="#C7D6D9"/>
<path d="M317.375 89.3749C316.312 89.4062 314.594 94.7187 315.875 100.062C316.406 102.219 317.437 106.594 321.406 108.344C325.062 109.937 330.375 108.937 332.437 105.25C333.812 102.75 333.156 100.062 332.937 99.2187C331.937 97.4374 330.906 95.6874 329.906 93.9062C329.219 94.1562 328.406 94.4374 327.469 94.5937C325.5 94.9687 323.781 94.8749 322.531 94.6874C321.844 94.3437 320.875 93.7812 319.969 92.8749C318.062 91.0312 317.969 89.3437 317.375 89.3749Z" fill="#C7D6D9"/>
<path d="M319.406 58.1874C315.062 63.6874 312.875 70.6874 313.344 77.6874C313.781 84.2186 316.5 91.7499 322.625 94.9374C323.156 95.2186 323.625 94.4061 323.094 94.1249C317.125 90.9999 314.562 83.5624 314.25 77.1874C313.937 70.5936 315.969 63.9999 320.094 58.8124C320.438 58.4061 319.781 57.7186 319.406 58.1874Z" fill="#3F4B4D"/>
<path d="M323.094 95.156C329.156 95.4997 335.063 93.0935 339.219 88.656C339.625 88.2185 338.969 87.5622 338.563 87.9997C334.594 92.281 328.938 94.5622 323.125 94.2185C322.469 94.1872 322.5 95.1247 323.094 95.156Z" fill="#3F4B4D"/>
<path d="M329.687 94.6563C330.687 96.7813 331.937 98.75 333.437 100.563C333.812 101.031 334.469 100.375 334.094 99.9063C332.625 98.1563 331.437 96.25 330.5 94.1875C330.219 93.625 329.437 94.0938 329.687 94.6563Z" fill="#3F4B4D"/>
<path d="M344.25 71.8748C345.156 71.2185 346.375 70.6873 347.5 71.0935C349 71.6248 349.281 73.4373 349.25 74.781C349.187 77.5935 347.187 80.4998 344.062 80.031C343.469 79.9373 343.219 80.8435 343.812 80.9373C347.75 81.531 350.312 77.9373 350.156 74.281C350.094 72.8123 349.625 71.1248 348.219 70.406C346.75 69.6248 345 70.1873 343.75 71.0935C343.281 71.406 343.75 72.2185 344.25 71.8748Z" fill="#3F4B4D"/>
<path d="M320.563 65.4689C319.531 71.7814 318.781 78.1251 318.25 84.5001C318.219 84.9689 318.906 85.1251 319.125 84.7501C320.187 82.8751 321.25 80.9689 322.312 79.0939C322.594 78.5626 321.813 78.0939 321.5 78.6251C320.438 80.5001 319.375 82.4064 318.312 84.2814C318.594 84.3751 318.906 84.4376 319.187 84.5314C319.687 78.2501 320.437 72.0001 321.469 65.7501C321.562 65.1251 320.656 64.8751 320.563 65.4689Z" fill="#3F4B4D"/>
<path d="M320.125 87.1873C323.375 88.6561 326.594 86.9998 328.344 84.1248C328.656 83.5936 327.844 83.1248 327.531 83.6561C326.094 86.0623 323.375 87.6561 320.594 86.3748C320.031 86.1248 319.563 86.9373 320.125 87.1873Z" fill="#3F4B4D"/>
<path d="M327.062 83.4687C327.594 83.5625 328.063 83.8125 328.375 84.2812C328.719 84.7812 329.531 84.3125 329.188 83.8125C328.75 83.1562 328.094 82.6875 327.313 82.5625C326.719 82.4687 326.469 83.375 327.062 83.4687Z" fill="#3F4B4D"/>
<path d="M317.344 73.625C317.603 73.625 317.812 72.6876 317.812 71.5312C317.812 70.3749 317.603 69.4375 317.344 69.4375C317.085 69.4375 316.875 70.3749 316.875 71.5312C316.875 72.6876 317.085 73.625 317.344 73.625Z" fill="#3F4B4D"/>
<path d="M326.094 72.6875C326.353 72.6875 326.562 71.7501 326.562 70.5937C326.562 69.4374 326.353 68.5 326.094 68.5C325.835 68.5 325.625 69.4374 325.625 70.5937C325.625 71.7501 325.835 72.6875 326.094 72.6875Z" fill="#3F4B4D"/>
<path d="M315.812 66.4685C316.219 65.5623 317.375 64.3748 318.344 65.406C318.75 65.8435 319.406 65.1873 319 64.7498C317.625 63.2498 315.687 64.531 315 65.9998C314.75 66.5623 315.562 67.031 315.812 66.4685Z" fill="#3F4B4D"/>
<path d="M324.687 64.6874C325.219 63.0937 327.062 63.5624 327.969 64.4687C328.375 64.9062 329.062 64.2499 328.625 63.8124C327.187 62.3437 324.5 62.1562 323.781 64.4374C323.594 65.0312 324.5 65.2812 324.687 64.6874Z" fill="#3F4B4D"/>
<path d="M327.719 75.9375C328.312 75.9375 328.312 75 327.719 75C327.125 75 327.125 75.9375 327.719 75.9375Z" fill="#3F4B4D"/>
<path d="M330.844 74.75C331.438 74.75 331.438 73.8125 330.844 73.8125C330.219 73.8125 330.219 74.75 330.844 74.75Z" fill="#3F4B4D"/>
<path d="M330.156 77.0938C330.75 77.0938 330.75 76.1562 330.156 76.1562C329.531 76.1562 329.531 77.0938 330.156 77.0938Z" fill="#3F4B4D"/>
</svg>
