<svg width="161" height="48" viewBox="0 0 161 48" fill="none" xmlns="http://www.w3.org/2000/svg">
<g clip-path="url(#clip0_518_113)">
<path d="M33.6977 45.76C33.0634 45.6 32.4291 46 32.3498 46.56C32.1912 47.2 32.5877 47.84 33.1427 47.92C33.777 48.08 34.4113 47.68 34.4906 47.12C34.7285 46.48 34.332 45.92 33.6977 45.76Z" fill="#C7D6D9"/>
<path d="M27.7511 44.32C26.9582 44.08 26.086 44.64 25.9274 45.44C25.6895 46.24 26.2446 47.12 27.0375 47.28C27.8303 47.52 28.7025 46.96 28.8611 46.16C29.099 45.36 28.6232 44.48 27.7511 44.32Z" fill="#C7D6D9"/>
<path d="M21.4872 41.28C20.5358 41.04 19.505 41.6 19.2672 42.64C19.0293 43.6 19.5843 44.64 20.6151 44.88C21.5665 45.12 22.5973 44.56 22.8352 43.52C23.073 42.56 22.4387 41.52 21.4872 41.28Z" fill="#C7D6D9"/>
<path d="M16.2542 40.88C17.4365 40.88 18.395 39.9129 18.395 38.72C18.395 37.5271 17.4365 36.56 16.2542 36.56C15.0719 36.56 14.1134 37.5271 14.1134 38.72C14.1134 39.9129 15.0719 40.88 16.2542 40.88Z" fill="#C7D6D9"/>
<path d="M12.2126 35.7318C13.5962 35.5078 14.5379 34.1946 14.3159 32.7985C14.094 31.4025 12.7924 30.4523 11.4088 30.6763C10.0251 30.9002 9.08342 32.2135 9.30539 33.6095C9.52735 35.0056 10.8289 35.9557 12.2126 35.7318Z" fill="#C7D6D9"/>
<path d="M12.0519 26.72C12.1312 25.68 11.5762 24.72 10.6247 24.32C9.1182 23.68 7.45314 24.64 7.29456 26.32C7.21527 27.36 7.7703 28.32 8.72176 28.72C10.2282 29.36 11.8933 28.32 12.0519 26.72Z" fill="#C7D6D9"/>
<path d="M8.57882 21.9366C9.45739 21.6626 9.94948 20.7219 9.67793 19.8354C9.40637 18.9489 8.47401 18.4524 7.59543 18.7264C6.71686 19.0004 6.22477 19.9412 6.49632 20.8276C6.76788 21.7141 7.70024 22.2106 8.57882 21.9366Z" fill="#C7D6D9"/>
<path d="M7.37386 16.4C8.20587 16.4 8.88034 15.7195 8.88034 14.88C8.88034 14.0405 8.20587 13.36 7.37386 13.36C6.54185 13.36 5.86737 14.0405 5.86737 14.88C5.86737 15.7195 6.54185 16.4 7.37386 16.4Z" fill="#C7D6D9"/>
<path d="M11.814 13.2C12.7774 13.2 13.5584 12.412 13.5584 11.44C13.5584 10.468 12.7774 9.67999 11.814 9.67999C10.8506 9.67999 10.0697 10.468 10.0697 11.44C10.0697 12.412 10.8506 13.2 11.814 13.2Z" fill="#C7D6D9"/>
<path d="M18.395 8.23998C17.4435 7.67998 16.1749 7.91998 15.5406 8.95998C14.9856 9.91998 15.2234 11.2 16.2542 11.84C17.2057 12.4 18.4743 12.16 19.1086 11.12C19.6636 10.16 19.3464 8.87998 18.395 8.23998Z" fill="#C7D6D9"/>
<path d="M24.5795 10.72C25.1345 9.83999 24.8174 8.63999 23.9452 8.07999C23.073 7.51999 21.8837 7.83999 21.3287 8.71999C20.7737 9.59999 21.0908 10.8 21.963 11.36C22.9145 11.84 24.1038 11.6 24.5795 10.72Z" fill="#C7D6D9"/>
<path d="M28.9451 10.7801C29.2539 10.1456 28.9945 9.37858 28.3656 9.06697C27.7367 8.75535 26.9765 9.01714 26.6677 9.65167C26.3588 10.2862 26.6183 11.0532 27.2472 11.3648C27.8761 11.6764 28.6362 11.4147 28.9451 10.7801Z" fill="#C7D6D9"/>
<path d="M32.5877 10.64C32.0327 10.24 31.3191 10.4 30.9226 10.96C30.5262 11.52 30.6848 12.24 31.2398 12.64C31.7948 13.04 32.5084 12.88 32.9048 12.32C33.3013 11.76 33.1427 11.04 32.5877 10.64Z" fill="#C7D6D9"/>
<path d="M35.8385 10.16C35.1249 10.8 35.1249 11.84 35.6799 12.48C36.3142 13.2 37.345 13.2 37.9793 12.64C38.6136 12.08 38.6929 10.96 38.1379 10.32C37.5829 9.6 36.5521 9.6 35.8385 10.16Z" fill="#C7D6D9"/>
<path d="M36.8693 18.16C37.5036 17.6 37.5829 16.64 37.0278 16C36.4728 15.36 35.5214 15.28 34.8871 15.84C34.2527 16.4 34.1735 17.36 34.7285 18C35.2835 18.72 36.235 18.72 36.8693 18.16Z" fill="#C7D6D9"/>
<path d="M33.6977 21.92C34.267 21.92 34.7285 21.4543 34.7285 20.88C34.7285 20.3056 34.267 19.84 33.6977 19.84C33.1285 19.84 32.667 20.3056 32.667 20.88C32.667 21.4543 33.1285 21.92 33.6977 21.92Z" fill="#C7D6D9"/>
<path d="M0.317157 13.84C-0.158575 14.32 -0.0792866 15.04 0.317157 15.44C0.79289 15.92 1.50649 15.84 1.90293 15.44C2.37866 14.96 2.29938 14.24 1.90293 13.84C1.50649 13.36 0.79289 13.36 0.317157 13.84Z" fill="#C7D6D9"/>
<path d="M5.07449 11.44C5.9065 11.44 6.58097 10.7595 6.58097 9.92002C6.58097 9.08055 5.9065 8.40002 5.07449 8.40002C4.24248 8.40002 3.568 9.08055 3.568 9.92002C3.568 10.7595 4.24248 11.44 5.07449 11.44Z" fill="#C7D6D9"/>
<path d="M11.8933 6.95997C12.6069 6.23997 12.6069 5.03997 11.8933 4.31997C11.1797 3.59997 9.99038 3.59997 9.27678 4.31997C8.56319 5.03997 8.56319 6.23997 9.27678 6.95997C9.99038 7.75997 11.1797 7.75997 11.8933 6.95997Z" fill="#C7D6D9"/>
<path d="M16.7299 5.84002C17.9123 5.84002 18.8707 4.87295 18.8707 3.68002C18.8707 2.48708 17.9123 1.52002 16.7299 1.52002C15.5476 1.52002 14.5891 2.48708 14.5891 3.68002C14.5891 4.87295 15.5476 5.84002 16.7299 5.84002Z" fill="#C7D6D9"/>
<path d="M23.6541 5.12022C25.0554 5.10618 26.1801 3.94866 26.1661 2.53481C26.1522 1.12096 25.005 -0.0138155 23.6037 0.000220461C22.2024 0.0142564 21.0778 1.17179 21.0917 2.58563C21.1056 3.99948 22.2528 5.13426 23.6541 5.12022Z" fill="#C7D6D9"/>
<path d="M29.099 6.07999C29.8919 6.63999 31.0019 6.63999 31.8741 6.07999C33.222 5.11999 33.1427 3.11999 31.7948 2.15999C31.0019 1.59999 29.8919 1.59999 29.0197 2.15999C27.7511 3.11999 27.7511 5.11999 29.099 6.07999Z" fill="#C7D6D9"/>
<path d="M37.7414 6.95997C38.3758 6.31997 38.3758 5.27997 37.7414 4.63997C37.1071 3.99997 36.0764 3.99997 35.4421 4.63997C34.8078 5.27997 34.8078 6.31997 35.4421 6.95997C36.0764 7.59997 37.1071 7.59997 37.7414 6.95997Z" fill="#C7D6D9"/>
<path d="M42.3402 9.12C43.0538 8.72 43.2917 7.84 42.8952 7.12C42.4988 6.4 41.6266 6.16 40.913 6.56C40.1994 6.96 39.9615 7.84 40.358 8.56C40.7544 9.28 41.6266 9.52 42.3402 9.12Z" fill="#C7D6D9"/>
<path d="M41.468 11.92C40.5958 12.4 40.358 13.44 40.7544 14.32C41.2301 15.2 42.2609 15.44 43.1331 15.04C44.0053 14.56 44.2431 13.52 43.8467 12.64C43.3709 11.76 42.3402 11.44 41.468 11.92Z" fill="#C7D6D9"/>
<path d="M40.7544 21.04C41.893 21.04 42.8159 20.1088 42.8159 18.96C42.8159 17.8113 41.893 16.88 40.7544 16.88C39.6159 16.88 38.6929 17.8113 38.6929 18.96C38.6929 20.1088 39.6159 21.04 40.7544 21.04Z" fill="#C7D6D9"/>
<path d="M39.4377 25.5808C40.2689 24.9319 40.4214 23.7259 39.7782 22.8873C39.135 22.0486 37.9397 21.8948 37.1085 22.5438C36.2773 23.1927 36.1249 24.3987 36.7681 25.2373C37.4113 26.076 38.6065 26.2298 39.4377 25.5808Z" fill="#C7D6D9"/>
<path d="M34.7285 26.88C34.0942 27.2 33.8563 28 34.2527 28.64C34.5699 29.28 35.3628 29.52 35.9971 29.2C36.6314 28.88 36.8693 28.08 36.5521 27.44C36.1557 26.72 35.3628 26.56 34.7285 26.88Z" fill="#C7D6D9"/>
<path d="M33.222 30.4C32.9048 29.76 32.1912 29.52 31.6362 29.84C31.0019 30.16 30.764 30.88 31.0812 31.44C31.3983 32.08 32.1119 32.32 32.667 32C33.222 31.76 33.5391 31.04 33.222 30.4Z" fill="#C7D6D9"/>
<path d="M29.4954 33.84C28.6232 34 28.0682 34.88 28.2268 35.84C28.3854 36.72 29.2575 37.28 30.209 37.12C31.0812 36.96 31.6362 36.08 31.4776 35.12C31.2398 34.24 30.3676 33.68 29.4954 33.84Z" fill="#C7D6D9"/>
<path d="M24.0245 32C24.1831 32.8 24.976 33.36 25.8481 33.2C26.7203 33.04 27.196 32.24 27.0375 31.36C26.8789 30.56 26.086 30 25.2138 30.16C24.4209 30.4 23.8659 31.2 24.0245 32Z" fill="#C7D6D9"/>
<path d="M24.3416 27.68C24.2624 27.12 23.7073 26.72 23.073 26.88C22.518 26.96 22.1216 27.52 22.2801 28.16C22.3594 28.72 22.9144 29.12 23.5488 28.96C24.1038 28.8 24.4209 28.24 24.3416 27.68Z" fill="#C7D6D9"/>
<path d="M45.1946 3.59999C45.8289 3.43999 46.1461 2.79999 45.9875 2.15999C45.8289 1.51999 45.1946 1.19999 44.5603 1.35999C43.926 1.51999 43.6088 2.15999 43.7674 2.79999C44.0053 3.43999 44.6396 3.83999 45.1946 3.59999Z" fill="#C7D6D9"/>
<path d="M45.5118 8.79999C45.7496 9.59999 46.5425 10.08 47.4147 9.83999C48.2076 9.59999 48.6833 8.79999 48.4454 7.91999C48.2076 7.11999 47.4147 6.63999 46.5425 6.87999C45.8289 7.11999 45.3532 7.91999 45.5118 8.79999Z" fill="#C7D6D9"/>
<path d="M49.6348 14.72C49.3969 13.76 48.3661 13.2 47.3354 13.44C46.3046 13.68 45.8289 14.72 46.0668 15.76C46.3046 16.72 47.3354 17.28 48.3661 17.04C49.3969 16.8 49.9519 15.76 49.6348 14.72Z" fill="#C7D6D9"/>
<path d="M45.9875 19.52C44.7981 19.84 44.1638 21.04 44.481 22.24C44.7981 23.44 45.9875 24.08 47.1768 23.76C48.3661 23.44 49.0005 22.24 48.6833 21.04C48.2869 19.84 47.0975 19.2 45.9875 19.52Z" fill="#C7D6D9"/>
<path d="M44.3026 30.7876C45.6945 30.6237 46.6912 29.3524 46.5288 27.948C46.3664 26.5437 45.1063 25.538 43.7145 25.7019C42.3226 25.8658 41.3259 27.1371 41.4883 28.5414C41.6507 29.9458 42.9107 30.9514 44.3026 30.7876Z" fill="#C7D6D9"/>
<path d="M38.2965 31.28C37.4243 31.68 36.8693 32.72 36.9486 33.68C37.1071 35.36 38.8515 36.32 40.358 35.6C41.2302 35.2 41.7852 34.16 41.7059 33.2C41.468 31.52 39.803 30.56 38.2965 31.28Z" fill="#C7D6D9"/>
<path d="M34.8078 39.6C35.7274 39.6 36.4728 38.8478 36.4728 37.92C36.4728 36.9922 35.7274 36.24 34.8078 36.24C33.8882 36.24 33.1427 36.9922 33.1427 37.92C33.1427 38.8478 33.8882 39.6 34.8078 39.6Z" fill="#C7D6D9"/>
<path d="M31.2583 42.6819C31.9887 42.2798 32.2576 41.3564 31.8591 40.6196C31.4606 39.8827 30.5454 39.6113 29.8151 40.0134C29.0848 40.4155 28.8158 41.3388 29.2143 42.0757C29.6129 42.8126 30.528 43.084 31.2583 42.6819Z" fill="#C7D6D9"/>
<path d="M26.918 39.8663C27.342 38.9934 26.9844 37.939 26.1192 37.5112C25.2541 37.0834 24.2091 37.4442 23.7851 38.3171C23.3611 39.19 23.7187 40.2444 24.5839 40.6722C25.449 41.0999 26.494 40.7391 26.918 39.8663Z" fill="#C7D6D9"/>
<path d="M21.408 32.96C20.2979 32.96 19.3465 33.84 19.3465 34.96C19.3465 36.08 20.2186 37.04 21.3287 37.04C22.4387 37.04 23.3902 36.16 23.3902 35.04C23.4695 33.92 22.5973 32.96 21.408 32.96Z" fill="#C7D6D9"/>
<path d="M18.2364 32.16C19.2874 32.16 20.1393 31.3004 20.1393 30.24C20.1393 29.1796 19.2874 28.32 18.2364 28.32C17.1855 28.32 16.3335 29.1796 16.3335 30.24C16.3335 31.3004 17.1855 32.16 18.2364 32.16Z" fill="#C7D6D9"/>
<path d="M16.3335 27.04C17.0471 27.04 17.6814 26.48 17.6814 25.76C17.6814 25.04 17.1264 24.4 16.4128 24.4C15.6992 24.4 15.0649 24.96 15.0649 25.68C14.9856 26.48 15.5406 27.04 16.3335 27.04Z" fill="#C7D6D9"/>
<path d="M16.6506 21.6C16.7299 20.96 16.2542 20.32 15.5406 20.24C14.9063 20.16 14.272 20.64 14.1927 21.36C14.1134 22 14.5891 22.64 15.3027 22.72C16.0163 22.72 16.5713 22.24 16.6506 21.6Z" fill="#C7D6D9"/>
<path d="M14.4326 17.2772C14.5039 16.3521 13.8185 15.5439 12.9017 15.4719C11.9849 15.3999 11.1838 16.0915 11.1125 17.0166C11.0412 17.9416 11.7266 18.7499 12.6434 18.8218C13.5602 18.8938 14.3613 18.2022 14.4326 17.2772Z" fill="#C7D6D9"/>
<path d="M18.0778 16.88C18.9098 16.88 19.5843 16.1994 19.5843 15.36C19.5843 14.5205 18.9098 13.84 18.0778 13.84C17.2458 13.84 16.5714 14.5205 16.5714 15.36C16.5714 16.1994 17.2458 16.88 18.0778 16.88Z" fill="#C7D6D9"/>
<path d="M21.4873 14.96C21.3287 15.52 21.5665 16.08 22.1216 16.32C22.6766 16.48 23.2316 16.24 23.4695 15.68C23.628 15.12 23.3902 14.56 22.8352 14.32C22.2801 14.08 21.7251 14.4 21.4873 14.96Z" fill="#C7D6D9"/>
<path d="M60.6661 18.6353H63.093V25.5021L68.1278 18.6353H70.4191V29.1765H68.0072V22.3247L62.9724 29.1765H60.6661V18.6353Z" fill="#C7D6D9"/>
<path d="M81.111 20.6231H77.7344V29.1765H75.3225V20.6231H71.961V18.6353H81.111V20.6231Z" fill="#C7D6D9"/>
<path d="M90.29 18.4546C91.3352 18.4546 92.2698 18.6905 93.0938 19.1624C93.9279 19.6242 94.5812 20.2717 95.0535 21.1049C95.5258 21.9282 95.762 22.8618 95.762 23.9059C95.762 24.95 95.5258 25.8886 95.0535 26.7219C94.5812 27.5451 93.9279 28.1926 93.0938 28.6645C92.2698 29.1263 91.3352 29.3572 90.29 29.3572C89.3554 29.3572 88.5113 29.1966 87.7576 28.8753C87.0139 28.554 86.3909 28.0872 85.8884 27.4748L87.441 26.0292C88.1847 26.8624 89.0942 27.2791 90.1694 27.2791C90.9433 27.2791 91.5965 27.0532 92.1291 26.6014C92.6718 26.1496 93.0235 25.5423 93.1843 24.7793H88.9032V22.912H93.1541C92.9833 22.1892 92.6316 21.6119 92.0989 21.1802C91.5663 20.7486 90.9232 20.5327 90.1694 20.5327C89.0942 20.5327 88.1847 20.9493 87.441 21.7826L85.8884 20.3369C86.3909 19.7246 87.0139 19.2577 87.7576 18.9365C88.5113 18.6152 89.3554 18.4546 90.29 18.4546Z" fill="#C7D6D9"/>
<path d="M101.759 24.9299H100.071V29.1765H97.6442V18.6353H100.071V22.8969H101.82L104.593 18.6353H107.171L103.719 23.7252L107.277 29.1765H104.503L101.759 24.9299Z" fill="#C7D6D9"/>
<path d="M113.366 29.3572C112.291 29.3572 111.316 29.1263 110.442 28.6645C109.577 28.1926 108.894 27.5451 108.392 26.7219C107.899 25.8886 107.653 24.95 107.653 23.9059C107.653 22.8618 107.899 21.9282 108.392 21.1049C108.894 20.2717 109.577 19.6242 110.442 19.1624C111.316 18.6905 112.296 18.4546 113.381 18.4546C114.296 18.4546 115.12 18.6152 115.853 18.9365C116.597 19.2577 117.22 19.7195 117.722 20.3219L116.155 21.7675C115.441 20.9443 114.557 20.5327 113.502 20.5327C112.848 20.5327 112.266 20.6783 111.753 20.9694C111.241 21.2505 110.839 21.6471 110.547 22.1591C110.266 22.6711 110.125 23.2533 110.125 23.9059C110.125 24.5584 110.266 25.1407 110.547 25.6527C110.839 26.1647 111.241 26.5663 111.753 26.8574C112.266 27.1385 112.848 27.2791 113.502 27.2791C114.557 27.2791 115.441 26.8624 116.155 26.0292L117.722 27.4748C117.22 28.0872 116.597 28.554 115.853 28.8753C115.11 29.1966 114.281 29.3572 113.366 29.3572Z" fill="#C7D6D9"/>
<path d="M128.931 18.6353V29.1765H126.504V20.6231H121.741V29.1765H119.314V18.6353H128.931Z" fill="#C7D6D9"/>
<path d="M139.717 27.2188V29.1765H131.547V18.6353H139.521V20.5929H133.974V22.8819H138.873V24.7793H133.974V27.2188H139.717Z" fill="#C7D6D9"/>
<path d="M146.257 18.6353C147.192 18.6353 148.001 18.7909 148.684 19.1021C149.378 19.4133 149.91 19.8551 150.282 20.4273C150.654 20.9995 150.84 21.6772 150.84 22.4602C150.84 23.2333 150.654 23.9109 150.282 24.4932C149.91 25.0654 149.378 25.5071 148.684 25.8184C148.001 26.1195 147.192 26.2701 146.257 26.2701H144.132V29.1765H141.69V18.6353H146.257ZM146.122 24.2824C146.855 24.2824 147.413 24.1267 147.795 23.8155C148.177 23.4943 148.368 23.0425 148.368 22.4602C148.368 21.8679 148.177 21.4162 147.795 21.1049C147.413 20.7837 146.855 20.6231 146.122 20.6231H144.132V24.2824H146.122Z" fill="#C7D6D9"/>
<path d="M160.221 20.6231H156.844V29.1765H154.433V20.6231H151.071V18.6353H160.221V20.6231Z" fill="#C7D6D9"/>
</g>
<defs>
<clipPath id="clip0_518_113">
<rect width="160.163" height="48" fill="white"/>
</clipPath>
</defs>
</svg>
